<svg width="740" height="310" viewBox="0 0 740 310" fill="none" xmlns="http://www.w3.org/2000/svg">
<rect x="30" y="67" width="663" height="212" rx="19" fill="url(#paint0_linear_30_308)"/>
<g clip-path="url(#clip0_30_308)">
<path d="M160.841 122.108C160.695 123.207 160.494 124.307 160.394 125.432C160.05 128.306 160.728 131.149 161.049 133.994C161.397 136.264 161.61 138.583 162.257 140.798C162.319 141.015 162.399 141.231 162.461 141.448C162.502 141.31 162.571 141.181 162.602 141.034C163.608 136.945 164.378 132.617 166.975 129.192C169.775 125.04 179.441 126.646 177.695 132.618C176.704 136.067 173.399 137.891 170.488 139.538C168.694 140.732 166.63 141.46 164.815 142.6C164.217 142.991 163.972 144.139 163.362 144.449C163.424 144.666 163.495 144.874 163.556 145.091C163.878 146.558 163.754 148.067 163.94 149.548C163.991 150.002 164.163 150.499 163.949 150.934C164.126 151.065 164.295 151.188 164.481 151.31C167.731 153.62 171.13 155.752 174.178 158.314C178.141 161.788 181.814 165.59 185.786 169.054C187.426 170.665 188.818 172.52 190.494 174.111C191.486 175.148 192.477 176.185 193.46 177.214C193.375 176.87 193.282 176.535 193.153 176.22C192.013 173.701 190.961 171.106 189.443 168.78C188.334 167.208 187.078 165.623 187.039 163.609C186.795 162.002 187.262 160.41 187.146 158.799C187.089 156.785 186.216 154.924 185.832 152.956C185.384 154.037 183.207 153.3 182.259 153.31C179.981 153.096 177.396 152.7 175.945 150.719C175.279 149.9 174.595 148.78 175.061 147.699C176.064 145.745 178.851 145.606 180.598 146.611C182.466 147.677 183.777 149.525 185.749 150.442C185.981 150.535 186.167 150.657 186.353 150.779C186.382 149.976 186.458 149.253 186.467 148.961C184.306 147.603 182.379 145.582 181.695 143.067C181.075 141.125 182.392 139.024 184.513 139.179C186.847 139.41 188.509 141.695 188.809 143.884C189.278 146.797 187.416 149.534 187.83 152.413C187.878 152.776 188.082 153.162 187.82 153.498C187.802 153.517 187.784 153.518 187.757 153.528C188.079 154.713 188.446 155.887 188.685 157.084C189.349 159.809 188.013 162.722 189.139 165.351C189.925 166.778 190.979 168.05 191.773 169.467C192.432 170.633 192.937 171.867 193.488 173.072C193.576 172.413 193.682 171.753 193.843 171.11C194.208 169.458 194.858 167.842 195.955 166.541C196.518 165.904 196.968 165.179 197.271 164.386C196.111 162.113 195.419 159.663 194.638 157.251C194.182 155.587 194.425 153.537 195.838 152.409C198.918 150.374 201.536 154.563 201.235 157.354C201.108 160.431 199.852 163.278 198.555 166.016C197.939 167.239 196.866 168.174 196.315 169.44C195.687 170.881 195.3 172.443 195.106 174.009C194.933 174.853 195.201 175.812 194.835 176.598C194.991 177.186 195.147 177.774 195.321 178.362C195.413 178.66 195.459 178.932 195.322 179.21C196.458 180.471 197.549 181.778 198.579 183.134C198.645 182.931 198.812 182.734 199.118 182.597C199.911 181.753 200.33 180.628 200.77 179.575C201.889 176.987 202.932 174.311 204.683 172.07C205.829 170.321 208.067 168.767 210.098 170.055C211.661 170.993 212.803 173.002 212.123 174.801C210.699 178.656 206.314 177.328 203.751 179.813C203.18 180.195 202.684 180.666 202.094 181.012C201.387 181.426 200.12 184.51 200.414 185.422C200.893 186.931 202.9 188.339 203.704 189.765C205.178 192.456 206.169 195.399 206.56 198.434C206.8 199.913 206.708 201.557 207.219 202.937C208.67 206.861 211.214 209.885 213.302 213.488C214.317 215.236 215.528 216.85 216.722 218.483C217.236 216.653 217.623 214.808 217.432 212.899C217.298 210.477 217.61 208.033 217.249 205.627C216.674 203.127 215.665 200.731 215.136 198.221C214.585 195.62 214.397 192.954 214.319 190.302C214.42 187.518 215.333 184.791 216.835 182.456C218.1 180.166 220.092 177.762 222.961 177.912C225.068 177.931 227.098 178.919 228.384 180.586C229.427 181.794 230.419 183.114 230.898 184.659C231.62 187.191 231.096 189.843 230.402 192.317C229.741 194.963 228.757 197.501 227.662 199.987C226.718 202.086 225.918 204.372 224.267 206.054C223.388 206.783 222.633 207.663 221.773 208.409C221.302 208.797 220.614 208.945 220.285 209.502C220.14 209.79 220.003 210.086 219.83 210.364C219.665 210.616 219.517 210.83 219.573 211.147C219.547 212.024 219.549 212.908 219.541 213.784C219.56 216.027 218.81 218.183 217.974 220.242C219.478 222.696 220.604 225.343 222.305 227.682C223.804 229.725 224.495 232.157 225.437 234.473C226.745 237.361 228.278 240.178 229.127 243.254C229.854 245.667 230.445 248.111 231.271 250.494C231.926 252.399 232.618 254.302 232.949 256.308C233.152 257.77 233.4 259.222 233.658 260.682C235.407 257.292 238.01 254.067 238.807 250.276C239.25 248.202 239.884 247.262 239.17 245.213C238.332 242.767 237.631 240.289 236.829 237.823C236.083 235.639 235.651 233.308 235.986 231.009C236.258 229.022 236.897 227.115 237.427 225.174C237.956 223.252 238.393 221.278 239.376 219.534C241.791 215.321 245.425 209.867 250.773 213.582C253.263 215.249 255.348 217.649 256.264 220.54C257.877 226.045 255.627 231.986 252.156 236.286C249.851 239.137 247.111 241.527 244.599 244.183C242.704 246.201 240.967 248.843 240.013 251.444C240.149 251.431 240.285 251.418 240.431 251.413C240.515 250.909 241.017 250.657 241.421 250.435C242.489 249.919 243.508 249.287 244.566 248.744C247.833 247.132 251.271 245.715 254.85 244.978C256.781 244.619 258.883 245.039 260.36 246.408C262.067 248.135 263.471 250.884 262.565 253.3C260.568 257.765 255.285 256.301 251.519 255.503C249.876 255.178 248.202 255.037 246.56 254.731C244.816 254.4 243.178 253.693 241.467 253.233C240.803 253.016 240.093 253.056 239.414 253.213C238.949 254.613 238.484 255.995 237.815 257.31C236.929 258.933 235.867 260.461 235.064 262.127C234.719 262.739 234.523 263.42 234.307 264.083C234.428 264.69 234.538 265.289 234.659 265.896C235.196 268.926 236.502 271.76 236.967 274.81C237.151 275.689 237.317 276.569 237.455 277.458C237.516 277.921 237.642 278.428 237.364 278.838C236.415 279.961 235.255 279.047 235.251 277.844C234.95 276.147 234.683 274.432 234.291 272.756C233.754 270.857 232.848 269.07 232.383 267.15C231.812 264.742 231.213 262.343 230.777 259.903C230.665 259.268 230.571 258.632 230.468 257.988C229.815 257.551 229.154 257.124 228.432 256.8C225.967 255.898 223.221 255.598 220.608 255.74C216.292 257.639 219.869 263.806 209.758 266.691C207.762 267.308 204.722 266.661 204.621 264.147C204.53 263.018 204.942 261.975 205.457 260.993C206.927 257.976 209.373 255.239 212.66 254.247C215.444 253.734 218.265 253.275 221.109 253.226C222.914 253.19 224.661 253.612 226.383 254.134C224.836 253.123 223.019 251.381 222.239 250.967C221.5 250.414 220.761 249.844 220.022 249.273C219.82 249.243 219.625 249.149 219.509 248.951C219.499 248.924 219.498 248.888 219.488 248.861C218.524 248.096 217.542 247.351 216.559 246.605C216.206 246.68 215.794 246.628 215.45 246.693C213.738 246.8 212.063 247.169 210.408 247.593C210.335 247.878 210.104 248.067 209.872 248.22C209.346 248.573 208.904 249.006 208.51 249.501C207.873 250.104 207.543 250.908 207.177 251.694C206.301 253.362 204.896 255.009 202.906 255.224C200.764 255.562 198.463 253.808 198.066 251.722C197.91 250.286 198.899 249.025 199.796 248.013C202.277 244.956 204.887 245.005 208.407 246.085C208.986 246.24 209.566 246.114 210.137 245.996C211.559 245.707 212.992 245.463 214.44 245.392C214.586 245.388 214.732 245.383 214.877 245.379C214.121 244.845 213.365 244.33 212.575 243.852C209.764 242.414 206.596 242.053 203.497 241.827C201.427 241.58 199.355 241.806 197.288 241.896C196.057 241.906 194.821 242.052 193.636 242.334C193.572 242.345 193.582 242.354 193.565 242.409C193.427 243.763 193.936 245.088 193.917 246.448C194.077 249.106 193.199 252.096 190.44 253.055C188.288 253.931 186.015 252.732 184.708 250.993C183.796 249.89 183.106 248.324 183.745 246.927C185.301 243.78 188.741 242.418 191.79 241.131C191.917 241.091 192.034 241.042 192.16 241.001C192.286 240.961 192.232 240.981 192.277 240.952C190.058 240.882 187.838 240.758 185.695 240.229C185.164 241.002 184.522 241.706 183.737 242.24C182.731 243.009 181.755 243.841 180.606 244.386C178.634 245.184 176.246 246.05 174.212 244.953C171.822 243.821 171.999 239.748 173.724 238.118C176.573 236.008 183.138 237.616 186.309 238.651C188.342 239.165 190.444 239.302 192.53 239.495C192.813 239.513 193.087 239.523 193.371 239.542C191.062 238.946 188.721 238.196 186.969 236.516C186.894 236.445 186.761 236.285 186.651 236.27C184.677 235.6 182.636 235.114 180.678 234.37C178.058 233.446 174.845 231.436 174.988 228.304C175.255 226.7 176.474 225.213 178.126 224.962C181.971 224.299 184.876 228.316 186.29 231.392C186.741 232.628 187.021 233.933 187.938 234.918C188.252 235.036 188.56 235.255 188.626 235.599C190.284 236.927 192.329 237.54 194.338 238.154C196.465 239.057 198.772 239.863 201.027 239.95C203.411 240.033 205.823 240.161 208.173 240.62C207.139 239.702 206.255 238.607 205.765 237.299C205.617 236.948 205.478 236.606 205.339 236.264C205.318 236.191 205.317 236.155 205.253 236.129C204.651 235.865 204.058 235.591 203.483 235.298C200.464 233.61 194.703 231.504 193.4 228.196C192.981 227.096 193.259 225.857 193.847 224.872C196.024 221.159 201.778 223.083 203.8 226.041C205.112 228.245 205.961 230.755 206.598 233.225C206.767 233.931 206.892 234.666 207.151 235.352C207.2 235.432 207.293 235.484 207.341 235.565C207.483 235.734 207.536 235.96 207.516 236.171C207.502 236.299 207.482 236.245 207.521 236.335C207.882 237.309 208.403 238.205 209.122 238.968C210.105 240.032 211.352 240.797 212.572 241.536C212.999 241.778 213.585 242.117 213.7 242.578C214.909 243.271 216.022 244.122 217.188 244.899C217.775 245.292 218.345 245.721 218.916 246.151C218.905 246.106 218.894 246.042 218.892 245.988C218.669 244.736 218.417 243.458 218.53 242.187C218.521 242.178 218.408 242.072 218.408 242.072C216.041 239.972 210.768 234.668 212.829 231.305C214.018 229.755 216.34 230.469 217.729 231.385C219.465 232.592 220.239 234.766 220.669 236.76C220.94 239.168 220.225 241.57 220.322 243.975C220.427 245.221 220.595 246.456 220.754 247.701C220.83 247.772 220.914 247.833 220.989 247.904C222.537 249.216 224.199 250.388 225.748 251.718C226.375 252.219 227.891 254.226 228.82 253.915C229.903 253.554 228.179 249.94 227.962 249.153C226.982 245.689 226.281 242.117 224.715 238.863C223.957 237.18 223.146 235.518 222.559 233.766C222.036 232.003 221.306 230.329 220.262 228.819C218.59 226.489 217.446 223.861 215.97 221.415C214.84 219.771 213.567 218.241 212.526 216.54C211.37 214.641 210.266 212.704 209.038 210.844C207.368 208.323 206.1 205.26 203.323 203.73C202.728 203.383 202.133 203.054 201.538 202.707C201.483 202.709 201.437 202.701 201.383 202.703C200.571 202.7 199.751 202.724 198.922 202.758C197.121 202.904 195.33 203.076 193.517 203.14C193.171 203.151 192.826 203.197 192.481 203.244C192.445 203.282 192.384 203.348 192.348 203.385C191.204 205.471 190.709 207.903 190.467 210.254C190.403 212.19 190.578 214.209 189.661 215.997C187.587 220.336 182.325 220.34 179.453 216.778C177.125 214.204 176.98 211.718 178.929 208.851C180.217 207.252 181.957 206.078 183.528 204.763C185.583 203.16 188.085 202.155 190.61 201.559C192.265 201.135 193.984 201.247 195.671 201.242C196.728 201.229 197.794 201.169 198.852 201.192C197.078 200.215 195.304 199.238 193.512 198.279C192.871 197.906 192.254 197.451 191.639 197.05C191.154 197.001 190.66 196.961 190.175 196.911C189.077 196.799 187.954 197.051 187.053 197.671C186.092 198.411 184.996 198.919 183.92 199.48C182.325 200.331 180.71 201.145 179.211 202.175C178.309 202.741 177.339 203.208 176.338 203.557C174.228 204.295 172.13 205.134 169.907 205.465C164.535 206.32 158.495 204.587 155.12 200.128C151.544 195.922 151.336 190.976 153.814 186.187C154.693 184.327 156.555 183.268 158.391 182.501C160.285 181.596 162.308 180.988 164.398 180.743C171.528 179.279 177.83 180.94 183.576 185.382C184.671 186.215 185.67 187.207 186.527 188.294C187.695 189.708 188.363 191.448 189.505 192.891C190.567 194.136 192.061 194.903 193.378 195.839C195.299 197.149 197.455 198.079 199.437 199.287C201.073 200.222 202.657 201.232 204.276 202.205C204.213 201.669 204.159 201.142 204.087 200.615C203.436 196.065 201.763 191.51 198.605 188.085C196.985 186.264 195.73 184.15 194.137 182.301C190.64 178.557 187.036 174.908 183.512 171.193C179.694 167.961 176.236 164.326 172.567 160.916C172.318 160.823 172.058 160.685 171.836 160.601C170.536 160.157 169.284 159.547 167.918 159.323C164.141 158.461 160.255 158.168 156.43 157.508C156.386 157.555 156.351 157.592 156.307 157.639C155.155 158.659 154.331 159.97 153.329 161.131C153.075 161.439 152.783 161.712 152.51 162.003C152.949 162.592 152.999 163.84 153.082 164.43C153.179 165.704 153.479 167.063 154.368 168.04C154.415 168.084 154.406 168.075 154.461 168.091C154.673 168.149 154.815 168.318 154.93 168.497C155.312 168.75 155.749 168.983 156.14 169.227C156.914 169.741 157.423 170.519 157.913 171.298C158.755 172.477 159.449 173.906 159.087 175.385C158.832 176.788 157.542 177.766 156.136 177.736C155.274 177.862 154.422 177.468 154.049 176.658C153.342 175.129 152.964 173.344 153.228 171.667C153.314 170.935 153.499 170.191 153.365 169.447C153.345 169.393 153.224 169.314 153.177 169.27C151.574 167.677 151.616 165.332 151.465 163.248C151.464 163.193 151.444 163.139 151.432 163.075C151.335 163.179 151.22 163.283 151.123 163.386C150.162 164.372 149.219 165.377 148.219 166.328C148.392 166.879 148.24 167.531 148.214 168.106C148.186 168.645 148.177 169.202 148.14 169.75C148.095 169.761 148.05 169.789 148.005 169.818C148.385 171.393 148.223 173.113 147.357 174.507C147.085 174.853 146.693 174.855 146.396 174.7C143.421 177.416 137.631 175.247 140.075 170.795C140.357 170.212 140.753 169.772 141.187 169.385C141.196 169.375 141.195 169.357 141.195 169.339C141.534 168.845 141.864 168.325 142.268 167.875C143.036 167.095 144.063 166.699 145.062 166.295C145.511 166.081 146.002 166.03 146.473 165.924C147.048 165.369 147.595 164.805 148.16 164.241C148.847 163.509 149.554 162.813 150.27 162.126C151.075 161.344 151.879 160.563 152.627 159.747C153.357 158.914 154.057 157.999 154.861 157.218C154.338 157.115 153.815 157.03 153.3 156.9C152.27 156.639 151.256 156.323 150.234 156.016C149.777 156.258 149.149 156.04 148.641 156.128C147.264 156.124 145.939 156.592 144.825 157.401C143.199 158.417 141.445 159.19 139.866 160.268C139.6 160.477 139.34 160.64 139.081 160.784C139.029 160.877 138.968 160.961 138.879 161.037C137.603 162.169 136.787 163.699 135.866 165.113C135.999 165.82 136.294 166.486 136.264 167.217C136.113 168.753 135.599 170.319 134.608 171.525C133.264 173.089 130.793 173.948 128.856 172.994C126.602 171.867 126.55 169.151 128.107 167.398C129.591 165.648 131.889 164.539 134.178 164.534C134.375 164.419 134.478 164.215 134.599 164.029C135.163 163.146 135.792 162.288 136.477 161.483C135.784 161.486 135.049 161.343 134.24 161.131C133.026 160.839 131.807 160.383 130.789 159.657C130.189 159.693 129.599 159.793 128.999 159.848C127.554 160.01 126.146 159.623 124.832 159.043C117.819 155.46 125.17 149.913 129.177 154.981C130.008 155.85 130.59 156.927 131.395 157.824C131.444 157.923 131.536 157.956 131.636 157.926C131.984 157.97 132.294 158.244 132.36 158.588C133.687 159.287 136.451 160.417 137.818 159.564C139.499 158.51 141.16 157.439 142.956 156.6C144.337 155.865 145.671 154.84 147.273 154.719C144.331 152.628 141.729 150.043 138.62 148.149C138.546 148.096 138.555 148.087 138.52 148.143C138.347 148.422 138.021 148.504 137.709 148.459C134.528 148.245 129.854 149.206 127.25 147.132C125.967 146.122 124.727 144.445 125.529 142.779C126.353 141.204 128.132 140.102 129.917 140.03C131.442 140.066 133.013 140.429 134.369 141.154C136.359 142.335 137.007 144.832 138.767 146.238C141.162 147.762 143.513 149.37 145.671 151.22C146.479 151.943 147.262 152.713 148.158 153.343C148.403 153.573 148.876 153.823 149.35 154.109C149.625 154.138 149.92 154.238 150.186 154.276C151.942 154.706 153.708 155.146 155.52 155.328C159.843 155.891 164.297 156.259 168.472 157.583C166.2 155.873 163.892 154.219 161.577 152.592C158.093 149.815 154.346 147.374 150.256 145.564C144.71 142.776 138.91 140.58 133.061 138.549C128.205 136.497 123.156 134.934 118.213 133.013C117.569 133.133 116.917 133.262 116.262 133.318C115.544 133.385 114.825 133.434 114.107 133.501C114.037 133.613 113.949 133.707 113.842 133.783C111.803 136.389 110.912 139.808 108.442 142.099C108.837 144.394 109.838 146.553 110.882 148.628C112.569 152.225 111.758 156.427 109.963 159.81C105.997 166.824 95.6399 164.992 95.8427 156.441C95.8749 155.2 96.154 153.978 96.4796 152.783C97.2168 149.678 98.6531 146.753 101.356 144.911C102.298 144.135 103.22 143.323 104.256 142.672C105.625 141.855 107.173 141.225 108.113 139.865C109.731 138.029 110.639 135.685 112.109 133.762C110.866 133.973 109.604 134.148 108.342 134.058C107.155 134.003 105.971 133.774 104.813 133.517C103.767 133.895 102.611 134.24 101.826 135.057C100.592 136.352 99.4141 137.701 98.2173 139.032C95.9092 141.792 93.978 144.924 91.124 147.171C89.1615 148.79 86.8836 149.971 84.5732 150.998C82.803 151.808 80.9263 152.43 78.964 152.389C76.6138 152.478 74.1793 152.223 72.1745 150.888C69.1994 148.889 67.2174 145.191 67.7281 141.574C68.5126 136.853 70.6673 131.918 74.8591 129.302C76.5227 128.304 78.0869 127.053 79.9754 126.513C82.2555 125.951 84.6233 125.844 86.9641 125.746C89.4754 125.561 92.0092 125.786 94.3753 126.736C96.2033 127.41 97.8863 128.39 99.5165 129.426C102.044 130.864 104.968 131.56 107.82 132.031C109.608 132.333 111.374 131.96 113.146 131.752C113.856 131.712 114.558 131.7 115.269 131.679C113.584 130.927 111.891 130.185 110.138 129.581C102.772 126.355 95.1486 123.064 87.522 120.512C85.8352 119.97 84.1447 119.319 82.6363 118.38C82.1967 118.603 81.6494 118.601 81.1692 118.697C79.5432 118.901 77.9125 118.96 76.2836 119.072C75.4434 119.873 74.3203 120.39 73.7725 121.483C72.6794 123.194 71.3352 124.757 69.6587 125.92C67.2341 127.635 62.8131 130.212 59.7971 129.747C57.2948 129.092 55.0589 126.551 55.3178 123.881C55.8744 120.553 59.5959 120.003 62.2667 119.121C66.9497 117.301 72.0877 117.393 77.0551 117.289C78.3954 117.276 79.7363 117.281 81.0755 117.232C80.8684 117.037 80.6526 116.852 80.4544 116.649C75.6802 115.415 70.7518 114.761 65.9829 113.409C60.1873 111.623 54.3085 109.246 49.6628 105.255C46.7042 102.371 43.8965 99.0807 42.7967 95.0281C42.3208 93.3096 41.9353 91.5702 41.4864 89.8418C41.0427 87.9947 41.1798 86.0571 41.6215 84.229C42.5744 81.0265 45.4736 78.7687 48.228 77.0989C51.8275 75.0571 56.5548 76.529 60.1005 78.1277C62.7447 79.2154 65.204 80.783 66.9395 83.0837C69.353 85.7561 71.0355 88.9431 72.2225 92.3182C72.9891 94.5569 73.7287 96.8055 74.6576 98.9845C75.7526 101.779 76.6589 104.661 78.123 107.307C79.4505 109.684 79.5872 113.291 81.8995 114.827C84.4635 116.528 87.0077 118.458 89.9023 119.392C94.1615 120.778 98.3374 122.403 102.531 124.01C106.803 125.796 111.059 127.62 115.331 129.388C114.773 128.511 114.421 127.509 114.033 126.545C113.188 124.692 112.686 122.737 112.519 120.708C111.961 118.983 111.673 116.876 110.077 115.784C107.516 114.439 104.518 114.237 101.711 113.756C99.3923 113.415 97.0694 112.947 94.7308 112.835C93.4987 112.809 92.2536 112.946 91.0407 112.673C86.9542 112.103 87.533 107.507 90.7638 106.179C92.6551 105.447 94.5011 106.668 95.9079 107.848C96.7983 108.578 97.6365 109.383 98.2702 110.348C98.4714 110.643 98.7825 110.953 98.7404 111.337C99.7122 111.491 100.683 111.626 101.664 111.769C101.643 111.697 101.632 111.615 101.611 111.543C101.442 108.894 101.037 106.271 100.768 103.634C100.767 103.597 100.764 103.525 100.754 103.498C100.438 103.306 100.053 103.263 99.7041 103.183C98.1513 102.837 96.6138 102.4 95.1098 101.871C94.0955 101.537 93.0683 101.084 92.3924 100.22C89.9423 97.2658 92.9335 93.3636 96.4601 94.3792C98.2639 94.8721 99.4652 96.4593 100.445 97.9619C101.957 100.142 102.627 102.748 102.822 105.369C102.865 107.228 103.226 109.068 103.077 110.924C103.083 111.088 103.062 111.28 103.104 111.443C103.199 111.568 103.304 111.702 103.318 111.875C103.32 111.929 103.303 111.966 103.296 112.012C105.808 112.411 108.288 112.938 110.602 113.981C111.047 114.205 111.412 114.495 111.761 114.821C111.882 113.523 112.114 112.239 112.382 110.972C112.563 110.383 112.791 109.82 113.019 109.257C112.785 108.507 112.792 107.349 112.749 106.866C112.732 106.055 112.732 105.244 112.724 104.423C112.595 104.39 112.474 104.33 112.361 104.224C111.493 103.904 110.582 103.649 109.666 103.512C108.385 103.386 106.939 103.53 105.957 102.52C104.531 101.286 103.655 99.0509 104.609 97.2985C105.406 96.0159 107.341 96.3316 108.275 97.2793C109.365 98.5324 109.882 100.377 109.762 102.013C110.285 102.098 111.744 102.355 112.716 102.791C112.72 100.976 112.742 99.1603 112.838 97.3426C111.101 96.6653 109.62 95.4513 108.125 94.3654C106.771 93.3939 105.518 92.1822 104.991 90.5747C103.623 87.5424 104.996 82.9503 108.738 82.7373C110.185 82.6663 111.845 83.2001 112.688 84.4515C113.203 85.3936 113.249 86.5139 113.283 87.5708C113.31 88.6735 113.302 89.7955 113.438 90.8949C113.709 92.7746 114.416 94.5864 114.634 96.4859C114.536 99.8906 114.264 103.291 114.23 106.703C115.26 104.721 116.363 102.772 117.051 100.663C117.316 99.2871 117.475 97.7228 118.695 96.8379C121.705 94.3305 125.255 95.5095 125.525 99.5598C125.722 102.801 122.279 104.336 119.669 105.117C118.722 105.428 117.589 105.371 116.797 105.988C115.69 108.091 114.445 110.19 113.929 112.531C113.652 113.825 113.385 115.128 113.282 116.445C113.279 116.618 113.285 116.8 113.263 116.974C113.705 117.918 114.03 118.948 114.299 119.925C114.596 120.91 114.594 121.95 114.873 122.936C115.317 124.537 115.895 126.58 116.673 128.053C117.52 129.678 119.956 130.817 121.499 131.683C123.496 132.799 125.976 133.327 128.144 134.073C130.367 134.836 132.559 135.764 134.781 136.491C143.042 139.197 151.203 142.462 158.587 147.083C159.882 147.91 161.09 148.868 162.306 149.798C162.23 149.408 162.181 149.045 162.146 148.799C161.991 147.135 161.79 145.463 161.101 143.933C160.47 142.475 160.044 140.892 159.585 139.419C157.016 138.101 154.264 137.09 151.85 135.493C150.05 134.298 148.311 133.001 146.52 131.778C144.326 130.23 141.955 128.869 140.067 126.92C138.166 124.852 136.778 122.313 135.726 119.718C133.781 115.189 134.758 109.943 138.49 106.666C142.862 103.406 148.814 104.705 153.551 106.468C157.244 107.834 158.488 110.15 159.715 113.651C160.669 116.313 161.121 119.245 160.758 122.065L160.841 122.108Z" fill="white"/>
</g>
<g clip-path="url(#clip1_30_308)">
<path d="M322.268 176.906C323.037 178.232 324.08 179.396 324.518 180.897C325.269 183.149 325.449 185.53 325.472 187.887C325.514 189.588 325.242 191.301 324.48 192.83C324.136 193.589 323.784 194.361 323.192 194.964C323.576 196.124 323.855 197.343 324.298 198.483C324.799 199.746 325.112 201.062 325.504 202.361C325.63 202.833 325.907 203.323 325.961 203.816C328.347 205.349 330.682 206.963 332.947 208.658C337.393 212.044 341.587 215.768 345.588 219.676C345.145 218.307 344.907 216.856 344.946 215.407C344.962 215.092 344.989 214.774 345.037 214.47C344.691 214.195 344.328 213.918 343.996 213.622C342.444 212.061 341.223 210.172 340.124 208.274C339.8 207.63 339.609 206.926 339.455 206.227C339.224 205.144 338.954 204.065 338.871 202.961C338.618 201.108 339.342 199.622 340.369 198.146C341.392 196.552 342.373 194.904 342.931 193.074C344.426 188.172 345.641 186.853 348.155 192.253C348.907 194.124 349.888 195.919 350.364 197.892C350.806 199.95 350.896 202.14 350.455 204.196C350.027 205.82 349.41 207.393 348.478 208.795C347.658 210.067 346.964 211.427 346.424 212.847C346.272 213.211 346.149 213.573 346.047 213.949C346.025 213.983 346.019 214.008 346.056 214.041C346.198 214.35 346.083 214.699 346.117 215.026C346.14 216.179 346.239 217.332 346.491 218.457C346.606 218.931 346.783 219.396 346.859 219.884C346.915 220.254 346.925 220.634 346.929 221.009C347.088 221.167 347.255 221.329 347.422 221.492C349.616 223.755 351.552 226.247 353.485 228.728C355.06 230.907 356.468 233.2 358.037 235.375C359.236 237.039 360.384 238.738 361.496 240.463C361.421 239.851 361.359 239.247 361.271 238.656C361.171 237.397 361.285 236.149 361.239 234.896C361.229 234.469 361.326 233.889 361.105 233.539C360.921 233.251 360.463 233.125 360.207 232.906C359.766 232.523 359.363 232.097 358.99 231.652C358.301 230.825 357.78 229.914 357.192 229.017C356.142 227.437 355.769 225.576 355.592 223.723C355.092 220.538 355.257 217.046 357.049 214.263C357.673 213.317 358.482 212.507 359.266 211.69C360.305 210.604 361.096 209.304 362.163 208.236C363.141 207.217 364.269 206.311 365.065 205.139C366.851 203.768 366.932 209.204 367.011 210.191C367.057 211.368 367.19 212.542 367.526 213.672C367.855 214.826 368.038 216.013 368.323 217.178C368.864 219.154 369.174 221.177 369.102 223.226C369.11 224.571 369.096 225.949 368.527 227.188C367.498 229.399 365.96 231.443 363.835 232.696C363.269 233.047 362.704 233.409 362.17 233.799C362.139 234.124 362.087 234.464 362.1 234.75C362.062 235.74 362.042 236.731 362.076 237.729C362.194 239.066 362.444 240.391 362.641 241.71C362.706 242.019 362.788 242.329 362.869 242.628C363.868 244.243 364.841 245.87 365.771 247.518C367.307 250.553 368.595 253.707 370.242 256.687C371.692 259.294 372.702 262.112 373.763 264.894C374.088 265.749 374.429 266.596 374.777 267.446C375.003 266.661 375.378 265.912 375.709 265.174C376.081 264.356 376.382 263.512 376.742 262.697C376.746 262.69 376.785 262.628 376.782 262.617C376.611 262.509 376.418 262.387 376.268 262.245C373.629 260.122 372.751 253.285 373.423 250.131C373.891 248.245 375.189 246.748 376.634 245.507C377.593 244.657 378.401 243.664 379.313 242.766C380.293 241.881 381.422 241.187 382.402 240.303C382.964 239.806 383.483 239.272 384.053 238.78C384.722 238.206 385.409 237.664 386.074 237.097C386.499 236.667 387.059 236.418 387.585 236.864C388.644 237.866 388.712 239.449 389.049 240.79C389.96 245.075 389.433 249.584 388.147 253.728C387.826 254.664 387.535 255.629 387.012 256.475C386.433 257.392 385.676 258.168 384.929 258.941C384.048 259.974 383.044 260.881 381.772 261.39C381.108 261.727 380.372 261.904 379.718 262.257C379.175 262.585 378.666 262.981 378.114 263.293C378.01 263.381 377.895 263.442 377.753 263.439C377.714 263.424 377.69 263.447 377.696 263.499C377.624 263.674 377.553 263.848 377.481 264.023C376.846 265.747 375.562 267.281 375.483 269.144C376.151 270.828 376.766 272.535 377.148 274.307C377.416 275.451 377.681 276.585 377.893 277.742C377.926 278.116 378.149 278.525 377.993 278.895C377.843 279.164 377.547 279.312 377.236 279.212C376.85 279.093 376.789 278.672 376.72 278.323C376.575 277.685 376.451 277.043 376.305 276.406C376.011 275.15 375.707 273.896 375.312 272.662C374.855 271.284 374.285 269.948 373.737 268.608C372.68 266.125 371.741 263.591 370.679 261.114C370.067 259.647 369.317 258.247 368.559 256.842C368.325 256.742 368.088 256.583 367.902 256.514C367.415 256.264 366.922 256.011 366.431 255.769C364.94 255.01 363.391 254.359 361.923 253.549C360.888 254.504 359.774 255.39 358.818 256.433C357.642 257.69 355.889 258.413 354.179 258.445C352.057 258.504 350.338 257.163 348.685 256.006C347.053 254.892 345.445 253.725 344.05 252.311C342.119 250.147 340.3 247.881 338.28 245.814C337.763 244.379 339.935 245.001 340.698 244.995C341.79 245.09 342.884 245.062 343.98 245.045C345.401 245.031 346.802 244.804 348.208 244.6C349.66 244.415 351.123 244.304 352.577 244.13C353.783 243.924 355.06 243.954 356.094 244.691C357.695 245.672 359.089 246.98 360.149 248.529C360.875 249.512 361.378 250.633 361.732 251.793C361.84 252.034 361.837 252.405 362.139 252.49C364.101 253.401 365.974 254.467 367.848 255.533C367.437 254.767 367.038 253.998 366.669 253.211C365.746 251.338 364.954 249.395 363.884 247.602C361.906 244.202 359.788 240.888 357.497 237.694C355.894 235.497 354.401 233.218 352.829 231.002C352.676 231.002 352.52 230.99 352.381 230.997C351.585 230.965 350.769 230.995 349.985 230.836C349.917 230.822 349.944 230.81 349.9 230.85C349.376 231.361 348.785 231.811 348.27 232.338C344.87 235.753 341.111 236.627 336.409 235.95C333.351 235.467 330.437 234.3 327.402 233.765C327.149 233.74 326.892 233.721 326.636 233.761C326.258 233.934 325.78 233.748 325.732 233.306C325.692 233.003 325.925 232.787 326.155 232.635C326.426 232.433 326.712 232.24 326.992 232.053C328.342 231.115 329.815 230.379 331.203 229.503C332.122 228.943 333.064 228.409 333.971 227.823C334.98 227.167 335.936 226.411 337.058 225.942C339.312 225.124 341.921 225.085 344.18 225.934C345.88 226.681 347.258 227.97 348.723 229.075C349.7 229.901 350.978 230.008 352.201 230.109C351.504 229.143 350.786 228.194 350.018 227.279C346.666 222.996 342.587 219.363 338.559 215.725C336.269 213.689 333.888 211.768 331.451 209.935C330.794 210.382 329.894 210.484 329.128 210.298C328.196 211.624 327.558 213.154 326.53 214.42C325.694 215.366 324.922 216.438 323.809 217.076C322.555 217.711 321.144 217.922 319.818 218.349C318.621 218.695 317.374 218.722 316.132 218.666C313.363 218.595 310.635 218.091 307.889 217.785C307.337 217.715 306.791 217.591 306.248 217.478C305.921 217.387 305.558 217.369 305.286 217.159C304.776 216.704 305.104 216.107 305.605 215.83C306.528 215.158 307.479 214.533 308.392 213.846C309.538 213.019 310.357 211.842 311.253 210.77C311.857 209.994 312.575 209.327 313.356 208.729C314.405 207.888 315.489 207.021 316.814 206.671C318.623 206.299 320.52 206.337 322.338 206.699C323.878 207.152 325.347 207.839 326.859 208.381C328.016 208.785 329.368 209.627 330.6 209.303C324.581 204.879 318.125 201.04 311.411 197.746C310.646 197.848 309.904 198.05 309.153 198.236C308.104 198.513 307.083 198.883 306.047 199.187C305.204 199.411 304.349 199.762 303.459 199.651C303.33 200.22 303.238 200.794 303.121 201.361C302.877 202.479 302.3 203.502 301.636 204.433C300.894 205.505 299.976 206.534 298.697 206.933C296.002 207.674 293.205 207.356 290.499 206.788C289.13 206.538 287.762 206.269 286.399 205.993C286.113 205.928 285.793 205.889 285.555 205.701C284.831 204.976 285.892 204.421 286.436 204.075C287.397 203.495 288.337 202.872 289.237 202.205C291.137 200.944 292.389 198.911 294.403 197.818C296.988 196.338 298.964 196.129 301.585 197.686C302.35 197.996 303.136 198.577 303.99 198.427C305.963 197.948 307.899 197.36 309.907 197.009C308.68 196.427 307.448 195.851 306.203 195.296C301.044 193.088 295.839 190.908 290.451 189.321C289.438 189.877 288.432 190.497 287.534 191.222C286.584 192.058 285.782 193.102 284.653 193.721C284.703 193.809 284.745 193.97 284.744 194.094C284.888 195.313 284.268 196.405 283.624 197.396C282.46 199.867 279.725 200.793 277.171 201.02C275.365 201.173 273.548 201.176 271.734 201.143C271.195 201.099 270.618 201.223 270.108 201.026C269.74 200.833 269.712 200.327 270.005 200.062C270.695 199.378 271.497 198.822 272.185 198.126C272.797 197.536 273.261 196.815 273.822 196.183C275.007 194.959 276.305 193.798 277.753 192.902C278.84 192.305 280.127 192.169 281.346 192.277C282.18 192.325 282.942 192.671 283.685 193.015C284.883 192.593 285.648 191.44 286.604 190.655C287.37 189.942 288.307 189.461 289.216 188.963C288.481 188.758 287.737 188.567 286.989 188.382C283.304 187.6 279.539 187.341 275.796 186.924C275.771 186.918 275.753 186.916 275.724 186.917C275.129 187.298 274.543 187.694 273.996 188.134C272.814 189.111 271.883 190.36 270.647 191.284L270.583 191.34C270.553 191.722 270.492 192.095 270.394 192.464C270.177 193.341 269.653 194.111 269.138 194.838C268.678 195.476 268.152 196.082 267.483 196.503C265.416 197.802 262.882 197.601 260.543 197.61C259.975 197.673 259.236 197.504 259.445 196.775C259.622 196.418 259.9 196.114 260.111 195.779C260.847 194.703 261.429 193.52 262.232 192.476C262.644 191.913 263.09 191.342 263.736 191.033C264.283 190.775 264.91 190.739 265.51 190.687C266.566 190.597 267.622 190.583 268.68 190.657C269.007 190.671 269.349 190.753 269.679 190.702C270.501 189.977 271.314 189.236 272.11 188.475C272.781 187.808 273.549 187.259 274.346 186.756C272.31 186.497 270.289 186.152 268.236 186.149C267.486 186.164 266.731 186.205 265.979 186.286C265.893 186.452 265.687 186.551 265.504 186.474C264.793 187.451 263.844 188.24 263.105 189.2C261.969 190.942 259.767 191.114 257.87 191.105C256.095 191.086 254.299 190.614 252.763 189.713C251.001 188.517 249.932 186.6 248.446 185.118C246.958 183.759 246.868 182.927 248.929 182.294C250.29 181.87 251.721 181.643 253.036 181.066C255.713 179.941 259.659 178.314 261.887 181.057C262.391 181.691 262.731 182.431 263.213 183.069C263.626 183.617 264.132 184.079 264.601 184.585C264.84 184.831 265.07 185.091 265.309 185.337C265.398 185.317 265.488 185.297 265.58 185.288C269.773 184.563 273.989 185.585 278.186 185.829C278.762 185.876 279.342 185.916 279.917 185.963C279.8 185.889 279.692 185.802 279.571 185.735C278.266 184.971 276.798 184.542 275.431 183.891C274.176 183.292 272.869 182.774 271.737 181.965C269.794 180.521 268.296 178.448 267.639 176.121C267.421 175.4 266.591 173.73 267.044 173.087C267.479 172.596 268.114 173.006 268.575 173.249C269.004 173.452 269.423 173.687 269.846 173.915C270.72 174.418 271.647 174.792 272.626 175.036C275.493 175.714 278.276 177.334 279.665 180.007C280.411 181.491 280.141 182.986 280.537 184.507C280.842 185.685 282.077 186.148 283.211 186.269C284.634 186.42 286.073 186.59 287.464 186.912C291.269 187.779 294.989 188.995 298.652 190.375C297.899 188.887 297.306 187.222 297.528 185.544C297.554 185.35 297.598 185.158 297.649 184.97C297.662 184.921 297.637 184.914 297.589 184.884C297.213 184.581 296.827 184.28 296.447 183.983C294.871 182.856 293.577 181.419 292.424 179.879C290.135 177.126 291.159 173.352 291.365 170.115C291.459 168.548 291.672 166.989 291.737 165.423C291.735 165.03 291.729 164.643 291.698 164.251C291.682 163.743 291.481 163.071 291.937 162.699C292.505 162.33 292.978 162.982 293.265 163.411C293.936 164.389 294.416 165.486 295.079 166.477C296.046 168.081 297.64 169.134 298.803 170.565C300.589 172.944 300.938 176.033 300.463 178.89C300.306 180.054 300.192 181.226 299.888 182.363C299.632 183.379 299.174 184.334 298.876 185.341C298.568 186.439 298.877 187.58 299.19 188.638C299.359 189.376 299.921 190.084 299.894 190.843C301.488 191.454 303.075 192.091 304.653 192.741C311.633 195.581 318.375 199.026 324.757 203.029C324.663 202.797 324.568 202.566 324.508 202.327C324.035 201.034 323.675 199.716 323.191 198.426C322.858 197.308 322.642 196.158 322.343 195.032C322.133 195.014 321.997 194.833 321.815 194.757C321.051 194.399 320.27 194.099 319.568 193.628C317.915 192.547 315.997 191.492 315.139 189.621C314.365 187.527 314.089 185.267 314.149 183.038C314.133 181.144 314.25 179.266 314.767 177.44C314.951 176.628 315.208 175.824 315.673 175.132C316.301 174.197 317.114 173.409 317.721 172.462C317.976 172.058 318.203 171.637 318.384 171.196C318.574 170.742 319.225 170.655 319.482 171.085C320.498 172.978 321.257 175.006 322.299 176.887L322.268 176.906Z" fill="white"/>
</g>
<path d="M464.239 125.135C464.239 125.135 417.887 113.242 451.817 37C451.817 37 508.881 92.5139 464.239 125.135Z" fill="#B4E8D0" stroke="#015061" stroke-width="4.82278" stroke-linecap="round" stroke-linejoin="round"/>
<path d="M513.887 181.273C513.887 181.273 497.13 202.098 486.638 193.726C471.205 181.393 487.958 158.7 487.958 158.7L513.905 181.284L513.887 181.273Z" fill="#ABE0F7" stroke="#015061" stroke-width="4.82278" stroke-linecap="round" stroke-linejoin="round"/>
<path d="M419.825 120.88C419.825 120.88 408.701 145.184 420.884 150.82C438.82 159.103 451.616 133.965 451.616 133.965L419.808 120.869L419.825 120.88Z" fill="#ABE0F7" stroke="#015061" stroke-width="4.82278" stroke-linecap="round" stroke-linejoin="round"/>
<path d="M554.075 183.878C554.075 183.878 511.753 161.688 562.586 95.2744C562.586 95.2744 605.126 162.359 554.075 183.878Z" fill="#B4E8D0" stroke="#015061" stroke-width="4.82278" stroke-linecap="round" stroke-linejoin="round"/>
<path d="M387.269 155.81C387.269 155.81 361.734 116.408 367.116 111.85C374.822 105.378 414.319 127.752 414.319 127.752L387.269 155.81Z" fill="#B4E8D0" stroke="#015061" stroke-width="5.6547" stroke-linecap="round" stroke-linejoin="round"/>
<path d="M432.741 232.848C466.263 253.558 505.046 251.557 519.365 228.379C533.684 205.202 518.117 169.624 484.595 148.914C451.073 128.205 412.291 130.205 397.972 153.383C383.653 176.561 399.22 212.138 432.741 232.848Z" fill="#ABE0F7" stroke="#015061" stroke-width="4.82278" stroke-linecap="round" stroke-linejoin="round"/>
<path d="M481.367 216.622C481.367 216.622 484.981 263.435 492.03 263.766C502.067 264.243 519.909 222.499 519.909 222.499L481.383 216.612L481.367 216.622Z" fill="#B4E8D0" stroke="#015061" stroke-width="5.6547" stroke-linecap="round" stroke-linejoin="round"/>
<path d="M548.71 194.833C544.827 214.872 529.927 232.253 512.679 235.614C491.756 239.701 464.087 229.432 441.969 216.038C424.501 205.442 398.123 184.433 391.434 158.942C387.857 145.317 395.488 125.63 413.512 111.603C442.816 88.8084 471.282 78.8508 511.39 103.629C551.498 128.408 555.73 158.394 548.692 194.822L548.71 194.833Z" fill="#B4E8D0" stroke="#015061" stroke-width="4.82278" stroke-linecap="round" stroke-linejoin="round"/>
<path d="M419.908 161.608C428.513 166.924 439.783 164.281 445.081 155.705C450.38 147.128 447.7 135.866 439.095 130.551C430.491 125.235 419.22 127.878 413.922 136.454C408.624 145.031 411.304 156.293 419.908 161.608Z" fill="white" stroke="#015061" stroke-width="3.21519" stroke-linecap="round" stroke-linejoin="round"/>
<path d="M425.103 157.625C432.122 161.961 441.317 159.805 445.639 152.809C449.961 145.812 447.775 136.625 440.756 132.288C433.736 127.952 424.542 130.108 420.22 137.105C415.897 144.101 418.084 153.288 425.103 157.625Z" fill="#015061"/>
<path d="M495.741 110.519C495.741 110.519 537.422 94.3323 493.179 44.0421C493.179 44.0421 448.486 93.8722 495.746 110.538L495.741 110.519Z" fill="#ABE0F7" stroke="#015061" stroke-width="4.82278" stroke-linecap="round" stroke-linejoin="round"/>
<path d="M501.254 211.25C509.613 216.413 520.561 213.846 525.708 205.515C530.855 197.184 528.251 186.244 519.893 181.08C511.535 175.917 500.586 178.484 495.44 186.815C490.293 195.146 492.896 206.086 501.254 211.25Z" fill="white" stroke="#015061" stroke-width="3.21519" stroke-linecap="round" stroke-linejoin="round"/>
<path d="M502.411 204.673C509.234 208.888 518.17 206.792 522.371 199.992C526.572 193.192 524.447 184.262 517.625 180.047C510.802 175.832 501.866 177.928 497.665 184.728C493.464 191.529 495.589 200.458 502.411 204.673Z" fill="#015061"/>
<path d="M450.199 184.298C450.199 184.298 453.813 196.228 465.404 193.692" stroke="#015061" stroke-width="4.82278" stroke-linecap="round" stroke-linejoin="round"/>
<path d="M508.867 118.644C508.867 118.644 504.705 74.1368 569.476 91.1776C569.476 91.1776 544.913 153.444 508.867 118.644Z" fill="#ABE0F7" stroke="#015061" stroke-width="4.82278" stroke-linecap="round" stroke-linejoin="round"/>
<path d="M503.125 116.469C503.125 116.469 557.287 125.165 541.407 46.8332C541.407 46.8332 463.292 70.7447 503.125 116.469Z" fill="#ABE0F7" stroke="#015061" stroke-width="4.82278" stroke-linecap="round" stroke-linejoin="round"/>
<g clip-path="url(#clip2_30_308)">
<path d="M726.018 158.052C727.971 156.216 731.617 153.296 730.645 150.271C729.231 147.871 725.768 149.208 724.014 150.533C723.816 150.678 723.618 150.823 723.423 150.983C723.325 151.064 723.373 151.016 723.397 150.924C723.45 150.772 723.51 150.611 723.555 150.452C724.855 147.406 723.114 143.932 719.515 145.404C716.479 147.002 715.244 150.57 714.295 153.715C712.4 153.337 710.435 153.48 708.521 153.687C700.5 154.567 694.283 157.797 687.705 162.226C684.462 164.385 681.104 166.516 678.507 169.472C674.879 173.653 672.331 178.709 670.195 183.798C669.013 186.792 668.002 190.273 667.535 193.256C666.798 190.629 666.189 187.956 665.182 185.423C664.254 183.067 662.804 180.641 660.376 179.614C655.074 177.788 654.755 184.191 656.251 187.627C658.051 192.054 661.994 195.051 665.766 197.75C665.679 198.027 665.646 198.303 665.623 198.586C663.794 199.287 661.967 200.003 660.164 200.764C656.907 202.098 653.887 203.885 650.885 205.724C652.707 200.848 654.368 195.776 653.886 190.544C653.675 187.039 650.753 182.756 646.817 184.07C643.341 185.425 642.616 189.598 642.515 192.909C642.329 197.817 642.535 202.921 644.495 207.488C644.717 208.039 645.007 208.57 645.331 209.072C645.288 209.095 645.237 209.128 645.187 209.16C639.406 212.292 634.109 216.161 629.336 220.673C625.303 224.255 621.07 227.601 617.112 231.25C617.75 229.447 618.26 227.594 619.02 225.849C619.889 223.585 620.881 221.34 621.347 218.954C621.75 216.753 621.883 214.511 622.059 212.285C622.358 212.171 622.604 211.938 622.657 211.595C623.603 211.314 624.604 211.208 625.573 211.011C630.747 209.772 635.962 207.286 639.309 203.041C640.556 201.166 641.328 198.751 640.49 196.555C639.543 193.86 636.225 192.746 633.729 193.967C630.586 195.409 625.458 201.285 622.659 206.312C622.742 205.447 622.809 204.584 622.836 203.72C622.89 199.018 622.118 194.328 621.549 189.66C621.32 187.813 621.014 185.98 620.6 184.165C620.389 183.214 620.031 182.281 619.835 181.328C619.452 179.412 621.396 179.336 622.862 178.649C624.901 177.689 626.756 176.299 628.162 174.525C631.802 169.386 628.415 168.197 624.608 169.616C625.145 168.475 625.56 167.275 625.859 166.046C627.503 160.826 627.453 155.099 625.251 150.048C623.522 145.808 620.626 141.488 616.061 140.061C614.992 139.766 613.883 139.565 612.762 139.477C613.581 136.593 614.572 132.391 613.156 129.84C611.295 127.014 608.295 129.888 607.598 132.138C607.536 132.61 607.396 131.751 607.272 131.581C606.58 129.352 603.741 127.504 602.429 130.297C601.805 132.042 601.939 133.985 602.153 135.794C602.148 135.858 602.188 135.859 602.104 135.786C598.869 132.598 594.362 135.505 597.101 139.51C598.156 140.842 599.651 141.995 601.311 142.628C599.159 144.744 597.946 147.838 597.358 150.723C596.573 155.709 597.04 160.944 598.814 165.678C600.048 168.888 601.621 172.216 604.488 174.274C605.739 175.215 607.098 175.946 608.528 176.538C607.619 176.669 606.733 176.883 605.931 177.266C602.987 179.215 604.036 182.784 607.095 183.918C608.437 184.461 609.953 184.299 611.338 184.071C613.581 183.649 616.054 182.711 617.488 180.86C617.524 180.981 617.57 181.109 617.591 181.232C618.479 184.51 618.945 187.883 619.4 191.235C619.84 194.549 620.308 197.882 620.523 201.226C619.324 199.06 617.915 197.056 616.117 195.294C613.142 192.467 607.234 187.005 602.881 188.676C600.965 189.846 599.579 192.206 599.697 194.477C599.687 196.969 601.628 198.778 603.377 200.302C607.325 203.887 612.219 206.633 617.622 207.05C618.531 207.11 619.434 207.084 620.34 207.033C620.2 208.401 620.03 209.775 619.906 211.14C619.614 213.76 619.562 216.426 619.001 219.003C618.135 222.357 616.55 225.458 615.541 228.765C615.467 228.984 615.402 229.21 615.328 229.429C615.314 229.487 615.314 229.487 615.315 229.447C615.283 229.071 615.235 228.697 615.196 228.33C614.98 225.352 614.269 222.458 612.75 219.86C611.379 217.15 609.802 214.213 606.85 213.005C602.86 211.13 599.619 214.132 598.856 217.993C598.332 220.556 599.035 223.404 600.624 225.48C602.117 227.462 604.198 228.881 606.168 230.344C608.46 231.927 610.63 233.912 613.288 234.844C613.311 234.888 613.351 234.889 613.384 234.939C609.235 239.146 605.265 243.56 601.626 248.237C602.207 245.919 601.974 243.58 600.968 241.006C599.7 237.785 598.036 234.528 595.465 232.15C593.005 229.824 589.856 231.084 587.935 233.392C585.883 235.714 585.522 239.045 586.309 241.966C588.129 247.249 592.383 251.552 597.231 254.307C595.007 257.582 592.944 260.956 591.125 264.463C589.254 268.449 587.021 272.369 585.686 276.558C585.333 277.844 586.707 278.803 587.587 277.81C587.748 277.584 587.833 277.291 587.794 277.019C587.768 276.864 587.763 276.929 587.765 276.849C587.835 276.654 587.92 276.457 588.015 276.265C590.079 272.199 592.189 268.164 594.42 264.189C596.34 260.903 598.45 257.751 600.668 254.677C603.251 257.308 607.133 257.952 610.62 258.615C615.962 259.56 625.963 259.417 628.803 253.929C630.774 249.553 625.567 246.326 621.725 246.24C618.061 245.941 614.375 246.576 610.801 247.36C608.861 247.833 606.858 248.357 604.958 249.062C610.236 242.531 616.13 236.477 622.395 230.876C622.465 231.007 622.538 231.153 622.608 231.285C628.054 240.453 642.815 243.669 650.383 235.404C653.619 232.275 652.286 227.188 648.484 225.202C646.977 224.392 645.31 224 643.637 223.752C639.729 223.049 635.77 223.722 631.968 224.656C630.805 224.973 629.611 225.296 628.427 225.68C628.44 225.662 628.447 225.653 628.469 225.641C631.46 223.088 634.232 220.269 637.295 217.806C640.086 215.518 643.162 213.594 646.216 211.682C646.316 211.617 646.423 211.543 646.539 211.476C646.652 211.814 646.788 212.141 646.893 212.474C647.407 213.898 648.117 215.256 649.047 216.459C651.495 219.741 655.569 221.227 659.503 221.759C662.32 222.179 667.106 222.43 668.744 219.637C670.365 215.352 664.983 212.64 661.779 211.213C658.378 209.66 654.577 209.535 650.979 208.739C650.937 208.723 650.903 208.712 650.86 208.696C653.45 206.998 656.049 205.307 658.771 203.825C661.081 202.636 663.482 201.647 665.88 200.642C665.981 201.094 666.092 201.553 666.215 201.993C666.715 203.611 667.149 205.263 667.873 206.795C670.136 210.856 675.354 215.489 680.208 215.451C682.74 215.505 683.711 212.579 683.138 210.489C682.615 208.271 681.202 206.387 679.696 204.75C678.697 203.703 677.616 202.734 676.484 201.836C678.082 201.922 679.993 201.931 681.683 201.715C692.862 200.274 702.825 194.195 711.217 186.935C715.122 183.438 718.984 179.694 721.444 175.011C722.837 172.046 724.349 168.837 724.383 165.506C725.946 165.852 728.363 165.608 729.117 165.503C730.096 165.369 731.048 165.119 731.992 164.823C733.111 164.434 734.411 164.037 735.009 162.925C736.373 158.811 728.757 157.967 726.054 158.077L726.018 158.052Z" fill="white"/>
</g>
<g clip-path="url(#clip3_30_308)">
<path d="M16.5362 189.233C18.4592 190.529 20.3772 192.01 22.5756 192.625C28.6236 194.415 33.4927 190.868 38.6628 189.299C41.3699 188.421 44.3211 188.271 47.2166 188.023C47.4446 188.231 47.7218 188.404 47.9871 188.552C48.7196 188.983 49.4558 189.37 50.2041 189.784C54.8755 192.386 59.3964 195.293 63.925 198.192C66.8062 200.03 69.6852 201.85 72.5565 203.679C70.4701 202.961 68.3626 202.365 66.2501 201.954C56.4986 200.781 47.6575 207.131 42.0196 213.592C37.9305 219.809 48.1904 224.287 53.4133 223.477C58.5902 223.415 62.4049 220.327 65.8465 217.23C69.6735 213.789 73.838 211.194 77.2818 207.278C80.4066 209.306 86.8989 212.859 91.0804 215.819C94.1902 218.024 97.257 220.315 100.32 222.651C99.3866 222.32 98.4415 222.043 97.5006 221.8C91.3713 220.379 85.4544 222.308 80.7964 225.385C77.4771 227.551 74.2337 230.371 73.3834 234.49C72.418 239.829 78.864 244.507 83.857 243.93C89.0115 243.295 92.6557 239.577 95.4443 235.743C97.9538 232.632 100.14 229.18 103.296 226.675C103.693 226.358 104.15 226.096 104.707 226.083C111.64 231.521 118.485 237.116 125.308 242.596C125.516 242.785 125.738 242.94 125.954 243.122C124.721 242.96 123.489 242.878 122.258 242.814C114.77 242.285 106.5 243.33 102.22 249.278C99.7173 253.436 98.2461 258.693 99.1937 263.946C102.235 275.623 111.995 271.689 116.754 265.436C121.722 259.689 123.255 251.537 128.583 246.072C129.184 246.209 129.782 246.47 130.356 246.757C134.517 250.157 138.693 253.523 142.752 257.035C146.843 260.434 150.737 264.048 154.599 267.696C154.53 267.712 154.469 267.72 154.4 267.736C154.306 267.76 154.369 267.77 154.244 267.688C151.833 266.231 149.186 265.27 146.511 265.198C135.559 264.525 121.938 271.079 120.44 282.199C120.25 286.967 125.02 291.712 129.823 292.019C134.604 292.432 138.222 289.18 140.921 286.021C143.792 282.594 145.679 278.395 148.62 275.03C149.934 273.529 151.612 270.813 153.689 270.228C155.645 269.676 157.259 270.216 158.764 271.652C160.768 273.575 163.059 275.284 164.967 277.293C165.503 277.86 166.35 277.986 166.832 277.478C167.264 277.004 167.152 276.27 166.65 275.765C165.345 274.449 163.928 273.236 162.597 271.927C160.596 269.96 157.107 268.073 158.366 265.259C160.194 261.164 161.535 257.383 162.067 252.738C162.438 250.061 162.853 247.376 162.825 244.62C162.523 239.356 162.33 233.893 160.084 228.75C158.631 225.247 156.118 221.392 152.171 220.445C147.441 218.941 144.169 223.266 143.046 227.026C142.294 229.623 142.814 232.497 143.437 235.259C144.324 239.383 146.257 243.277 148.211 247.127C150.079 251.151 152.192 255.145 153.233 259.379C153.591 260.858 154.068 262.366 154.286 263.859C148.143 258.052 141.802 252.443 135.195 247.144C134.178 246.328 132.861 245.363 132.046 244.226C130.886 242.631 131.353 242.078 131.937 240.622C133.351 237.081 134.036 233.143 134.781 229.34C135.448 224.786 136.486 220.223 135.859 215.436C135.515 212.865 134.955 210.255 133.956 207.766C132.36 203.942 128.631 200.147 124.39 200.178C119.382 200.095 116.692 204.936 116.541 209.422C116.055 220.488 124.684 230.298 128.135 240.849C128.208 241.088 128.28 241.328 128.36 241.559C122.317 236.617 116.253 231.719 110.056 226.967C107.08 224.616 104.068 222.343 101.035 220.114C101.059 220.009 101.072 219.895 101.095 219.79C101.126 219.597 101.063 219.587 101.211 219.564C107.249 217.004 110.159 208.417 110.086 201.926C109.791 195.659 109.16 188.785 104.859 183.268C102.862 180.879 100.034 178.505 96.9604 178.291C91.9661 178.552 89.007 183.131 88.8977 187.83C88.6105 191.151 89.7847 194.543 91.0235 197.803C93.0684 204.72 99.1378 211.722 99.0764 218.738C91.2676 213.086 83.2746 207.754 75.0479 202.699C74.4063 202.288 73.7647 201.876 73.1153 201.474C73.5828 201.379 73.8671 200.928 73.9538 200.454C74.2343 199.589 74.4594 198.705 74.6014 197.793C75.3633 193.752 75.1093 189.511 74.5119 185.288C73.7278 180.832 73.3275 176.094 70.8685 171.941C68.151 167.853 64.3129 163.959 59.6693 162.281C53.6257 160.606 51.7518 165.449 52.1949 170.478C52.6009 174.731 54.2534 179.111 56.8744 182.828C58.6623 185.247 61.1149 187.057 63.2704 189.134C65.3289 191.137 67.3328 193.28 68.8285 195.702C69.6103 197.014 70.1478 198.436 70.5708 199.864C65.9293 196.91 61.2879 193.956 56.617 191.054C54.1799 189.605 51.7325 188.068 49.2114 186.811C49.1536 186.695 49.0781 186.579 48.9434 186.488C48.1438 185.174 46.9402 184.045 45.9061 182.85C38.4936 173.975 31.9447 169.25 20.6966 168.086C15.1877 167.198 7.80048 168.828 7.53627 175.091C7.8943 180.532 11.8184 186.005 16.5362 189.233Z" fill="white"/>
</g>
<defs>
<linearGradient id="paint0_linear_30_308" x1="142.5" y1="47" x2="519" y2="279" gradientUnits="userSpaceOnUse">
<stop stop-color="#ABE1F7"/>
<stop offset="1" stop-color="#B4E8D0"/>
</linearGradient>
<clipPath id="clip0_30_308">
<rect width="89" height="278" fill="white" transform="matrix(-0.684521 0.728993 0.728993 0.684521 82.9224 39)"/>
</clipPath>
<clipPath id="clip1_30_308">
<rect width="60.751" height="161.49" fill="white" transform="matrix(-0.53315 0.846021 0.846021 0.53315 273.39 142)"/>
</clipPath>
<clipPath id="clip2_30_308">
<rect width="128.613" height="188.027" fill="white" transform="translate(634.68 82) rotate(35.31)"/>
</clipPath>
<clipPath id="clip3_30_308">
<rect width="74.4415" height="188.29" fill="white" transform="translate(0 181.005) rotate(-47.6383)"/>
</clipPath>
</defs>
</svg>
