<svg width="109" height="133" viewBox="0 0 109 133" fill="none" xmlns="http://www.w3.org/2000/svg">
<g clip-path="url(#clip0_30_248)">
<path d="M86.4202 64.2801C90.9402 61.2701 87.1502 51.1301 78.8902 49.7101C70.6202 48.3001 66.2102 65.0101 72.3202 66.7701C78.4302 68.5301 84.0102 65.8801 86.4202 64.2801Z" fill="#B4E8D0" stroke="#015061" stroke-width="3" stroke-linecap="round" stroke-linejoin="round"/>
<path d="M79.1199 54.3899C79.1199 54.3899 77.1199 55.0399 78.7899 61.9299L79.1199 54.3899Z" fill="#B4E8D0"/>
<path d="M79.1199 54.3899C79.1199 54.3899 77.1199 55.0399 78.7899 61.9299" stroke="#015061" stroke-width="3" stroke-linecap="round" stroke-linejoin="round"/>
<path d="M40.5701 94.2701C45.0901 91.2601 41.3001 81.1201 33.0401 79.7001C24.7701 78.2901 20.3601 95.0001 26.4701 96.7601C32.5801 98.5201 38.1601 95.8701 40.5701 94.2701Z" fill="#B4E8D0" stroke="#015061" stroke-width="3" stroke-linecap="round" stroke-linejoin="round"/>
<path d="M56.8999 130.93C56.8999 130.93 54.7899 95.6999 30.1499 92.3999" stroke="#015061" stroke-width="3" stroke-linecap="round" stroke-linejoin="round"/>
<path d="M80.2499 65.3201C80.2499 65.3201 52.4199 78.0301 56.1799 122.03" stroke="#015061" stroke-width="3" stroke-linecap="round" stroke-linejoin="round"/>
<path d="M63.2299 25.0099C63.2299 25.0099 50.7099 23.0999 54.6499 111.18" stroke="#015061" stroke-width="3" stroke-linecap="round" stroke-linejoin="round"/>
<path d="M2.74006 106.22C2.74006 106.22 -2.91994 100.09 9.93006 88.09C22.2101 76.63 29.3601 91.94 29.3601 91.94C29.3601 91.94 32.2201 96.63 2.74006 106.22Z" fill="#B4E8D0" stroke="#015061" stroke-width="3" stroke-linecap="round" stroke-linejoin="round"/>
<path d="M8.10986 97.33C8.10986 97.33 16.3399 89.77 29.3699 91.94L8.10986 97.33Z" fill="#B4E8D0"/>
<path d="M8.10986 97.33C8.10986 97.33 16.3399 89.77 29.3699 91.94" stroke="#015061" stroke-width="3" stroke-linecap="round" stroke-linejoin="round"/>
<path d="M20.7801 68.36C20.7801 68.36 18.2801 60.4 35.0301 55.05C51.7801 49.7 50.9501 66.84 50.9501 66.84C50.9501 66.84 51.5301 72.3 20.7801 68.37V68.36Z" fill="#B4E8D0" stroke="#015061" stroke-width="3" stroke-linecap="round" stroke-linejoin="round"/>
<path d="M30.6699 62.5199C30.6699 62.5199 41.3399 59.2099 52.1899 66.7399L30.6699 62.5199Z" fill="#B4E8D0"/>
<path d="M30.6699 62.5199C30.6699 62.5199 41.3399 59.2099 52.1899 66.7399" stroke="#015061" stroke-width="3" stroke-linecap="round" stroke-linejoin="round"/>
<path d="M29.5301 31.4301C29.5301 31.4301 27.0301 23.4701 43.7801 18.1201C60.5301 12.7701 59.7001 29.9101 59.7001 29.9101C59.7001 29.9101 60.2801 35.3701 29.5301 31.4401V31.4301Z" fill="#B4E8D0" stroke="#015061" stroke-width="3" stroke-linecap="round" stroke-linejoin="round"/>
<path d="M38.1802 25.6901C38.1802 25.6901 48.8502 22.3801 59.7002 29.9101L38.1802 25.6901Z" fill="#B4E8D0"/>
<path d="M38.1802 25.6901C38.1802 25.6901 48.8502 22.3801 59.7002 29.9101" stroke="#015061" stroke-width="3" stroke-linecap="round" stroke-linejoin="round"/>
<path d="M90.28 20.91C90.28 20.91 90.59 12.57 73.02 11.82C55.45 11.07 60.77 27.39 60.77 27.39C60.77 27.39 61.65 32.81 90.28 20.91Z" fill="#B4E8D0" stroke="#015061" stroke-width="3" stroke-linecap="round" stroke-linejoin="round"/>
<path d="M80.42 17.65C80.42 17.65 69.25 17.27 60.77 27.39L80.42 17.65Z" fill="#B4E8D0"/>
<path d="M80.42 17.65C80.42 17.65 69.25 17.27 60.77 27.39" stroke="#015061" stroke-width="3" stroke-linecap="round" stroke-linejoin="round"/>
<path d="M105.79 79.49C105.79 79.49 111.61 73.51 99.0601 61.18C87.0801 49.41 79.5401 64.53 79.5401 64.53C79.5401 64.53 76.5601 69.14 105.79 79.48V79.49Z" fill="#B4E8D0" stroke="#015061" stroke-width="3" stroke-linecap="round" stroke-linejoin="round"/>
<path d="M100.65 70.4599C100.65 70.4599 92.61 62.6899 79.54 64.5299L100.65 70.4599Z" fill="#B4E8D0"/>
<path d="M100.65 70.4599C100.65 70.4599 92.61 62.6899 79.54 64.5299" stroke="#015061" stroke-width="3" stroke-linecap="round" stroke-linejoin="round"/>
<path d="M89.3199 96.5101C89.3199 96.5101 95.1399 90.5301 82.5899 78.2001C70.6099 66.4301 63.0699 81.5501 63.0699 81.5501C63.0699 81.5501 60.0899 86.1601 89.3199 96.5001V96.5101Z" fill="#B4E8D0" stroke="#015061" stroke-width="3" stroke-linecap="round" stroke-linejoin="round"/>
<path d="M84.1901 87.48C84.1901 87.48 76.1501 79.71 63.0801 81.55L84.1901 87.48Z" fill="#B4E8D0"/>
<path d="M84.1901 87.48C84.1901 87.48 76.1501 79.71 63.0801 81.55" stroke="#015061" stroke-width="3" stroke-linecap="round" stroke-linejoin="round"/>
<path d="M22.2701 94.1901C17.4501 96.3601 20.0801 105.5 28.1401 107.52C36.2001 109.54 42.4401 95.5001 36.5601 93.3901C30.6801 91.2801 24.8501 93.0301 22.2701 94.1901Z" fill="#B4E8D0" stroke="#015061" stroke-width="3" stroke-linecap="round" stroke-linejoin="round"/>
<path d="M33.2698 84.3799C33.2698 84.3799 31.2698 85.0299 32.9398 91.9199L33.2698 84.3799Z" fill="#B4E8D0"/>
<path d="M33.2698 84.3799C33.2698 84.3799 31.2698 85.0299 32.9398 91.9199" stroke="#015061" stroke-width="3" stroke-linecap="round" stroke-linejoin="round"/>
<path d="M29.7398 92.6001C29.7398 92.6001 27.6798 93.0201 28.5698 100.06L29.7398 92.6001Z" fill="#B4E8D0"/>
<path d="M29.7398 92.6001C29.7398 92.6001 27.6798 93.0201 28.5698 100.06" stroke="#015061" stroke-width="3" stroke-linecap="round" stroke-linejoin="round"/>
<path d="M83.7901 45.7501C83.7901 45.7501 89.7701 39.9301 77.5801 27.2601C65.9301 15.1601 57.9701 30.0601 57.9701 30.0601C57.9701 30.0601 54.8701 34.5901 83.7901 45.7501Z" fill="#B4E8D0" stroke="#015061" stroke-width="3" stroke-linecap="round" stroke-linejoin="round"/>
<path d="M78.9102 36.5799C78.9102 36.5799 71.0902 28.5899 57.9702 30.0599L78.9102 36.5799Z" fill="#B4E8D0"/>
<path d="M78.9102 36.5799C78.9102 36.5799 71.0902 28.5899 57.9702 30.0599" stroke="#015061" stroke-width="3" stroke-linecap="round" stroke-linejoin="round"/>
<path d="M44.5999 48.4701C44.5999 48.4701 35.9799 46.9201 40.5499 34.2301C45.1199 21.5401 60.1799 28.7901 60.1799 28.7901C60.1799 28.7901 65.4499 30.5701 44.5999 48.4601V48.4701Z" fill="#B4E8D0" stroke="#015061" stroke-width="3" stroke-linecap="round" stroke-linejoin="round"/>
<path d="M44.2598 40.75C44.2598 40.75 47.2598 32.7 60.1798 28.8L44.2598 40.75Z" fill="#B4E8D0"/>
<path d="M44.2598 40.75C44.2598 40.75 47.2598 32.7 60.1798 28.8" stroke="#015061" stroke-width="3" stroke-linecap="round" stroke-linejoin="round"/>
<path d="M81.6802 74.16C81.6802 74.16 85.5302 66.75 69.9702 58.56C55.1102 50.74 52.2402 67.39 52.2402 67.39C52.2402 67.39 50.7202 72.66 81.6802 74.15V74.16Z" fill="#B4E8D0" stroke="#015061" stroke-width="3" stroke-linecap="round" stroke-linejoin="round"/>
<path d="M74.16 66.9999C74.16 66.9999 64.23 61.8799 52.23 67.3999L74.16 66.9999Z" fill="#B4E8D0"/>
<path d="M74.16 66.9999C74.16 66.9999 64.23 61.8799 52.23 67.3999" stroke="#015061" stroke-width="3" stroke-linecap="round" stroke-linejoin="round"/>
<path d="M72.77 85.6801C77.59 87.8501 74.96 96.9901 66.9 99.0101C58.84 101.03 52.6 86.9901 58.48 84.8801C64.36 82.7701 70.19 84.5201 72.77 85.6801Z" fill="#B4E8D0" stroke="#015061" stroke-width="3" stroke-linecap="round" stroke-linejoin="round"/>
<path d="M65.2998 84.0901C65.2998 84.0901 67.3598 84.5101 66.4698 91.5501L65.2998 84.0901Z" fill="#B4E8D0"/>
<path d="M65.2998 84.0901C65.2998 84.0901 67.3598 84.5101 66.4698 91.5501" stroke="#015061" stroke-width="3" stroke-linecap="round" stroke-linejoin="round"/>
<path d="M44.6201 64.9799C39.4801 66.2499 40.4301 75.7099 48.0001 79.1499C55.5601 82.5899 64.2301 69.8999 58.8201 66.7699C53.4101 63.6399 47.3601 64.3099 44.6201 64.9799Z" fill="#B4E8D0" stroke="#015061" stroke-width="3" stroke-linecap="round" stroke-linejoin="round"/>
<path d="M52.2498 64.77C52.2498 64.77 50.1498 64.81 49.7598 71.9L52.2498 64.77Z" fill="#B4E8D0"/>
<path d="M52.2498 64.77C52.2498 64.77 50.1498 64.81 49.7598 71.9" stroke="#015061" stroke-width="3" stroke-linecap="round" stroke-linejoin="round"/>
<path d="M60.9198 24.6299C60.9198 24.6299 50.6498 34.1299 44.5498 13.9499C44.5498 13.9499 63.2098 10.4399 60.9198 24.6299Z" fill="#B4E8D0" stroke="#015061" stroke-width="3" stroke-linecap="round" stroke-linejoin="round"/>
<path d="M59.8001 21.05C59.8001 21.05 46.2401 17.64 59.8001 1.5C59.8001 1.5 72.9401 15.21 59.8001 21.05Z" fill="#B4E8D0" stroke="#015061" stroke-width="3" stroke-linecap="round" stroke-linejoin="round"/>
<path d="M61.6898 25.5699C61.6898 25.5699 51.6398 15.8399 71.4498 8.63989C71.4498 8.63989 75.9798 27.0799 61.6898 25.5699Z" fill="#B4E8D0" stroke="#015061" stroke-width="3" stroke-linecap="round" stroke-linejoin="round"/>
<path d="M29.22 91.1001C29.22 91.1001 16.62 97.1601 16.71 76.0801C16.71 76.0801 35.58 78.2201 29.22 91.1001Z" fill="#B4E8D0" stroke="#015061" stroke-width="3" stroke-linecap="round" stroke-linejoin="round"/>
<path d="M55.33 64.2499C55.33 64.2499 41.59 65.2899 51.81 50.6699C51.81 50.6699 66.99 56.8999 55.33 64.2499Z" fill="#B4E8D0" stroke="#015061" stroke-width="3" stroke-linecap="round" stroke-linejoin="round"/>
</g>
<defs>
<clipPath id="clip0_30_248">
<rect width="108.64" height="132.43" fill="white"/>
</clipPath>
</defs>
</svg>
