<svg width="1191" height="355" viewBox="0 0 1191 355" fill="none" xmlns="http://www.w3.org/2000/svg">
<g clip-path="url(#clip0_46_328)">
<path d="M1043.86 118.076C1045.26 120.748 1046.11 123.708 1048.16 126.013C1051.13 129.629 1054.92 132.429 1058.84 134.942C1061.63 136.798 1064.78 138.142 1068.14 138.478C1069.77 138.702 1071.43 138.926 1073.06 138.574C1074.6 140.43 1076.34 142.174 1077.78 144.111C1079.36 146.271 1081.23 148.175 1082.99 150.191C1083.64 150.895 1084.17 151.871 1084.94 152.479C1084.99 158.064 1085.23 163.648 1085.67 169.201C1086.65 180.162 1088.46 191.059 1090.77 201.828C1088.95 199.652 1086.78 197.732 1084.32 196.276C1083.77 195.972 1083.21 195.684 1082.65 195.444C1082.56 194.58 1082.48 193.684 1082.33 192.819C1081.36 188.595 1079.49 184.579 1077.47 180.754C1076.74 179.538 1075.76 178.482 1074.76 177.49C1073.19 175.97 1071.67 174.386 1069.91 173.089C1067.08 170.721 1063.84 170.369 1060.29 170.529C1056.55 170.561 1052.76 170.465 1049.12 169.473C1039.35 166.817 1035.87 167.457 1042.24 177.314C1044.58 180.53 1046.54 184.051 1049.34 186.915C1052.31 189.811 1055.88 192.259 1059.78 193.684C1062.94 194.676 1066.22 195.3 1069.55 195.22C1072.53 195.188 1075.54 195.46 1078.48 196.052C1079.25 196.18 1079.98 196.356 1080.72 196.58C1080.8 196.58 1080.85 196.596 1080.86 196.692C1081.23 197.252 1081.93 197.428 1082.45 197.828C1084.35 199.076 1086.17 200.452 1087.78 202.052C1088.46 202.74 1089.05 203.524 1089.78 204.165C1090.34 204.645 1090.97 205.061 1091.59 205.461C1091.68 205.893 1091.78 206.341 1091.88 206.789C1093.35 212.821 1095.47 218.662 1097.58 224.487C1099.57 229.399 1101.92 234.152 1103.9 239.048C1105.42 242.792 1107.05 246.489 1108.76 250.153C1107.81 249.385 1106.87 248.649 1105.98 247.881C1103.98 246.393 1101.77 245.273 1099.73 243.881C1099.02 243.417 1097.95 242.968 1097.6 242.232C1097.31 241.624 1097.58 240.728 1097.49 240.072C1097.31 238.936 1097.02 237.816 1096.67 236.728C1096.02 234.712 1095.04 232.887 1094.16 230.967C1092.63 227.559 1089.91 224.983 1087 222.742C1082.21 218.566 1076.2 215.174 1069.66 215.238C1067.42 215.286 1065.21 215.782 1063.02 216.23C1060.11 216.822 1057.11 216.774 1054.2 217.43C1051.47 217.99 1048.77 218.918 1045.97 219.014C1041.8 220.55 1050.8 226.391 1052.36 227.559C1054.28 228.871 1056.1 230.327 1057.64 232.071C1059.22 233.832 1061.01 235.384 1062.66 237.08C1065.39 240.056 1068.44 242.696 1071.94 244.729C1074.18 246.153 1076.5 247.577 1079.17 247.929C1083.95 248.537 1088.98 248.121 1093.32 245.897C1094.5 245.321 1095.7 244.761 1096.91 244.281C1097.49 244.569 1098.11 244.841 1098.57 245.161C1100.27 246.137 1101.95 247.145 1103.58 248.249C1105.69 249.849 1107.64 251.657 1109.64 253.37C1110.08 253.802 1110.52 254.266 1110.93 254.714C1112.58 258.074 1114.27 261.402 1116.05 264.683C1119.5 270.427 1123.42 275.884 1126.66 281.756C1129.49 286.909 1133.13 291.549 1136.67 296.238C1137.75 297.678 1138.81 299.134 1139.86 300.606C1138.31 300.158 1136.67 299.998 1135.08 299.774C1133.33 299.534 1131.6 299.15 1129.86 298.894C1129.84 298.894 1129.7 298.894 1129.68 298.878C1129.68 298.478 1129.68 298.03 1129.6 297.63C1128.83 291.005 1118.33 282.364 1112.35 280.172C1108.71 278.972 1104.84 279.564 1101.24 280.668C1098.81 281.372 1096.3 281.676 1093.84 282.252C1091.33 282.956 1088.98 284.109 1086.47 284.813C1085.05 285.229 1083.61 285.533 1082.19 285.965C1080.53 286.477 1078.9 287.053 1077.25 287.565C1076.08 287.821 1075.08 288.493 1075.27 289.837C1075.83 292.653 1078.4 294.43 1080.29 296.398C1086.49 302.414 1094.58 306.271 1102.86 308.479C1104.76 308.927 1106.68 309.455 1108.65 309.471C1110.79 309.471 1112.88 309.023 1114.96 308.591C1117.61 308.207 1120.19 307.487 1122.38 305.903C1123.64 305.151 1124.71 304.111 1125.99 303.391C1127.11 302.831 1128.31 302.398 1129.41 301.806C1129.67 301.726 1129.89 301.598 1130.03 301.358C1130.05 301.278 1130.11 301.262 1130.19 301.326C1130.56 301.39 1130.93 301.454 1131.3 301.518C1134.84 302.27 1138.76 301.742 1141.96 303.567C1144.07 306.447 1146.27 309.263 1148.83 311.759C1150.46 313.408 1152.08 315.04 1153.79 316.608C1154.38 317.056 1154.83 317.856 1155.61 317.984C1156.22 318.016 1156.78 317.68 1156.94 317.056C1157.14 316.288 1156.5 315.744 1155.99 315.264C1155.08 314.352 1154.14 313.472 1153.23 312.559C1151.44 310.751 1149.66 308.927 1148.02 306.975C1146.19 304.767 1144.56 302.414 1142.9 300.094C1139.86 295.726 1136.62 291.501 1133.6 287.133C1131.79 284.573 1130.24 281.852 1128.69 279.116C1128.77 278.62 1128.75 278.06 1128.83 277.676C1128.93 276.604 1129.03 275.516 1129.14 274.444C1129.44 271.163 1129.99 267.899 1130.18 264.603C1132.86 263.883 1135.52 262.954 1138.27 262.458C1141.61 261.818 1144.66 259.658 1146.51 256.842C1148.85 253.37 1148.42 249.097 1148.22 245.129C1148.08 241.24 1147.82 237.336 1146.93 233.528C1145.35 228.039 1143.48 222.63 1142.15 217.094C1140.3 214.726 1139.05 218.998 1138.23 220.262C1137.24 222.182 1136.04 223.975 1134.86 225.783C1133.34 228.135 1131.49 230.231 1129.67 232.359C1127.83 234.584 1126.1 236.904 1124.28 239.144C1122.66 240.936 1121.37 243.096 1121.51 245.593C1121.47 249.289 1122.18 252.985 1123.66 256.378C1124.53 258.618 1125.88 260.634 1127.44 262.442C1127.73 262.874 1128.35 263.259 1128.18 263.851C1127.64 268.075 1127.44 272.315 1127.25 276.556C1126.4 275.068 1125.54 273.596 1124.61 272.155C1122.46 268.651 1120.04 265.291 1118.17 261.626C1114.58 254.762 1111.27 247.753 1108.34 240.584C1106.36 235.608 1104.12 230.727 1102.08 225.783C1102.24 225.527 1102.38 225.255 1102.54 225.031C1103.32 223.671 1104.23 222.342 1104.79 220.87C1104.84 220.742 1104.79 220.774 1104.9 220.742C1106.31 220.406 1107.69 219.894 1109.11 219.59C1118.4 217.51 1123.81 212.165 1127.64 203.621C1130.05 198.02 1131.17 191.939 1133.47 186.323C1133.69 185.875 1133.93 185.427 1134.27 185.043C1134.96 184.595 1135.15 183.602 1134.46 183.058C1134 182.674 1133.39 182.834 1132.89 183.058C1132.27 183.298 1131.65 183.57 1131.04 183.843C1128.05 185.107 1125.27 186.787 1122.34 188.179C1120.44 189.123 1118.56 190.131 1116.62 191.027C1114.46 192.019 1112.19 192.819 1110.23 194.196C1106.49 197.092 1103.67 201.396 1102.71 206.053C1102.17 209.669 1102.87 213.317 1103.18 216.918C1103.53 219.414 1102.36 221.654 1101.24 223.799C1100.36 221.622 1099.53 219.43 1098.81 217.19C1095.19 207.109 1093.41 196.5 1091.57 185.971C1090.58 180.018 1089.88 174.034 1089.38 168.049C1090.82 167.425 1091.94 166.033 1092.44 164.561C1095.63 164.401 1098.86 164.945 1102.06 164.561C1104.52 164.161 1107.13 164.001 1109.36 162.816C1111.75 161.392 1113.58 159.264 1115.69 157.504C1117.53 155.872 1118.89 153.824 1120.11 151.695C1122.9 147.007 1124.93 141.934 1127.32 137.038C1127.78 136.046 1128.15 135.006 1128.53 133.982C1128.72 133.341 1129.07 132.717 1129.01 132.045C1128.79 130.717 1127.44 130.637 1126.45 131.181C1124.36 132.013 1122.31 132.941 1120.2 133.741C1117.61 134.782 1114.78 134.91 1112.05 135.278C1110.12 135.47 1108.25 135.966 1106.42 136.638C1103.91 137.502 1101.32 138.398 1099.34 140.238C1096.82 142.862 1094.88 146.063 1093.57 149.471C1092.71 152.511 1092.31 155.68 1091.62 158.768C1091.08 161.12 1091.06 164.257 1089.22 165.969C1088.17 151.295 1088.55 136.51 1090.12 121.868C1091.09 120.7 1092.21 119.676 1093.32 118.62C1094.88 117.164 1096.58 115.852 1098.17 114.444C1099.44 113.275 1100.92 112.219 1101.68 110.619C1102.76 111.003 1103.82 111.451 1104.89 111.851C1107.01 112.619 1109.33 112.731 1111.59 112.603C1114.16 112.491 1116.85 112.043 1118.86 110.331C1122.94 106.619 1125.35 101.626 1127.25 96.5217C1128.27 93.9775 1129.27 91.4172 1130.24 88.857C1130.43 88.3129 1130.7 87.7368 1130.64 87.1448C1130.19 85.1766 1128.15 86.3607 1127 86.9048C1125.01 87.8969 1122.98 88.809 1120.92 89.609C1116.81 91.4492 1112.1 91.4012 1108.15 93.6094C1102.95 96.3617 1100.52 99.434 1100.36 105.435C1100.08 107.035 1100.22 108.955 1099.07 110.219C1096.19 113.003 1093.17 115.612 1090.47 118.588C1090.79 115.932 1091.13 113.275 1091.51 110.619C1093.25 99.706 1095.09 88.7449 1098.11 78.1039C1100.11 76.9998 1102.2 75.9757 1104.36 75.2396C1106.76 74.5355 1109.35 74.2955 1111.57 73.0634C1111.67 73.2394 1111.89 73.4794 1112.1 73.6074C1113.98 75.1276 1116.46 75.2396 1118.8 75.2076C1124.15 75.8636 1128.58 72.2793 1131.65 68.2629C1133.81 65.4146 1135.72 62.3903 1137.58 59.334C1138.07 58.3899 1138.89 57.5578 1139.1 56.5017C1139.16 55.6856 1138.35 55.1096 1137.59 55.3176C1135.72 55.7496 1133.95 56.5017 1132.06 56.9177C1130.43 57.3178 1128.74 57.3338 1127.09 57.6058C1123.8 58.2939 1120.49 59.238 1117.47 60.7101C1115.33 61.8942 1113.74 63.8944 1112.64 66.0387C1111.84 67.4788 1111.62 69.111 1111.41 70.7111C1109.44 72.2633 1106.71 72.3273 1104.39 73.0954C1102.39 73.6234 1100.6 74.6795 1098.81 75.6716C1099.25 74.2315 1099.71 72.7913 1100.19 71.3512C1102.76 64.3905 1106.3 57.8458 1109.54 51.1732C1109.56 51.1252 1109.57 51.0932 1109.6 51.0452C1110.87 50.4531 1112.15 49.893 1113.46 49.445C1116.33 48.5009 1119.4 48.2609 1122.25 47.1728L1122.41 47.1248C1123.08 47.4768 1123.77 47.7648 1124.49 47.9888C1126.18 48.5489 1128.02 48.4849 1129.78 48.3889C1131.33 48.2929 1132.89 48.0529 1134.3 47.3808C1138.65 45.3006 1140.98 40.8681 1143.46 36.9797C1144.16 36.0996 1144.66 34.6915 1143.22 34.2755C1142.44 34.1955 1141.64 34.3395 1140.86 34.3395C1138.28 34.4355 1135.69 34.1635 1133.1 34.4035C1131.73 34.4995 1130.3 34.6435 1129.11 35.3956C1128.1 36.0356 1127.38 37.0437 1126.66 37.9878C1125.4 39.652 1124.26 41.3962 1123.27 43.2364C1122.95 43.7964 1122.73 44.4525 1122.3 44.9485C1120.22 45.5566 1118.12 46.1327 1116.01 46.6607C1114.19 47.0768 1112.47 47.7808 1110.79 48.5809C1112.5 44.9165 1114.05 41.1882 1116.21 37.7638C1117.02 36.5317 1117.88 35.3156 1118.81 34.1475C1119.18 34.1795 1119.56 33.9394 1119.63 33.5554C1122.01 33.3954 1124.33 32.6433 1126.71 32.4193C1130.82 32.3553 1133.42 28.8669 1135.4 25.6986C1137.24 22.7223 1138.35 19.2339 1138.46 15.7296C1138.31 11.5372 1136.24 7.74479 1135.32 3.71239C1134.62 -0.192006 1133.33 -1.21611 1130.1 1.55217C1127.96 3.37635 1126.07 5.52057 1123.72 7.10473C1119.02 10.3851 1112.15 15.2495 1114.38 21.8422C1114.91 23.3464 1115.79 24.6905 1116.35 26.1626C1116.83 27.4268 1117.07 28.7549 1117.42 30.067C1117.58 30.7231 1117.77 31.3792 1117.93 32.0352C1117.8 32.1633 1117.68 32.2913 1117.56 32.4353C1111.94 38.6599 1109.2 46.7567 1105.19 54.0054C1104.66 55.0136 1104.12 56.0217 1103.59 57.0298C1103.59 56.7577 1103.56 56.4857 1103.58 56.2137C1103.67 53.2374 1104.5 50.3411 1104.86 47.3808C1105.18 44.6605 1105.69 41.9402 1105.53 39.204C1105.16 34.4515 1103.27 29.779 1100.08 26.2427C1099.1 25.1225 1097.18 21.9862 1095.63 22.0662C1094.35 22.2743 1094.37 23.7624 1094.29 24.7865C1094.18 25.7146 1094.13 26.6587 1094.07 27.6028C1093.99 29.587 1093.64 31.5232 1093.01 33.4114C1091.13 38.8999 1090.9 45.2366 1093.91 50.3571C1095.6 53.1574 1098.38 54.2775 1100.51 56.5337C1102.16 58.2779 1101.63 60.8221 1100.64 62.8383C1099.39 65.3666 1098.16 67.9429 1097.23 70.5991C1094.67 77.8478 1092.79 85.3206 1091.24 92.8734C1089.54 90.0571 1087.38 87.3208 1084.35 85.9287C1084 85.7686 1083.63 85.6406 1083.26 85.5286C1083.16 85.4966 1083.18 85.4486 1083.18 85.3366C1083.07 84.3925 1082.97 83.4324 1082.88 82.4883C1082.65 78.6799 1081.61 75.0156 1080.26 71.4792C1078.07 64.7745 1070.68 62.5183 1065.05 59.462C1062.34 57.9738 1059.51 56.6937 1056.82 55.1576C1056.17 54.7415 1055.53 54.3255 1054.9 53.8614C1054.07 53.3014 1053.16 52.2613 1052.06 52.6293C1050.84 53.1894 1051.43 54.6615 1051.85 55.5896C1052.78 57.7338 1054.1 59.686 1055.06 61.8302C1056.73 65.1266 1056.81 68.8869 1057.97 72.3273C1060.07 77.7998 1064.86 81.6242 1070.14 83.8325C1072.25 84.7925 1074.33 85.8327 1076.55 86.5207C1078.51 87.1608 1080.59 87.4008 1082.59 87.9609C1084.75 88.6009 1086.33 90.3131 1087.77 91.9453C1088.82 93.0014 1089.42 94.6815 1090.71 95.4336C1090.05 98.73 1089.45 102.042 1088.87 105.355C1086.27 119.964 1084.92 134.814 1084.89 149.647C1084.6 149.247 1084.32 148.847 1083.98 148.495C1082.32 146.351 1080.5 144.367 1078.85 142.206C1077.33 140.478 1075.64 138.91 1074.07 137.23C1074.26 136.862 1074.1 136.446 1074.17 136.062C1074.37 134.414 1074.69 132.797 1074.64 131.133C1074.58 127.245 1074.84 122.94 1072.61 119.548C1069.93 116.06 1066.44 113.227 1062.66 110.987C1059.51 108.971 1056.25 107.195 1052.65 106.139C1051.1 105.595 1049.48 105.179 1047.84 105.227C1045.62 105.291 1043.44 105.819 1041.22 105.835C1040.28 105.835 1039.33 105.771 1038.41 105.611C1037.45 105.451 1036.62 106.443 1037.06 107.323C1039.16 111.003 1041.75 114.396 1043.79 118.108L1043.86 118.076Z" fill="#B4E8D0"/>
</g>
<g clip-path="url(#clip1_46_328)">
<path d="M92.0861 102.276C92.0583 110.899 92.0492 127.11 98.9643 133.012C104.272 137.503 111.689 137.727 118.294 137.097C118.604 137.534 118.918 137.951 119.19 138.411C121.47 141.891 123.124 145.732 124.717 149.56C126.457 153.62 127.284 157.965 127.822 162.339C123.968 157.067 118.997 152.569 113.857 148.587C106.454 143.265 96.409 144.561 88.4286 147.885C86.938 148.501 85.4692 149.205 83.9972 149.877C81.4816 150.763 82.049 152.557 83.4458 154.203C87.5408 159.425 93.4476 162.753 98.7728 166.567C103.161 169.572 108.053 172.293 113.526 172.223C118.644 172.053 123.988 170.886 128.425 168.225C128.457 168.546 128.488 168.868 128.52 169.189C129.458 179.885 129.225 190.704 127.755 201.347C127.689 201.133 127.634 200.911 127.555 200.704C125.047 194.261 120.564 188.669 115.266 184.274C105.268 176.029 100.399 176.487 88.1893 178.601C86.5473 178.868 84.8984 178.935 83.2418 178.989C79.7781 179.021 80.7881 181.219 81.966 183.277C84.972 188.451 88.0854 193.659 91.9848 198.219C95.9706 202.536 100.872 206.139 106.352 208.302C109.453 209.454 112.757 209.847 116.03 210.054C119.524 210.259 123.075 209.932 126.457 209.012C124.752 217.413 122.392 225.697 119.64 233.819C118.284 237.491 116.903 241.179 115.562 244.876C115.565 244.772 115.58 244.66 115.582 244.556C115.646 242.057 115.653 239.577 115.529 237.077C114.915 227.218 110.335 219.007 102.103 213.508C97.3572 210.234 91.5061 209.432 85.9457 208.549C83.541 208.392 70.5277 205.874 70.4452 209.102C70.4503 210.004 71.0519 210.768 71.3675 211.594C72.373 213.811 73.5283 215.969 74.4726 218.225C75.8128 221.461 77.1208 224.7 78.6031 227.864C81.2279 233.842 84.8476 239.312 89.2289 244.148C92.6898 248.147 97.6261 250.396 102.738 251.408C103.715 251.765 109.715 252.559 112.904 251.982C112.935 252.031 112.958 252.068 113.001 252.109C109.751 261.637 107.056 271.311 105.807 281.302C104.011 272.684 101.277 263.906 93.6334 258.907C87.3465 255.085 80.5891 251.166 73.0541 250.863C70.313 250.849 67.1071 250.992 64.9738 252.918C62.4073 255.646 69.2938 268.79 71.169 271.791C74.5974 277.689 78.0306 284.028 84.3367 287.258C90.0729 290.83 97.0519 294.233 103.87 291.829C104.291 291.683 104.724 291.53 105.141 291.352C105.07 300.584 105.774 315.217 109.758 317.094C110.48 317.237 111.229 316.799 111.296 316.039C111.307 315.298 110.92 314.603 110.834 313.871C110.296 311.393 110.124 308.872 109.932 306.346C109.682 301.723 109.572 297.079 109.71 292.45C111.182 293.349 112.902 293.938 114.462 294.542C118.84 296.204 123.448 297.039 128.081 297.533C131.454 298.035 134.927 297.827 138.186 296.848C142.275 295.533 145.763 292.992 149.209 290.495C153.827 287.174 158.475 283.765 162.119 279.333C162.951 278.16 164.334 277.185 164.659 275.75C164.558 273.612 161.866 273.243 160.324 272.422C156.131 270.729 151.81 269.321 147.478 268.057C138.793 265.388 129.219 268.812 122.462 274.455C119.345 277.069 116.905 280.349 114.198 283.371C112.674 284.827 111.209 286.349 109.92 288.015C110.177 284.062 110.642 280.114 111.371 276.205C112.67 268.676 114.614 261.303 116.871 254.023C116.931 254.036 116.999 254.062 117.058 254.076C123.345 255.73 129.925 255.576 136.361 255.139C141.799 254.716 147.353 253.963 152.229 251.349C157.74 248.524 162.22 244.145 166.813 240.053C169.533 237.622 172.112 235.022 174.393 232.166C175.127 231.055 176.504 230.016 176.758 228.712C177.03 225.108 161.165 223.483 157.943 222.68C146.929 220.352 139.814 221.474 131.104 228.896C127.53 231.815 124.678 235.389 121.939 239.063C122.379 237.812 122.828 236.573 123.269 235.321C126.061 226.884 128.421 218.276 130.115 209.558C133.439 209.819 136.778 210.24 140.109 209.916C146.354 209.581 152.101 206.914 157.014 203.167C162.645 199.259 166.935 193.873 171.04 188.467C173.178 185.736 175.175 182.889 177.068 179.987C177.677 179.057 178.266 178.122 178.883 177.204C179.445 176.525 179.333 175.589 178.633 175.074C173.684 172.508 167.978 171.205 162.415 171.075C156.059 171.207 149.41 173.094 144.424 177.159C139.513 181.451 134.755 188.856 131.798 195.895C132.452 186.91 132.27 177.873 131.377 168.925C131.282 168.097 131.179 167.257 131.076 166.417C131.076 166.417 131.076 166.417 131.088 166.409C136.522 166.739 141.739 164.151 146.132 161.124C152.403 157.119 156.95 150.735 158.627 143.479C159.751 139.304 160.749 135.089 161.574 130.846C161.68 129.55 162.735 127.758 161.45 126.775C155.926 124.623 149.014 125.173 144.27 128.916C140.851 131.755 137.489 134.847 135.203 138.697C131.96 144.037 131.599 150.344 130.919 156.39C130.71 158.008 130.56 159.639 130.35 161.257C129.872 158.331 129.285 155.423 128.402 152.615C126.195 146.784 123.534 140.966 119.705 136.003C119.783 135.749 119.862 135.494 119.928 135.247C120.428 133.413 120.885 131.537 121.225 129.666C121.675 127.265 121.971 124.807 121.696 122.368C121.309 116.174 117.703 110.508 112.413 107.32C107.327 103.885 101.186 102.651 95.3508 101.088C93.7197 100.614 92.0477 99.8582 92.0051 102.31L92.0861 102.276Z" fill="#ABE0F7"/>
</g>
<g clip-path="url(#clip2_46_328)">
<path d="M717.84 314.68C717.84 314.68 714.31 300.82 707.5 298.73C707.5 298.73 716.72 298.26 722.79 306.06C722.79 306.06 723.26 299.12 727.75 294.82C727.75 294.82 727.96 302.42 729.17 304C729.17 304 729.08 294.54 735.72 292.47C735.72 292.47 732.62 302.36 736.68 308.59C736.68 308.59 740.25 305.62 740.47 300.96C740.47 300.96 749.17 304.87 747.79 313.42C747.79 313.42 755.92 300.01 753.31 291.51C753.31 291.51 758.21 302.26 756.55 309.21C756.55 309.21 759.26 299.59 764.82 296.47C764.82 296.47 762.21 302.36 763.71 306.08C763.71 306.08 771.03 304.68 773.91 299.05C773.91 299.05 778.36 309.41 773.91 315.45" fill="#B4E8D0"/>
<path d="M717.84 314.68C717.84 314.68 714.31 300.82 707.5 298.73C707.5 298.73 716.72 298.26 722.79 306.06C722.79 306.06 723.26 299.12 727.75 294.82C727.75 294.82 727.96 302.42 729.17 304C729.17 304 729.08 294.54 735.72 292.47C735.72 292.47 732.62 302.36 736.68 308.59C736.68 308.59 740.25 305.62 740.47 300.96C740.47 300.96 749.17 304.87 747.79 313.42C747.79 313.42 755.92 300.01 753.31 291.51C753.31 291.51 758.21 302.26 756.55 309.21C756.55 309.21 759.26 299.59 764.82 296.47C764.82 296.47 762.21 302.36 763.71 306.08C763.71 306.08 771.03 304.68 773.91 299.05C773.91 299.05 778.36 309.41 773.91 315.45" stroke="#015061" stroke-width="3" stroke-linecap="round" stroke-linejoin="round"/>
</g>
<g clip-path="url(#clip3_46_328)">
<path d="M518.54 314.68C518.54 314.68 522.07 300.82 528.88 298.73C528.88 298.73 519.66 298.26 513.59 306.06C513.59 306.06 513.12 299.12 508.63 294.82C508.63 294.82 508.42 302.42 507.21 304C507.21 304 507.3 294.54 500.66 292.47C500.66 292.47 503.76 302.36 499.7 308.59C499.7 308.59 496.13 305.62 495.91 300.96C495.91 300.96 487.21 304.87 488.59 313.42C488.59 313.42 480.46 300.01 483.07 291.51C483.07 291.51 478.17 302.26 479.83 309.21C479.83 309.21 477.12 299.59 471.56 296.47C471.56 296.47 474.17 302.36 472.67 306.08C472.67 306.08 465.35 304.68 462.47 299.05C462.47 299.05 458.02 309.41 462.47 315.45" fill="#B4E8D0"/>
<path d="M518.54 314.68C518.54 314.68 522.07 300.82 528.88 298.73C528.88 298.73 519.66 298.26 513.59 306.06C513.59 306.06 513.12 299.12 508.63 294.82C508.63 294.82 508.42 302.42 507.21 304C507.21 304 507.3 294.54 500.66 292.47C500.66 292.47 503.76 302.36 499.7 308.59C499.7 308.59 496.13 305.62 495.91 300.96C495.91 300.96 487.21 304.87 488.59 313.42C488.59 313.42 480.46 300.01 483.07 291.51C483.07 291.51 478.17 302.26 479.83 309.21C479.83 309.21 477.12 299.59 471.56 296.47C471.56 296.47 474.17 302.36 472.67 306.08C472.67 306.08 465.35 304.68 462.47 299.05C462.47 299.05 458.02 309.41 462.47 315.45" stroke="#015061" stroke-width="3" stroke-linecap="round" stroke-linejoin="round"/>
</g>
<g clip-path="url(#clip4_46_328)">
<path d="M260.84 314.68C260.84 314.68 257.31 300.82 250.5 298.73C250.5 298.73 259.72 298.26 265.79 306.06C265.79 306.06 266.26 299.12 270.75 294.82C270.75 294.82 270.96 302.42 272.17 304C272.17 304 272.08 294.54 278.72 292.47C278.72 292.47 275.62 302.36 279.68 308.59C279.68 308.59 283.25 305.62 283.47 300.96C283.47 300.96 292.17 304.87 290.79 313.42C290.79 313.42 298.92 300.01 296.31 291.51C296.31 291.51 301.21 302.26 299.55 309.21C299.55 309.21 302.26 299.59 307.82 296.47C307.82 296.47 305.21 302.36 306.71 306.08C306.71 306.08 314.03 304.68 316.91 299.05C316.91 299.05 321.36 309.41 316.91 315.45" fill="#B4E8D0"/>
<path d="M260.84 314.68C260.84 314.68 257.31 300.82 250.5 298.73C250.5 298.73 259.72 298.26 265.79 306.06C265.79 306.06 266.26 299.12 270.75 294.82C270.75 294.82 270.96 302.42 272.17 304C272.17 304 272.08 294.54 278.72 292.47C278.72 292.47 275.62 302.36 279.68 308.59C279.68 308.59 283.25 305.62 283.47 300.96C283.47 300.96 292.17 304.87 290.79 313.42C290.79 313.42 298.92 300.01 296.31 291.51C296.31 291.51 301.21 302.26 299.55 309.21C299.55 309.21 302.26 299.59 307.82 296.47C307.82 296.47 305.21 302.36 306.71 306.08C306.71 306.08 314.03 304.68 316.91 299.05C316.91 299.05 321.36 309.41 316.91 315.45" stroke="#015061" stroke-width="3" stroke-linecap="round" stroke-linejoin="round"/>
</g>
<g clip-path="url(#clip5_46_328)">
<path d="M568.567 245.371C568.567 245.371 548.646 245.272 554.61 210.963C554.61 210.963 583.281 227.628 568.567 245.371Z" fill="#B4E8D0" stroke="#015061" stroke-width="3" stroke-linecap="round" stroke-linejoin="round"/>
<path d="M605.562 249.584C605.562 249.584 604.183 260.653 598.636 259.981C590.471 258.988 591.44 247.257 591.44 247.257L605.57 249.584H605.562Z" fill="#ABE0F7" stroke="#015061" stroke-width="3" stroke-linecap="round" stroke-linejoin="round"/>
<path d="M559.035 248.773C559.035 248.773 560.413 259.842 565.961 259.171C574.125 258.177 573.157 246.446 573.157 246.446L559.026 248.773H559.035Z" fill="#ABE0F7" stroke="#015061" stroke-width="3" stroke-linecap="round" stroke-linejoin="round"/>
<path d="M607.208 244.415C607.208 244.415 592.728 230.74 620.554 209.762C620.554 209.762 630.087 241.504 607.208 244.415Z" fill="#B4E8D0" stroke="#015061" stroke-width="3" stroke-linecap="round" stroke-linejoin="round"/>
<path d="M588.107 285.693C604.511 285.693 617.808 276.476 617.808 265.106C617.808 253.737 604.511 244.52 588.107 244.52C571.704 244.52 558.407 253.737 558.407 265.106C558.407 276.476 571.704 285.693 588.107 285.693Z" fill="#ABE0F7" stroke="#015061" stroke-width="3" stroke-linecap="round" stroke-linejoin="round"/>
<path d="M620.861 246.76C623.87 254.726 622.396 264.165 617.023 269.142C610.507 275.182 598.461 277.605 587.698 277.7C579.193 277.77 565.254 276.097 557.308 268.514C553.06 264.461 551.455 255.798 554.769 246.864C560.16 232.344 568.063 222.565 587.689 222.565C607.315 222.565 615.375 232.283 620.852 246.76H620.861Z" fill="#B4E8D0" stroke="#015061" stroke-width="3" stroke-linecap="round" stroke-linejoin="round"/>
<path d="M567.976 263.215C572.186 263.215 575.599 259.805 575.599 255.597C575.599 251.39 572.186 247.98 567.976 247.98C563.765 247.98 560.352 251.39 560.352 255.597C560.352 259.805 563.765 263.215 567.976 263.215Z" fill="white" stroke="#015061" stroke-width="2" stroke-linecap="round" stroke-linejoin="round"/>
<path d="M568.944 260.661C572.379 260.661 575.163 257.879 575.163 254.447C575.163 251.015 572.379 248.233 568.944 248.233C565.509 248.233 562.724 251.015 562.724 254.447C562.724 257.879 565.509 260.661 568.944 260.661Z" fill="#015061"/>
<path d="M583.654 228.443C583.654 228.443 594.874 213.555 568.202 205.404C568.202 205.404 563.276 232.898 583.66 228.449L583.654 228.443Z" fill="#ABE0F7" stroke="#015061" stroke-width="3" stroke-linecap="round" stroke-linejoin="round"/>
<path d="M607.646 262.997C611.736 262.997 615.052 259.684 615.052 255.597C615.052 251.511 611.736 248.198 607.646 248.198C603.556 248.198 600.241 251.511 600.241 255.597C600.241 259.684 603.556 262.997 607.646 262.997Z" fill="white" stroke="#015061" stroke-width="2" stroke-linecap="round" stroke-linejoin="round"/>
<path d="M606.617 260.409C609.955 260.409 612.662 257.704 612.662 254.369C612.662 251.033 609.955 248.329 606.617 248.329C603.279 248.329 600.572 251.033 600.572 254.369C600.572 257.704 603.279 260.409 606.617 260.409Z" fill="#015061"/>
<path d="M583.668 264.627C583.668 264.627 587.558 268.07 591.108 264.627" stroke="#015061" stroke-width="3" stroke-linecap="round" stroke-linejoin="round"/>
<path d="M590.08 228.449C590.08 228.449 578.869 213.56 605.536 205.404C605.536 205.404 610.461 232.898 590.08 228.449Z" fill="#ABE0F7" stroke="#015061" stroke-width="3" stroke-linecap="round" stroke-linejoin="round"/>
<path d="M587.571 228.936C587.571 228.936 608.656 220.144 585.893 195.817C585.893 195.817 563.459 221.44 587.571 228.936Z" fill="#ABE0F7" stroke="#015061" stroke-width="3" stroke-linecap="round" stroke-linejoin="round"/>
</g>
<g clip-path="url(#clip6_46_328)">
<path d="M678.38 317.58C678.38 317.58 669.31 283.47 691.66 272.59" stroke="#015061" stroke-width="3" stroke-linecap="round" stroke-linejoin="round"/>
<path d="M644.5 293.62C644.5 293.62 643.9 285.3 661.43 283.94C678.18 282.64 674.21 299.07 674.21 299.07C674.21 299.07 673.52 304.51 644.5 293.62Z" fill="#B4E8D0" stroke="#015061" stroke-width="3" stroke-linecap="round" stroke-linejoin="round"/>
<path d="M654.24 290.02C654.24 290.02 665.39 289.25 674.21 299.07Z" fill="#B4E8D0"/>
<path d="M654.24 290.02C654.24 290.02 665.39 289.25 674.21 299.07" stroke="#015061" stroke-width="3" stroke-linecap="round" stroke-linejoin="round"/>
<path d="M712.87 276.85C712.87 276.85 713.73 268.55 696.25 266.64C678.77 264.73 683 281.37 683 281.37C683 281.37 683.52 286.83 712.87 276.85Z" fill="#B4E8D0" stroke="#015061" stroke-width="3" stroke-linecap="round" stroke-linejoin="round"/>
<path d="M702.02 273.1C702.02 273.1 690.9 271.98 681.77 281.52Z" fill="#B4E8D0"/>
<path d="M702.02 273.1C702.02 273.1 690.9 271.98 681.77 281.52" stroke="#015061" stroke-width="3" stroke-linecap="round" stroke-linejoin="round"/>
</g>
<path d="M74.6 286.04C74.6 286.04 81.49 264.26 41.92 258.71C41.92 258.71 50.05 295.86 74.6 286.04Z" fill="#B4E8D0" stroke="#015061" stroke-width="3" stroke-linecap="round" stroke-linejoin="round"/>
<path d="M76.3 312V299.67C76.3 283.35 51.93 279.69 51.93 299.67" stroke="#015061" stroke-width="3" stroke-linecap="round" stroke-linejoin="round"/>
<path d="M73.47 298.21C73.47 298.21 88.66 315.27 113.67 284.1C113.67 284.1 77.59 272.08 73.47 298.21Z" fill="#B4E8D0" stroke="#015061" stroke-width="3" stroke-linecap="round" stroke-linejoin="round"/>
<path d="M76.55 240.48C76.55 240.48 91.74 257.54 116.75 226.37C116.75 226.37 80.67 214.35 76.55 240.48Z" fill="#B4E8D0" stroke="#015061" stroke-width="3" stroke-linecap="round" stroke-linejoin="round"/>
<path d="M74.79 237.34C74.79 237.34 77.41 214.65 37.51 216.72C37.51 216.72 52.56 251.64 74.79 237.34Z" fill="#B4E8D0" stroke="#015061" stroke-width="3" stroke-linecap="round" stroke-linejoin="round"/>
<path d="M76.25 294.824V271.524C76.25 255.984 58.19 256.334 58.19 271.524" stroke="#015061" stroke-width="3" stroke-linecap="round" stroke-linejoin="round"/>
<path d="M58.19 278.444C55.2574 278.444 52.88 276.067 52.88 273.134C52.88 270.201 55.2574 267.824 58.19 267.824C61.1226 267.824 63.5 270.201 63.5 273.134C63.5 276.067 61.1226 278.444 58.19 278.444Z" fill="#F97575" stroke="#015061" stroke-width="3" stroke-linecap="round" stroke-linejoin="round"/>
<path d="M76.3 312.5V272.32C76.3 251.84 100.67 247.24 100.67 272.32" stroke="#015061" stroke-width="3" stroke-linecap="round" stroke-linejoin="round"/>
<path d="M76.3 286.21V249.4C76.3 224.86 47.77 225.41 47.77 249.4" stroke="#015061" stroke-width="3" stroke-linecap="round" stroke-linejoin="round"/>
<path d="M100.68 286.01C96.0463 286.01 92.29 282.254 92.29 277.62C92.29 272.986 96.0463 269.23 100.68 269.23C105.314 269.23 109.07 272.986 109.07 277.62C109.07 282.254 105.314 286.01 100.68 286.01Z" fill="#F97575" stroke="#015061" stroke-width="3" stroke-linecap="round" stroke-linejoin="round"/>
<path d="M47.78 260.35C43.1463 260.35 39.39 256.594 39.39 251.96C39.39 247.326 43.1463 243.57 47.78 243.57C52.4137 243.57 56.17 247.326 56.17 251.96C56.17 256.594 52.4137 260.35 47.78 260.35Z" fill="#F97575" stroke="#015061" stroke-width="3" stroke-linecap="round" stroke-linejoin="round"/>
<path d="M75.06 222H75.07C76.6937 222 78.01 223.316 78.01 224.94V312.91C78.01 314.534 76.6937 315.85 75.07 315.85H75.06C73.4363 315.85 72.12 314.534 72.12 312.91V224.94C72.12 223.316 73.4363 222 75.06 222Z" fill="#B4E8D0" stroke="#015061" stroke-width="3" stroke-linecap="round" stroke-linejoin="round"/>
<path d="M51.93 310.66C47.2963 310.66 43.54 306.904 43.54 302.27C43.54 297.636 47.2963 293.88 51.93 293.88C56.5637 293.88 60.32 297.636 60.32 302.27C60.32 306.904 56.5637 310.66 51.93 310.66Z" fill="#F97575" stroke="#015061" stroke-width="3" stroke-linecap="round" stroke-linejoin="round"/>
<path d="M73.8393 232.771C73.8393 232.771 95.8876 238.769 99.8133 199C99.8133 199 63.0306 208.64 73.8393 232.771Z" fill="#B4E8D0" stroke="#015061" stroke-width="3" stroke-linecap="round" stroke-linejoin="round"/>
<path d="M23 316.5H1166" stroke="#0A3C57" stroke-width="5" stroke-linecap="round"/>
<path d="M176.784 302.925C174.001 301.455 171.218 299.984 162.404 301.945C160.085 302.762 155.168 305.671 154.055 310.769C152.663 317.142 178.176 314.691 179.567 313.71C180.959 312.73 183.742 308.808 182.815 307.828L182.814 307.828C181.887 306.847 179.567 304.396 176.784 302.925Z" stroke="#0A3C57" stroke-width="3" stroke-linecap="round" stroke-linejoin="round"/>
<path d="M151.428 309.825C150.276 309.195 149.125 308.565 145.478 309.405C144.518 309.755 142.483 311.002 142.023 313.187C141.447 315.918 152.004 314.867 152.58 314.447C153.155 314.027 154.307 312.346 153.923 311.926L153.923 311.926C153.539 311.506 152.58 310.455 151.428 309.825Z" stroke="#0A3C57" stroke-width="3" stroke-linecap="round" stroke-linejoin="round"/>
<path d="M219.428 309.825C218.276 309.195 217.125 308.565 213.478 309.405C212.518 309.755 210.483 311.002 210.023 313.187C209.447 315.918 220.004 314.867 220.58 314.447C221.155 314.027 222.307 312.346 221.923 311.926L221.923 311.926C221.539 311.506 220.58 310.455 219.428 309.825Z" stroke="#0A3C57" stroke-width="3" stroke-linecap="round" stroke-linejoin="round"/>
<path d="M1038.6 226.04C1038.6 226.04 1045.49 204.26 1005.92 198.71C1005.92 198.71 1014.05 235.86 1038.6 226.04Z" fill="#B4E8D0" stroke="#015061" stroke-width="3" stroke-linecap="round" stroke-linejoin="round"/>
<path d="M1040.3 252V239.67C1040.3 223.35 1015.93 219.69 1015.93 239.67" stroke="#015061" stroke-width="3" stroke-linecap="round" stroke-linejoin="round"/>
<path d="M1037.47 238.21C1037.47 238.21 1052.66 255.27 1077.67 224.1C1077.67 224.1 1041.59 212.08 1037.47 238.21Z" fill="#B4E8D0" stroke="#015061" stroke-width="3" stroke-linecap="round" stroke-linejoin="round"/>
<path d="M1036.87 240.287C1036.87 240.287 1038.32 263.083 1077.23 253.943C1077.23 253.943 1056.22 222.245 1036.87 240.287Z" fill="#B4E8D0" stroke="#015061" stroke-width="3" stroke-linecap="round" stroke-linejoin="round"/>
<path d="M1039 291.87C1039 291.87 1054.19 308.93 1079.2 277.76C1079.2 277.76 1043.12 265.74 1039 291.87Z" fill="#B4E8D0" stroke="#015061" stroke-width="3" stroke-linecap="round" stroke-linejoin="round"/>
<path d="M1039 257.239C1039 257.239 1021.24 274.672 992 242.82C992 242.82 1034.18 230.537 1039 257.239Z" fill="#B4E8D0" stroke="#015061" stroke-width="3" stroke-linecap="round" stroke-linejoin="round"/>
<path d="M1040.55 180.48C1040.55 180.48 1055.74 197.54 1080.75 166.37C1080.75 166.37 1044.67 154.35 1040.55 180.48Z" fill="#B4E8D0" stroke="#015061" stroke-width="3" stroke-linecap="round" stroke-linejoin="round"/>
<path d="M1038.79 177.34C1038.79 177.34 1041.41 154.65 1001.51 156.72C1001.51 156.72 1016.56 191.64 1038.79 177.34Z" fill="#B4E8D0" stroke="#015061" stroke-width="3" stroke-linecap="round" stroke-linejoin="round"/>
<path d="M1039.37 301.824V278.524C1039.37 262.984 1021.31 263.334 1021.31 278.524" stroke="#015061" stroke-width="3" stroke-linecap="round" stroke-linejoin="round"/>
<path d="M1021.31 285.444C1018.38 285.444 1016 283.067 1016 280.134C1016 277.201 1018.38 274.824 1021.31 274.824C1024.24 274.824 1026.62 277.201 1026.62 280.134C1026.62 283.067 1024.24 285.444 1021.31 285.444Z" fill="#F97575" stroke="#015061" stroke-width="3" stroke-linecap="round" stroke-linejoin="round"/>
<path d="M1041 281V257.582C1041 241.964 1058 242.316 1058 257.582" stroke="#015061" stroke-width="3" stroke-linecap="round" stroke-linejoin="round"/>
<path d="M1058 264C1060.76 264 1063 261.761 1063 259C1063 256.239 1060.76 254 1058 254C1055.24 254 1053 256.239 1053 259C1053 261.761 1055.24 264 1058 264Z" fill="#F97575" stroke="#015061" stroke-width="3" stroke-linecap="round" stroke-linejoin="round"/>
<path d="M1040.3 252.5V212.32C1040.3 191.84 1064.67 187.24 1064.67 212.32" stroke="#015061" stroke-width="3" stroke-linecap="round" stroke-linejoin="round"/>
<path d="M1040.3 226.21V189.4C1040.3 164.86 1011.77 165.41 1011.77 189.4" stroke="#015061" stroke-width="3" stroke-linecap="round" stroke-linejoin="round"/>
<path d="M1064.68 226.01C1060.05 226.01 1056.29 222.254 1056.29 217.62C1056.29 212.986 1060.05 209.23 1064.68 209.23C1069.31 209.23 1073.07 212.986 1073.07 217.62C1073.07 222.254 1069.31 226.01 1064.68 226.01Z" fill="#F97575" stroke="#015061" stroke-width="3" stroke-linecap="round" stroke-linejoin="round"/>
<path d="M1011.78 200.35C1007.15 200.35 1003.39 196.594 1003.39 191.96C1003.39 187.326 1007.15 183.57 1011.78 183.57C1016.41 183.57 1020.17 187.326 1020.17 191.96C1020.17 196.594 1016.41 200.35 1011.78 200.35Z" fill="#F97575" stroke="#015061" stroke-width="3" stroke-linecap="round" stroke-linejoin="round"/>
<path d="M1038.99 162H1039.01C1040.66 162 1042 164.146 1042 166.793V310.207C1042 312.854 1040.66 315 1039.01 315H1038.99C1037.34 315 1036 312.854 1036 310.207V166.793C1036 164.146 1037.34 162 1038.99 162Z" fill="#B4E8D0" stroke="#015061" stroke-width="3" stroke-linecap="round" stroke-linejoin="round"/>
<path d="M1015.93 250.66C1011.3 250.66 1007.54 246.904 1007.54 242.27C1007.54 237.636 1011.3 233.88 1015.93 233.88C1020.56 233.88 1024.32 237.636 1024.32 242.27C1024.32 246.904 1020.56 250.66 1015.93 250.66Z" fill="#F97575" stroke="#015061" stroke-width="3" stroke-linecap="round" stroke-linejoin="round"/>
<path d="M1037.84 172.771C1037.84 172.771 1059.89 178.769 1063.81 139C1063.81 139 1027.03 148.64 1037.84 172.771Z" fill="#B4E8D0" stroke="#015061" stroke-width="3" stroke-linecap="round" stroke-linejoin="round"/>
<path d="M942.65 284.04C942.65 284.04 935.76 262.26 975.33 256.71C975.33 256.71 967.2 293.86 942.65 284.04Z" fill="#B4E8D0" stroke="#015061" stroke-width="3" stroke-linecap="round" stroke-linejoin="round"/>
<path d="M940.95 310V297.67C940.95 281.35 965.32 277.69 965.32 297.67" stroke="#015061" stroke-width="3" stroke-linecap="round" stroke-linejoin="round"/>
<path d="M943.78 296.21C943.78 296.21 928.59 313.27 903.58 282.1C903.58 282.1 939.66 270.08 943.78 296.21Z" fill="#B4E8D0" stroke="#015061" stroke-width="3" stroke-linecap="round" stroke-linejoin="round"/>
<path d="M940.7 238.48C940.7 238.48 925.51 255.54 900.5 224.37C900.5 224.37 936.58 212.35 940.7 238.48Z" fill="#B4E8D0" stroke="#015061" stroke-width="3" stroke-linecap="round" stroke-linejoin="round"/>
<path d="M942.46 235.34C942.46 235.34 939.84 212.65 979.74 214.72C979.74 214.72 964.69 249.64 942.46 235.34Z" fill="#B4E8D0" stroke="#015061" stroke-width="3" stroke-linecap="round" stroke-linejoin="round"/>
<path d="M941 292.824V269.524C941 253.984 959.06 254.334 959.06 269.524" stroke="#015061" stroke-width="3" stroke-linecap="round" stroke-linejoin="round"/>
<path d="M959.06 276.444C961.993 276.444 964.37 274.067 964.37 271.134C964.37 268.201 961.993 265.824 959.06 265.824C956.127 265.824 953.75 268.201 953.75 271.134C953.75 274.067 956.127 276.444 959.06 276.444Z" fill="#F97575" stroke="#015061" stroke-width="3" stroke-linecap="round" stroke-linejoin="round"/>
<path d="M940.95 310.5V270.32C940.95 249.84 916.58 245.24 916.58 270.32" stroke="#015061" stroke-width="3" stroke-linecap="round" stroke-linejoin="round"/>
<path d="M940.95 284.21V247.4C940.95 222.86 969.48 223.41 969.48 247.4" stroke="#015061" stroke-width="3" stroke-linecap="round" stroke-linejoin="round"/>
<path d="M916.57 284.01C921.204 284.01 924.96 280.254 924.96 275.62C924.96 270.986 921.204 267.23 916.57 267.23C911.936 267.23 908.18 270.986 908.18 275.62C908.18 280.254 911.936 284.01 916.57 284.01Z" fill="#F97575" stroke="#015061" stroke-width="3" stroke-linecap="round" stroke-linejoin="round"/>
<path d="M969.47 258.35C974.104 258.35 977.86 254.594 977.86 249.96C977.86 245.326 974.104 241.57 969.47 241.57C964.836 241.57 961.08 245.326 961.08 249.96C961.08 254.594 964.836 258.35 969.47 258.35Z" fill="#F97575" stroke="#015061" stroke-width="3" stroke-linecap="round" stroke-linejoin="round"/>
<path d="M942.19 220H942.18C940.556 220 939.24 221.316 939.24 222.94V310.91C939.24 312.534 940.556 313.85 942.18 313.85H942.19C943.814 313.85 945.13 312.534 945.13 310.91V222.94C945.13 221.316 943.814 220 942.19 220Z" fill="#B4E8D0" stroke="#015061" stroke-width="3" stroke-linecap="round" stroke-linejoin="round"/>
<path d="M965.32 308.66C969.954 308.66 973.71 304.904 973.71 300.27C973.71 295.636 969.954 291.88 965.32 291.88C960.686 291.88 956.93 295.636 956.93 300.27C956.93 304.904 960.686 308.66 965.32 308.66Z" fill="#F97575" stroke="#015061" stroke-width="3" stroke-linecap="round" stroke-linejoin="round"/>
<path d="M943.411 230.771C943.411 230.771 921.362 236.769 917.437 197C917.437 197 954.219 206.64 943.411 230.771Z" fill="#B4E8D0" stroke="#015061" stroke-width="3" stroke-linecap="round" stroke-linejoin="round"/>
<mask id="path-81-outside-1_46_328" maskUnits="userSpaceOnUse" x="834" y="284" width="36" height="33" fill="black">
<rect fill="white" x="834" y="284" width="36" height="33"/>
<path d="M840.75 291.375C847.957 291.375 853.875 297.293 853.875 304.5V312C853.875 313.055 852.879 313.875 851.941 313.875C850.945 313.875 850.125 313.055 850.125 312V304.5C842.859 304.5 837 298.582 837 291.375H840.75ZM863.25 287.625H867C867 294.422 861.844 300.047 855.223 300.691C854.578 298.348 853.348 296.18 851.766 294.422C853.992 290.379 858.27 287.625 863.25 287.625Z"/>
</mask>
<path d="M840.75 291.375C847.957 291.375 853.875 297.293 853.875 304.5V312C853.875 313.055 852.879 313.875 851.941 313.875C850.945 313.875 850.125 313.055 850.125 312V304.5C842.859 304.5 837 298.582 837 291.375H840.75ZM863.25 287.625H867C867 294.422 861.844 300.047 855.223 300.691C854.578 298.348 853.348 296.18 851.766 294.422C853.992 290.379 858.27 287.625 863.25 287.625Z" fill="#B4E8D0"/>
<path d="M850.125 304.5H853.125C853.125 302.843 851.782 301.5 850.125 301.5V304.5ZM837 291.375V288.375C835.343 288.375 834 289.718 834 291.375H837ZM867 287.625H870C870 285.968 868.657 284.625 867 284.625V287.625ZM855.223 300.691L852.33 301.487C852.717 302.894 854.061 303.819 855.513 303.677L855.223 300.691ZM851.766 294.422L849.138 292.975C848.522 294.093 848.681 295.479 849.536 296.429L851.766 294.422ZM840.75 294.375C846.3 294.375 850.875 298.95 850.875 304.5H856.875C856.875 295.636 849.614 288.375 840.75 288.375V294.375ZM850.875 304.5V312H856.875V304.5H850.875ZM850.875 312C850.875 311.547 851.09 311.253 851.229 311.125C851.347 311.016 851.569 310.875 851.941 310.875V316.875C853.251 316.875 854.44 316.324 855.291 315.541C856.162 314.739 856.875 313.508 856.875 312H850.875ZM851.941 310.875C852.664 310.875 853.125 311.46 853.125 312H847.125C847.125 314.649 849.227 316.875 851.941 316.875V310.875ZM853.125 312V304.5H847.125V312H853.125ZM850.125 301.5C844.525 301.5 840 296.934 840 291.375H834C834 300.23 841.194 307.5 850.125 307.5V301.5ZM837 294.375H840.75V288.375H837V294.375ZM863.25 290.625H867V284.625H863.25V290.625ZM864 287.625C864 292.882 860.012 297.211 854.932 297.706L855.513 303.677C863.676 302.883 870 295.962 870 287.625H864ZM858.115 299.896C857.34 297.077 855.872 294.499 853.996 292.415L849.536 296.429C850.824 297.86 851.816 299.618 852.33 301.487L858.115 299.896ZM854.393 295.869C856.118 292.738 859.414 290.625 863.25 290.625V284.625C857.125 284.625 851.867 288.019 849.138 292.975L854.393 295.869Z" fill="#0A3C57" mask="url(#path-81-outside-1_46_328)"/>
<path d="M557.389 282.98L562.179 314.36C562.179 314.36 591.499 321.53 614.009 313.7L618.039 281.07" fill="#BFA485"/>
<path d="M557.389 282.98L562.179 314.36C562.179 314.36 591.499 321.53 614.009 313.7L618.039 281.07" stroke="#015061" stroke-width="3" stroke-linecap="round" stroke-linejoin="round"/>
<path d="M553.348 271.018C570.848 277.018 603.798 276.878 617.348 272.018C629.448 267.678 621.858 288.348 619.848 290.018C613.158 295.568 572.487 298.428 555.867 291.518C549.447 288.848 550.228 270.348 553.348 271.018Z" fill="#BFA485" stroke="#015061" stroke-width="3" stroke-linecap="round" stroke-linejoin="round"/>
<path opacity="0.5" d="M590 282.5C595.5 283 606 282.5 614.5 280" stroke="#0A3C57" stroke-width="3" stroke-linecap="round" stroke-linejoin="round"/>
<g clip-path="url(#clip7_46_328)">
<path d="M1168.42 248.28C1172.94 245.27 1169.15 235.13 1160.89 233.71C1152.62 232.3 1148.21 249.01 1154.32 250.77C1160.43 252.53 1166.01 249.88 1168.42 248.28Z" fill="#B4E8D0" stroke="#015061" stroke-width="3" stroke-linecap="round" stroke-linejoin="round"/>
<path d="M1161.12 238.39C1161.12 238.39 1159.12 239.04 1160.79 245.93Z" fill="#B4E8D0"/>
<path d="M1161.12 238.39C1161.12 238.39 1159.12 239.04 1160.79 245.93" stroke="#015061" stroke-width="3" stroke-linecap="round" stroke-linejoin="round"/>
<path d="M1122.57 278.27C1127.09 275.26 1123.3 265.12 1115.04 263.7C1106.77 262.29 1102.36 279 1108.47 280.76C1114.58 282.52 1120.16 279.87 1122.57 278.27Z" fill="#B4E8D0" stroke="#015061" stroke-width="3" stroke-linecap="round" stroke-linejoin="round"/>
<path d="M1138.9 314.93C1138.9 314.93 1136.79 279.7 1112.15 276.4" stroke="#015061" stroke-width="3" stroke-linecap="round" stroke-linejoin="round"/>
<path d="M1162.25 249.32C1162.25 249.32 1134.42 262.03 1138.18 306.03" stroke="#015061" stroke-width="3" stroke-linecap="round" stroke-linejoin="round"/>
<path d="M1145.23 209.01C1145.23 209.01 1132.71 207.1 1136.65 295.18" stroke="#015061" stroke-width="3" stroke-linecap="round" stroke-linejoin="round"/>
<path d="M1084.74 290.22C1084.74 290.22 1079.08 284.09 1091.93 272.09C1104.21 260.63 1111.36 275.94 1111.36 275.94C1111.36 275.94 1114.22 280.63 1084.74 290.22Z" fill="#B4E8D0" stroke="#015061" stroke-width="3" stroke-linecap="round" stroke-linejoin="round"/>
<path d="M1090.11 281.33C1090.11 281.33 1098.34 273.77 1111.37 275.94Z" fill="#B4E8D0"/>
<path d="M1090.11 281.33C1090.11 281.33 1098.34 273.77 1111.37 275.94" stroke="#015061" stroke-width="3" stroke-linecap="round" stroke-linejoin="round"/>
<path d="M1102.78 252.36C1102.78 252.36 1100.28 244.4 1117.03 239.05C1133.78 233.7 1132.95 250.84 1132.95 250.84C1132.95 250.84 1133.53 256.3 1102.78 252.37V252.36Z" fill="#B4E8D0" stroke="#015061" stroke-width="3" stroke-linecap="round" stroke-linejoin="round"/>
<path d="M1112.67 246.52C1112.67 246.52 1123.34 243.21 1134.19 250.74Z" fill="#B4E8D0"/>
<path d="M1112.67 246.52C1112.67 246.52 1123.34 243.21 1134.19 250.74" stroke="#015061" stroke-width="3" stroke-linecap="round" stroke-linejoin="round"/>
<path d="M1111.53 215.43C1111.53 215.43 1109.03 207.47 1125.78 202.12C1142.53 196.77 1141.7 213.91 1141.7 213.91C1141.7 213.91 1142.28 219.37 1111.53 215.44V215.43Z" fill="#B4E8D0" stroke="#015061" stroke-width="3" stroke-linecap="round" stroke-linejoin="round"/>
<path d="M1120.18 209.69C1120.18 209.69 1130.85 206.38 1141.7 213.91Z" fill="#B4E8D0"/>
<path d="M1120.18 209.69C1120.18 209.69 1130.85 206.38 1141.7 213.91" stroke="#015061" stroke-width="3" stroke-linecap="round" stroke-linejoin="round"/>
<path d="M1172.28 204.91C1172.28 204.91 1172.59 196.57 1155.02 195.82C1137.45 195.07 1142.77 211.39 1142.77 211.39C1142.77 211.39 1143.65 216.81 1172.28 204.91Z" fill="#B4E8D0" stroke="#015061" stroke-width="3" stroke-linecap="round" stroke-linejoin="round"/>
<path d="M1162.42 201.65C1162.42 201.65 1151.25 201.27 1142.77 211.39Z" fill="#B4E8D0"/>
<path d="M1162.42 201.65C1162.42 201.65 1151.25 201.27 1142.77 211.39" stroke="#015061" stroke-width="3" stroke-linecap="round" stroke-linejoin="round"/>
<path d="M1187.79 263.49C1187.79 263.49 1193.61 257.51 1181.06 245.18C1169.08 233.41 1161.54 248.53 1161.54 248.53C1161.54 248.53 1158.56 253.14 1187.79 263.48V263.49Z" fill="#B4E8D0" stroke="#015061" stroke-width="3" stroke-linecap="round" stroke-linejoin="round"/>
<path d="M1182.65 254.46C1182.65 254.46 1174.61 246.69 1161.54 248.53Z" fill="#B4E8D0"/>
<path d="M1182.65 254.46C1182.65 254.46 1174.61 246.69 1161.54 248.53" stroke="#015061" stroke-width="3" stroke-linecap="round" stroke-linejoin="round"/>
<path d="M1171.32 280.51C1171.32 280.51 1177.14 274.53 1164.59 262.2C1152.61 250.43 1145.07 265.55 1145.07 265.55C1145.07 265.55 1142.09 270.16 1171.32 280.5V280.51Z" fill="#B4E8D0" stroke="#015061" stroke-width="3" stroke-linecap="round" stroke-linejoin="round"/>
<path d="M1166.19 271.48C1166.19 271.48 1158.15 263.71 1145.08 265.55Z" fill="#B4E8D0"/>
<path d="M1166.19 271.48C1166.19 271.48 1158.15 263.71 1145.08 265.55" stroke="#015061" stroke-width="3" stroke-linecap="round" stroke-linejoin="round"/>
<path d="M1104.27 278.19C1099.45 280.36 1102.08 289.5 1110.14 291.52C1118.2 293.54 1124.44 279.5 1118.56 277.39C1112.68 275.28 1106.85 277.03 1104.27 278.19Z" fill="#B4E8D0" stroke="#015061" stroke-width="3" stroke-linecap="round" stroke-linejoin="round"/>
<path d="M1115.27 268.38C1115.27 268.38 1113.27 269.03 1114.94 275.92Z" fill="#B4E8D0"/>
<path d="M1115.27 268.38C1115.27 268.38 1113.27 269.03 1114.94 275.92" stroke="#015061" stroke-width="3" stroke-linecap="round" stroke-linejoin="round"/>
<path d="M1111.74 276.6C1111.74 276.6 1109.68 277.02 1110.57 284.06Z" fill="#B4E8D0"/>
<path d="M1111.74 276.6C1111.74 276.6 1109.68 277.02 1110.57 284.06" stroke="#015061" stroke-width="3" stroke-linecap="round" stroke-linejoin="round"/>
<path d="M1165.79 229.75C1165.79 229.75 1171.77 223.93 1159.58 211.26C1147.93 199.16 1139.97 214.06 1139.97 214.06C1139.97 214.06 1136.87 218.59 1165.79 229.75Z" fill="#B4E8D0" stroke="#015061" stroke-width="3" stroke-linecap="round" stroke-linejoin="round"/>
<path d="M1160.91 220.58C1160.91 220.58 1153.09 212.59 1139.97 214.06Z" fill="#B4E8D0"/>
<path d="M1160.91 220.58C1160.91 220.58 1153.09 212.59 1139.97 214.06" stroke="#015061" stroke-width="3" stroke-linecap="round" stroke-linejoin="round"/>
<path d="M1126.6 232.47C1126.6 232.47 1117.98 230.92 1122.55 218.23C1127.12 205.54 1142.18 212.79 1142.18 212.79C1142.18 212.79 1147.45 214.57 1126.6 232.46V232.47Z" fill="#B4E8D0" stroke="#015061" stroke-width="3" stroke-linecap="round" stroke-linejoin="round"/>
<path d="M1126.26 224.75C1126.26 224.75 1129.26 216.7 1142.18 212.8Z" fill="#B4E8D0"/>
<path d="M1126.26 224.75C1126.26 224.75 1129.26 216.7 1142.18 212.8" stroke="#015061" stroke-width="3" stroke-linecap="round" stroke-linejoin="round"/>
<path d="M1163.68 258.16C1163.68 258.16 1167.53 250.75 1151.97 242.56C1137.11 234.74 1134.24 251.39 1134.24 251.39C1134.24 251.39 1132.72 256.66 1163.68 258.15V258.16Z" fill="#B4E8D0" stroke="#015061" stroke-width="3" stroke-linecap="round" stroke-linejoin="round"/>
<path d="M1156.16 251C1156.16 251 1146.23 245.88 1134.23 251.4Z" fill="#B4E8D0"/>
<path d="M1156.16 251C1156.16 251 1146.23 245.88 1134.23 251.4" stroke="#015061" stroke-width="3" stroke-linecap="round" stroke-linejoin="round"/>
<path d="M1154.77 269.68C1159.59 271.85 1156.96 280.99 1148.9 283.01C1140.84 285.03 1134.6 270.99 1140.48 268.88C1146.36 266.77 1152.19 268.52 1154.77 269.68Z" fill="#B4E8D0" stroke="#015061" stroke-width="3" stroke-linecap="round" stroke-linejoin="round"/>
<path d="M1147.3 268.09C1147.3 268.09 1149.36 268.51 1148.47 275.55Z" fill="#B4E8D0"/>
<path d="M1147.3 268.09C1147.3 268.09 1149.36 268.51 1148.47 275.55" stroke="#015061" stroke-width="3" stroke-linecap="round" stroke-linejoin="round"/>
<path d="M1126.62 248.98C1121.48 250.25 1122.43 259.71 1130 263.15C1137.56 266.59 1146.23 253.9 1140.82 250.77C1135.41 247.64 1129.36 248.31 1126.62 248.98Z" fill="#B4E8D0" stroke="#015061" stroke-width="3" stroke-linecap="round" stroke-linejoin="round"/>
<path d="M1134.25 248.77C1134.25 248.77 1132.15 248.81 1131.76 255.9Z" fill="#B4E8D0"/>
<path d="M1134.25 248.77C1134.25 248.77 1132.15 248.81 1131.76 255.9" stroke="#015061" stroke-width="3" stroke-linecap="round" stroke-linejoin="round"/>
<path d="M1142.92 208.63C1142.92 208.63 1132.65 218.13 1126.55 197.95C1126.55 197.95 1145.21 194.44 1142.92 208.63Z" fill="#B4E8D0" stroke="#015061" stroke-width="3" stroke-linecap="round" stroke-linejoin="round"/>
<path d="M1141.8 205.05C1141.8 205.05 1128.24 201.64 1141.8 185.5C1141.8 185.5 1154.94 199.21 1141.8 205.05Z" fill="#B4E8D0" stroke="#015061" stroke-width="3" stroke-linecap="round" stroke-linejoin="round"/>
<path d="M1143.69 209.57C1143.69 209.57 1133.64 199.84 1153.45 192.64C1153.45 192.64 1157.98 211.08 1143.69 209.57Z" fill="#B4E8D0" stroke="#015061" stroke-width="3" stroke-linecap="round" stroke-linejoin="round"/>
<path d="M1111.22 275.1C1111.22 275.1 1098.62 281.16 1098.71 260.08C1098.71 260.08 1117.58 262.22 1111.22 275.1Z" fill="#B4E8D0" stroke="#015061" stroke-width="3" stroke-linecap="round" stroke-linejoin="round"/>
<path d="M1137.33 248.25C1137.33 248.25 1123.59 249.29 1133.81 234.67C1133.81 234.67 1148.99 240.9 1137.33 248.25Z" fill="#B4E8D0" stroke="#015061" stroke-width="3" stroke-linecap="round" stroke-linejoin="round"/>
</g>
<g clip-path="url(#clip8_46_328)">
<path d="M150.757 232.298C145.111 228.538 149.845 215.871 160.163 214.097C170.494 212.336 176.003 233.21 168.37 235.408C160.738 237.607 153.767 234.297 150.757 232.298Z" fill="#B4E8D0" stroke="#015061" stroke-width="3" stroke-linecap="round" stroke-linejoin="round"/>
<path d="M159.876 219.943C159.876 219.943 162.374 220.755 160.288 229.362Z" fill="#B4E8D0"/>
<path d="M159.876 219.943C159.876 219.943 162.374 220.755 160.288 229.362" stroke="#015061" stroke-width="3" stroke-linecap="round" stroke-linejoin="round"/>
<path d="M208.032 269.761C202.386 266.001 207.12 253.334 217.439 251.56C227.769 249.799 233.278 270.673 225.646 272.871C218.013 275.07 211.043 271.76 208.032 269.761Z" fill="#B4E8D0" stroke="#015061" stroke-width="3" stroke-linecap="round" stroke-linejoin="round"/>
<path d="M187.633 315.556C187.633 315.556 190.269 271.547 221.049 267.425" stroke="#015061" stroke-width="3" stroke-linecap="round" stroke-linejoin="round"/>
<path d="M159.464 233.597C159.464 233.597 194.229 249.474 189.532 304.438" stroke="#015061" stroke-width="3" stroke-linecap="round" stroke-linejoin="round"/>
<path d="M180 183.004C180 183.004 194.734 180.544 190.097 294" stroke="#015061" stroke-width="3" stroke-linecap="round" stroke-linejoin="round"/>
<path d="M255.289 284.689C255.289 284.689 262.359 277.031 246.307 262.041C230.967 247.725 222.036 266.85 222.036 266.85C222.036 266.85 218.463 272.709 255.289 284.689Z" fill="#B4E8D0" stroke="#015061" stroke-width="3" stroke-linecap="round" stroke-linejoin="round"/>
<path d="M248.581 273.584C248.581 273.584 238.3 264.14 222.023 266.85Z" fill="#B4E8D0"/>
<path d="M248.581 273.584C248.581 273.584 238.3 264.14 222.023 266.85" stroke="#015061" stroke-width="3" stroke-linecap="round" stroke-linejoin="round"/>
<path d="M232.754 237.394C232.754 237.394 235.877 227.451 214.953 220.768C194.029 214.085 195.066 235.496 195.066 235.496C195.066 235.496 194.341 242.316 232.754 237.407V237.394Z" fill="#B4E8D0" stroke="#015061" stroke-width="3" stroke-linecap="round" stroke-linejoin="round"/>
<path d="M220.399 230.099C220.399 230.099 207.07 225.964 193.517 235.371Z" fill="#B4E8D0"/>
<path d="M220.399 230.099C220.399 230.099 207.07 225.964 193.517 235.371" stroke="#015061" stroke-width="3" stroke-linecap="round" stroke-linejoin="round"/>
<path d="M221.823 191.262C221.823 191.262 224.946 181.318 204.022 174.635C183.098 167.952 184.135 189.363 184.135 189.363C184.135 189.363 183.411 196.184 221.823 191.275V191.262Z" fill="#B4E8D0" stroke="#015061" stroke-width="3" stroke-linecap="round" stroke-linejoin="round"/>
<path d="M211.018 184.092C211.018 184.092 197.689 179.957 184.135 189.363Z" fill="#B4E8D0"/>
<path d="M211.018 184.092C211.018 184.092 197.689 179.957 184.135 189.363" stroke="#015061" stroke-width="3" stroke-linecap="round" stroke-linejoin="round"/>
<path d="M145.935 178.121C145.935 178.121 145.548 167.702 167.496 166.765C189.444 165.829 182.799 186.215 182.799 186.215C182.799 186.215 181.699 192.986 145.935 178.121Z" fill="#B4E8D0" stroke="#015061" stroke-width="3" stroke-linecap="round" stroke-linejoin="round"/>
<path d="M158.252 174.048C158.252 174.048 172.205 173.574 182.799 186.215Z" fill="#B4E8D0"/>
<path d="M158.252 174.048C158.252 174.048 172.205 173.574 182.799 186.215" stroke="#015061" stroke-width="3" stroke-linecap="round" stroke-linejoin="round"/>
<path d="M126.56 251.298C126.56 251.298 119.29 243.828 134.967 228.425C149.932 213.722 159.351 232.61 159.351 232.61C159.351 232.61 163.074 238.369 126.56 251.285V251.298Z" fill="#B4E8D0" stroke="#015061" stroke-width="3" stroke-linecap="round" stroke-linejoin="round"/>
<path d="M132.981 240.018C132.981 240.018 143.024 230.312 159.351 232.61Z" fill="#B4E8D0"/>
<path d="M132.981 240.018C132.981 240.018 143.024 230.312 159.351 232.61" stroke="#015061" stroke-width="3" stroke-linecap="round" stroke-linejoin="round"/>
<path d="M147.134 272.559C147.134 272.559 139.864 265.089 155.541 249.687C170.507 234.984 179.926 253.871 179.926 253.871C179.926 253.871 183.648 259.63 147.134 272.547V272.559Z" fill="#B4E8D0" stroke="#015061" stroke-width="3" stroke-linecap="round" stroke-linejoin="round"/>
<path d="M153.543 261.279C153.543 261.279 163.586 251.573 179.913 253.871Z" fill="#B4E8D0"/>
<path d="M153.543 261.279C153.543 261.279 163.586 251.573 179.913 253.871" stroke="#015061" stroke-width="3" stroke-linecap="round" stroke-linejoin="round"/>
<path d="M230.892 269.661C236.913 272.372 233.628 283.789 223.56 286.313C213.491 288.836 205.696 271.297 213.041 268.662C220.387 266.026 227.669 268.212 230.892 269.661Z" fill="#B4E8D0" stroke="#015061" stroke-width="3" stroke-linecap="round" stroke-linejoin="round"/>
<path d="M217.151 257.406C217.151 257.406 219.65 258.218 217.564 266.825Z" fill="#B4E8D0"/>
<path d="M217.151 257.406C217.151 257.406 219.65 258.218 217.564 266.825" stroke="#015061" stroke-width="3" stroke-linecap="round" stroke-linejoin="round"/>
<path d="M221.561 267.675C221.561 267.675 224.134 268.199 223.022 276.994Z" fill="#B4E8D0"/>
<path d="M221.561 267.675C221.561 267.675 224.134 268.199 223.022 276.994" stroke="#015061" stroke-width="3" stroke-linecap="round" stroke-linejoin="round"/>
<path d="M154.042 209.15C154.042 209.15 146.572 201.88 161.8 186.053C176.353 170.938 186.296 189.551 186.296 189.551C186.296 189.551 190.169 195.209 154.042 209.15Z" fill="#B4E8D0" stroke="#015061" stroke-width="3" stroke-linecap="round" stroke-linejoin="round"/>
<path d="M160.138 197.695C160.138 197.695 169.907 187.714 186.296 189.551Z" fill="#B4E8D0"/>
<path d="M160.138 197.695C160.138 197.695 169.907 187.714 186.296 189.551" stroke="#015061" stroke-width="3" stroke-linecap="round" stroke-linejoin="round"/>
<path d="M202.998 212.548C202.998 212.548 213.766 210.612 208.057 194.76C202.348 178.908 183.536 187.964 183.536 187.964C183.536 187.964 176.952 190.188 202.998 212.536V212.548Z" fill="#B4E8D0" stroke="#015061" stroke-width="3" stroke-linecap="round" stroke-linejoin="round"/>
<path d="M203.423 202.904C203.423 202.904 199.675 192.848 183.536 187.977Z" fill="#B4E8D0"/>
<path d="M203.423 202.904C203.423 202.904 199.675 192.848 183.536 187.977" stroke="#015061" stroke-width="3" stroke-linecap="round" stroke-linejoin="round"/>
<path d="M156.678 244.64C156.678 244.64 151.869 235.383 171.306 225.152C189.869 215.384 193.454 236.183 193.454 236.183C193.454 236.183 195.353 242.766 156.678 244.627V244.64Z" fill="#B4E8D0" stroke="#015061" stroke-width="3" stroke-linecap="round" stroke-linejoin="round"/>
<path d="M166.072 235.696C166.072 235.696 178.476 229.3 193.467 236.195Z" fill="#B4E8D0"/>
<path d="M166.072 235.696C166.072 235.696 178.476 229.3 193.467 236.195" stroke="#015061" stroke-width="3" stroke-linecap="round" stroke-linejoin="round"/>
<path d="M167.808 259.031C161.787 261.741 165.073 273.159 175.141 275.682C185.21 278.206 193.005 260.667 185.659 258.031C178.314 255.395 171.031 257.581 167.808 259.031Z" fill="#B4E8D0" stroke="#015061" stroke-width="3" stroke-linecap="round" stroke-linejoin="round"/>
<path d="M177.14 257.044C177.14 257.044 174.566 257.569 175.678 266.363Z" fill="#B4E8D0"/>
<path d="M177.14 257.044C177.14 257.044 174.566 257.569 175.678 266.363" stroke="#015061" stroke-width="3" stroke-linecap="round" stroke-linejoin="round"/>
<path d="M202.973 233.172C209.394 234.759 208.207 246.576 198.751 250.873C189.307 255.17 178.476 239.318 185.235 235.408C191.993 231.498 199.55 232.335 202.973 233.172Z" fill="#B4E8D0" stroke="#015061" stroke-width="3" stroke-linecap="round" stroke-linejoin="round"/>
<path d="M193.442 232.91C193.442 232.91 196.065 232.96 196.552 241.817Z" fill="#B4E8D0"/>
<path d="M193.442 232.91C193.442 232.91 196.065 232.96 196.552 241.817" stroke="#015061" stroke-width="3" stroke-linecap="round" stroke-linejoin="round"/>
<path d="M182.611 182.767C182.611 182.767 195.44 194.635 203.06 169.426C203.06 169.426 179.751 165.041 182.611 182.767Z" fill="#B4E8D0" stroke="#015061" stroke-width="3" stroke-linecap="round" stroke-linejoin="round"/>
<path d="M184.01 178.295C184.01 178.295 200.949 174.036 184.01 153.874C184.01 153.874 167.596 171 184.01 178.295Z" fill="#B4E8D0" stroke="#015061" stroke-width="3" stroke-linecap="round" stroke-linejoin="round"/>
<path d="M181.649 183.942C181.649 183.942 194.204 171.787 169.457 162.793C169.457 162.793 163.798 185.828 181.649 183.942Z" fill="#B4E8D0" stroke="#015061" stroke-width="3" stroke-linecap="round" stroke-linejoin="round"/>
<path d="M222.211 265.801C222.211 265.801 237.95 273.371 237.838 247.038C237.838 247.038 214.266 249.711 222.211 265.801Z" fill="#B4E8D0" stroke="#015061" stroke-width="3" stroke-linecap="round" stroke-linejoin="round"/>
<path d="M189.594 232.26C189.594 232.26 206.758 233.56 193.991 215.296C193.991 215.296 175.029 223.079 189.594 232.26Z" fill="#B4E8D0" stroke="#015061" stroke-width="3" stroke-linecap="round" stroke-linejoin="round"/>
</g>
<path d="M810.428 308.825C809.276 308.195 808.125 307.565 804.478 308.405C803.518 308.755 801.483 310.002 801.023 312.187C800.447 314.918 811.004 313.867 811.58 313.447C812.155 313.027 813.307 311.346 812.923 310.926L812.923 310.926C812.539 310.506 811.58 309.455 810.428 308.825Z" stroke="#0A3C57" stroke-width="3" stroke-linecap="round" stroke-linejoin="round"/>
<path d="M830.285 306.513C828.173 305.357 826.062 304.202 819.376 305.743C817.616 306.385 813.886 308.67 813.042 312.676C811.986 317.683 831.34 315.757 832.396 314.987C833.452 314.216 835.563 311.135 834.859 310.365L834.859 310.364C834.155 309.594 832.396 307.668 830.285 306.513Z" stroke="#0A3C57" stroke-width="3" stroke-linecap="round" stroke-linejoin="round"/>
<path d="M365.285 306.513C363.173 305.357 361.062 304.202 354.376 305.743C352.616 306.385 348.886 308.67 348.042 312.676C346.986 317.683 366.34 315.757 367.396 314.987C368.452 314.216 370.563 311.135 369.859 310.365L369.859 310.364C369.155 309.594 367.396 307.668 365.285 306.513Z" stroke="#0A3C57" stroke-width="3" stroke-linecap="round" stroke-linejoin="round"/>
<g clip-path="url(#clip9_46_328)">
<path d="M409.66 279.89C415.09 279.88 417.54 269.33 411.43 263.59C405.32 257.84 392.41 269.34 396.53 274.18C400.65 279.02 406.76 279.9 409.66 279.89Z" fill="#B4E8D0" stroke="#015061" stroke-width="3" stroke-linecap="round" stroke-linejoin="round"/>
<path d="M410.33 315.96C410.33 315.96 419.4 281.85 397.05 270.98" stroke="#015061" stroke-width="3" stroke-linecap="round" stroke-linejoin="round"/>
<path d="M371.52 268.95C371.52 268.95 370.19 260.71 387.54 257.81C404.11 255.04 401.61 271.76 401.61 271.76C401.61 271.76 401.4 277.24 371.53 268.95H371.52Z" fill="#B4E8D0" stroke="#015061" stroke-width="3" stroke-linecap="round" stroke-linejoin="round"/>
<path d="M380.91 264.5C380.91 264.5 391.95 262.75 401.6 271.76Z" fill="#B4E8D0"/>
<path d="M380.91 264.5C380.91 264.5 391.95 262.75 401.6 271.76" stroke="#015061" stroke-width="3" stroke-linecap="round" stroke-linejoin="round"/>
<path d="M444.21 292C444.21 292 444.81 283.68 427.28 282.32C410.53 281.02 414.5 297.45 414.5 297.45C414.5 297.45 415.19 302.89 444.21 292Z" fill="#B4E8D0" stroke="#015061" stroke-width="3" stroke-linecap="round" stroke-linejoin="round"/>
<path d="M434.46 288.4C434.46 288.4 423.31 287.63 414.49 297.45Z" fill="#B4E8D0"/>
<path d="M434.46 288.4C434.46 288.4 423.31 287.63 414.49 297.45" stroke="#015061" stroke-width="3" stroke-linecap="round" stroke-linejoin="round"/>
<path d="M394.45 269.71C389.23 268.85 386.38 277.93 391.98 284.07C397.58 290.21 410.53 281.95 406.8 276.94C403.07 271.93 397.24 270.17 394.45 269.71Z" fill="#B4E8D0" stroke="#015061" stroke-width="3" stroke-linecap="round" stroke-linejoin="round"/>
<path d="M409.04 267.61C409.04 267.61 407.01 267.04 404.6 273.71Z" fill="#B4E8D0"/>
<path d="M409.04 267.61C409.04 267.61 407.01 267.04 404.6 273.71" stroke="#015061" stroke-width="3" stroke-linecap="round" stroke-linejoin="round"/>
<path d="M401.55 272.51C401.55 272.51 399.6 271.72 396.46 278.08Z" fill="#B4E8D0"/>
<path d="M401.55 272.51C401.55 272.51 399.6 271.72 396.46 278.08" stroke="#015061" stroke-width="3" stroke-linecap="round" stroke-linejoin="round"/>
</g>
<defs>
<clipPath id="clip0_46_328">
<rect width="120" height="318" fill="white" transform="translate(1037)"/>
</clipPath>
<clipPath id="clip1_46_328">
<rect width="154.044" height="192.555" fill="white" transform="translate(0 159.159) rotate(-32.2318)"/>
</clipPath>
<clipPath id="clip2_46_328">
<rect width="71.38" height="26.93" fill="white" transform="translate(706 290)"/>
</clipPath>
<clipPath id="clip3_46_328">
<rect width="71.38" height="26.93" fill="white" transform="matrix(-1 0 0 1 530.38 290)"/>
</clipPath>
<clipPath id="clip4_46_328">
<rect width="71.38" height="26.93" fill="white" transform="translate(249 290)"/>
</clipPath>
<clipPath id="clip5_46_328">
<rect width="87" height="106" fill="white" transform="translate(545 181)"/>
</clipPath>
<clipPath id="clip6_46_328">
<rect width="71.38" height="54.08" fill="white" transform="matrix(-1 0 0 1 714.38 265)"/>
</clipPath>
<clipPath id="clip7_46_328">
<rect width="108.64" height="132.43" fill="white" transform="translate(1082 184)"/>
</clipPath>
<clipPath id="clip8_46_328">
<rect width="135.712" height="165.43" fill="white" transform="matrix(-1 0 0 1 258.712 152)"/>
</clipPath>
<clipPath id="clip9_46_328">
<rect width="75.71" height="61.46" fill="white" transform="translate(370 256)"/>
</clipPath>
</defs>
</svg>
