<svg width="743" height="721" viewBox="0 0 743 721" fill="none" xmlns="http://www.w3.org/2000/svg">
<g clip-path="url(#clip0_30_307)">
<path d="M171.764 460.617C168.351 471.045 161.986 490.664 168.044 500.519C172.709 508.036 181.599 511.214 189.841 513.04C190.045 513.69 190.262 514.318 190.412 514.981C191.807 520.088 192.303 525.386 192.732 530.643C193.247 536.24 192.545 541.824 191.482 547.329C188.883 539.437 184.629 532.044 179.967 525.209C173.091 515.866 160.424 513.498 149.461 514.394C147.416 514.555 145.362 514.832 143.316 515.068C139.924 515.155 139.908 517.548 140.953 520.089C143.864 528.015 149.71 534.358 154.661 541.062C158.795 546.419 163.651 551.631 170.302 553.691C176.565 555.491 183.492 556.173 189.905 554.691C189.817 555.092 189.73 555.494 189.643 555.895C186.585 569.21 182.064 582.215 176.113 594.522C176.116 594.237 176.137 593.947 176.123 593.666C175.612 584.883 172.377 576.357 167.686 568.961C158.815 555.062 152.742 553.708 137.133 551.482C135.041 551.162 133.019 550.596 130.992 550.012C126.787 548.694 127.148 551.75 127.767 554.702C129.378 562.144 131.106 569.669 134.039 576.716C137.172 583.504 141.693 589.787 147.479 594.553C150.78 597.163 154.627 598.934 158.508 600.467C162.656 602.085 167.083 603.081 171.538 603.293C166.181 612.793 160.078 621.896 153.563 630.649C150.482 634.563 147.365 638.486 144.293 642.436C144.337 642.311 144.399 642.181 144.443 642.056C145.5 639.056 146.481 636.056 147.31 632.981C150.43 620.807 148.105 609.072 140.295 599.19C135.833 593.366 129.065 590.102 122.68 586.855C119.831 585.722 105.065 577.573 103.7 581.448C103.353 582.542 103.781 583.704 103.84 584.827C104.188 587.905 104.741 590.969 105 594.071C105.354 598.513 105.667 602.947 106.222 607.357C107.056 615.622 109.294 623.662 112.702 631.233C115.324 637.431 120.418 642.088 126.21 645.316C127.253 646.132 134.204 649.444 138.29 649.996C138.308 650.067 138.322 650.121 138.358 650.187C130.691 660.447 123.636 671.101 118.208 682.706C119.412 671.57 119.543 659.873 112.249 650.826C106.137 643.735 99.4933 636.343 90.491 633.023C87.1783 631.932 83.2415 630.849 79.9045 632.344C75.7284 634.64 78.9134 653.249 80.0071 657.617C81.8456 666.1 83.5171 675.119 89.8847 681.5C95.4284 688.072 102.543 694.927 111.739 694.69C112.305 694.678 112.889 694.662 113.464 694.611C109.759 705.758 104.877 723.748 108.964 727.58C109.782 728.036 110.859 727.799 111.239 726.906C111.543 726.013 111.347 725.02 111.53 724.101C111.85 720.89 112.63 717.771 113.387 714.638C114.896 708.944 116.582 703.28 118.564 697.73C119.994 699.395 121.845 700.782 123.496 702.125C128.145 705.853 133.396 708.669 138.809 711.083C142.697 713.013 146.981 714.122 151.31 714.214C156.776 714.225 161.994 712.517 167.144 710.844C174.036 708.634 180.998 706.329 187.146 702.392C188.613 701.298 190.669 700.66 191.625 699.051C192.34 696.423 189.226 694.921 187.681 693.323C183.269 689.63 178.591 686.232 173.842 683.004C164.375 676.369 151.444 676.762 141.053 680.945C136.255 682.888 132.016 685.902 127.556 688.499C125.14 689.664 122.769 690.932 120.556 692.444C122.417 687.759 124.527 683.163 126.942 678.717C131.464 670.112 136.707 661.949 142.294 654.021C142.361 654.061 142.432 654.118 142.499 654.158C149.46 658.624 157.486 661.018 165.449 663.01C172.196 664.629 179.215 665.894 186.141 664.642C193.92 663.381 201.059 659.837 208.223 656.684C212.468 654.806 216.609 652.671 220.49 650.108C221.813 649.05 223.888 648.332 224.706 646.853C226.448 642.597 207.88 634.412 204.294 632.177C191.874 625.043 182.822 623.613 169.37 629.182C163.9 631.315 159.046 634.524 154.29 637.898C155.314 636.556 156.343 635.232 157.367 633.89C164.054 624.771 170.284 615.276 175.751 605.387C179.672 607.005 183.55 608.824 187.709 609.737C195.399 611.779 203.402 610.803 210.818 608.193C219.166 605.668 226.469 600.831 233.558 595.895C237.216 593.427 240.748 590.764 244.178 587.994C245.28 587.106 246.359 586.205 247.465 585.336C248.412 584.734 248.643 583.556 247.997 582.659C243.013 577.613 236.617 573.799 229.932 571.463C222.187 569.13 213.399 568.809 205.771 571.776C198.144 575.047 189.482 582.146 183.144 589.507C187.457 578.888 190.779 567.876 193.204 556.695C193.413 555.656 193.618 554.598 193.823 553.541C193.823 553.541 193.823 553.541 193.841 553.536C200.289 556.066 207.618 554.977 214.123 553.035C223.283 550.645 231.29 544.698 236.163 536.573C239.16 531.959 242.019 527.248 244.682 522.436C245.317 520.908 247.298 519.152 246.127 517.459C240.283 512.689 231.701 510.646 224.491 513.317C219.24 515.413 213.959 517.84 209.682 521.603C203.664 526.797 200.755 534.289 197.563 541.342C196.675 543.218 195.854 545.134 194.966 547.01C195.534 543.281 195.963 539.53 195.996 535.786C195.609 527.862 194.668 519.776 191.978 512.269C192.173 511.991 192.368 511.714 192.545 511.441C193.869 509.416 195.157 507.324 196.302 505.193C197.788 502.463 199.108 499.604 199.732 496.544C201.691 488.895 199.546 480.622 194.393 474.69C189.582 468.538 182.633 464.638 176.181 460.459C174.393 459.246 172.665 457.676 171.653 460.627L171.764 460.617Z" fill="#ABE0F7"/>
</g>
<path d="M467.239 160.135C467.239 160.135 420.887 148.242 454.818 72C454.818 72 511.882 127.514 467.239 160.135Z" fill="#B4E8D0" stroke="#015061" stroke-width="4.82278" stroke-linecap="round" stroke-linejoin="round"/>
<path d="M516.887 216.273C516.887 216.273 500.13 237.098 489.638 228.726C474.205 216.393 490.958 193.7 490.958 193.7L516.905 216.284L516.887 216.273Z" fill="#ABE0F7" stroke="#015061" stroke-width="4.82278" stroke-linecap="round" stroke-linejoin="round"/>
<path d="M422.825 155.88C422.825 155.88 411.701 180.184 423.884 185.82C441.82 194.103 454.616 168.965 454.616 168.965L422.808 155.869L422.825 155.88Z" fill="#ABE0F7" stroke="#015061" stroke-width="4.82278" stroke-linecap="round" stroke-linejoin="round"/>
<path d="M557.075 218.878C557.075 218.878 514.753 196.688 565.586 130.274C565.586 130.274 608.126 197.359 557.075 218.878Z" fill="#B4E8D0" stroke="#015061" stroke-width="4.82278" stroke-linecap="round" stroke-linejoin="round"/>
<path d="M390.269 190.81C390.269 190.81 364.734 151.408 370.116 146.85C377.822 140.378 417.319 162.752 417.319 162.752L390.269 190.81Z" fill="#B4E8D0" stroke="#015061" stroke-width="5.6547" stroke-linecap="round" stroke-linejoin="round"/>
<path d="M435.741 267.848C469.263 288.558 508.046 286.557 522.365 263.379C536.684 240.202 521.117 204.624 487.595 183.914C454.073 163.205 415.291 165.205 400.972 188.383C386.653 211.561 402.22 247.138 435.741 267.848Z" fill="#ABE0F7" stroke="#015061" stroke-width="4.82278" stroke-linecap="round" stroke-linejoin="round"/>
<path d="M484.367 251.622C484.367 251.622 487.981 298.435 495.031 298.766C505.067 299.243 522.91 257.499 522.91 257.499L484.383 251.612L484.367 251.622Z" fill="#B4E8D0" stroke="#015061" stroke-width="5.6547" stroke-linecap="round" stroke-linejoin="round"/>
<path d="M551.71 229.833C547.827 249.872 532.927 267.253 515.679 270.614C494.756 274.701 467.087 264.432 444.969 251.038C427.501 240.442 401.123 219.433 394.434 193.942C390.857 180.317 398.488 160.63 416.512 146.603C445.816 123.808 474.282 113.851 514.39 138.629C554.498 163.408 558.73 193.394 551.692 229.822L551.71 229.833Z" fill="#B4E8D0" stroke="#015061" stroke-width="4.82278" stroke-linecap="round" stroke-linejoin="round"/>
<path d="M422.909 196.608C431.513 201.924 442.783 199.281 448.082 190.705C453.38 182.128 450.7 170.866 442.096 165.551C433.491 160.235 422.221 162.878 416.922 171.454C411.624 180.031 414.304 191.293 422.909 196.608Z" fill="white" stroke="#015061" stroke-width="3.21519" stroke-linecap="round" stroke-linejoin="round"/>
<path d="M428.103 192.625C435.123 196.961 444.317 194.805 448.639 187.809C452.962 180.812 450.775 171.625 443.756 167.288C436.737 162.952 427.542 165.108 423.22 172.105C418.898 179.101 421.084 188.288 428.103 192.625Z" fill="#015061"/>
<path d="M498.742 145.519C498.742 145.519 540.422 129.332 496.179 79.0421C496.179 79.0421 451.486 128.872 498.746 145.538L498.742 145.519Z" fill="#ABE0F7" stroke="#015061" stroke-width="4.82278" stroke-linecap="round" stroke-linejoin="round"/>
<path d="M504.254 246.25C512.613 251.413 523.561 248.846 528.708 240.515C533.854 232.184 531.251 221.244 522.893 216.08C514.534 210.917 503.586 213.484 498.439 221.815C493.293 230.146 495.896 241.086 504.254 246.25Z" fill="white" stroke="#015061" stroke-width="3.21519" stroke-linecap="round" stroke-linejoin="round"/>
<path d="M505.411 239.673C512.233 243.888 521.17 241.792 525.371 234.992C529.572 228.192 527.447 219.262 520.625 215.047C513.802 210.832 504.866 212.928 500.665 219.728C496.463 226.529 498.588 235.458 505.411 239.673Z" fill="#015061"/>
<path d="M453.199 219.298C453.199 219.298 456.813 231.228 468.404 228.692" stroke="#015061" stroke-width="4.82278" stroke-linecap="round" stroke-linejoin="round"/>
<path d="M511.867 153.644C511.867 153.644 507.705 109.137 572.476 126.178C572.476 126.178 547.913 188.444 511.867 153.644Z" fill="#ABE0F7" stroke="#015061" stroke-width="4.82278" stroke-linecap="round" stroke-linejoin="round"/>
<path d="M506.125 151.469C506.125 151.469 560.287 160.165 544.407 81.8332C544.407 81.8332 466.292 105.745 506.125 151.469Z" fill="#ABE0F7" stroke="#015061" stroke-width="4.82278" stroke-linecap="round" stroke-linejoin="round"/>
<g clip-path="url(#clip1_30_307)">
<path d="M541.002 499.347C541.134 503.33 540.437 507.336 541.539 511.248C542.986 517.252 545.869 522.752 549.068 527.983C551.318 531.793 554.279 535.195 558.066 537.518C559.87 538.718 561.712 539.937 563.847 540.452C564.6 543.538 565.664 546.611 566.257 549.737C566.892 553.213 568.015 556.549 568.941 559.953C569.314 561.166 569.378 562.629 569.938 563.792C566.786 570.46 563.862 577.239 561.202 584.099C556.06 597.692 551.941 611.686 548.501 625.821C547.591 622.189 546.117 618.66 544.035 615.518C543.565 614.846 543.067 614.183 542.542 613.577C542.925 612.494 543.345 611.383 543.671 610.273C544.942 604.69 545.033 598.843 544.842 593.141C544.669 591.273 544.12 589.459 543.496 587.702C542.512 584.997 541.622 582.243 540.282 579.695C538.289 575.258 534.644 572.98 530.345 571.138C525.892 569.034 521.456 566.749 517.705 563.482C507.652 554.729 503.153 553.494 505.051 568.869C505.97 574.031 506.278 579.344 507.949 584.352C509.809 589.5 512.629 594.453 516.435 598.381C519.617 601.374 523.143 603.993 527.131 605.802C530.693 607.476 534.1 609.521 537.247 611.91C538.083 612.502 538.853 613.132 539.596 613.82C539.691 613.866 539.739 613.912 539.702 614.035C539.817 614.912 540.549 615.524 540.926 616.293C542.464 618.867 543.834 621.547 544.828 624.375C545.229 625.578 545.479 626.849 545.983 628.031C546.371 628.923 546.871 629.775 547.38 630.607C547.246 631.176 547.102 631.764 546.958 632.352C545.235 640.368 544.4 648.532 543.555 656.667C543.082 663.644 543.137 670.642 542.674 677.601C542.323 682.923 542.132 688.253 542.054 693.591C541.378 692.137 540.682 690.721 540.062 689.295C538.549 686.381 536.577 683.785 534.951 680.958C534.384 680.003 533.372 678.857 533.378 677.78C533.386 676.892 534.223 675.982 534.486 675.147C534.93 673.695 535.233 672.198 535.441 670.703C535.823 667.93 535.715 665.202 535.776 662.415C535.915 657.482 534.173 652.862 532.012 648.531C528.726 640.818 523.55 633.341 515.762 629.672C513.081 628.447 510.181 627.774 507.327 627.052C503.538 626.09 500.003 624.311 496.177 623.425C492.614 622.525 488.878 622.082 485.507 620.594C479.678 620.031 486.991 632.131 488.177 634.418C489.697 637.077 491.021 639.852 491.838 642.806C492.703 645.805 493.934 648.677 494.911 651.637C496.442 656.742 498.544 661.631 501.527 666.053C503.362 669.028 505.291 672.05 508.254 673.997C513.571 677.458 519.78 679.848 526.193 679.684C527.927 679.676 529.67 679.697 531.386 679.822C531.903 680.494 532.485 681.175 532.851 681.821C534.299 683.952 535.71 686.113 537.008 688.359C538.59 691.471 539.863 694.738 541.249 697.919C541.531 698.689 541.776 699.488 542.011 700.259C542.033 705.199 542.129 710.127 542.348 715.045C543.14 723.854 544.648 732.586 545.121 741.429C545.515 749.177 547.169 756.783 548.664 764.382C549.125 766.718 549.539 769.054 549.944 771.409C548.363 769.988 546.503 768.854 544.756 767.681C542.809 766.389 540.983 764.943 539.064 763.641C539.045 763.632 538.875 763.549 538.865 763.521C539.095 763.045 539.352 762.512 539.487 761.991C542.384 753.673 534.898 737.382 529.07 731.35C525.439 727.835 520.512 726.324 515.614 725.576C512.329 725.022 509.179 723.946 505.93 723.221C502.55 722.621 499.102 722.645 495.722 722.045C493.796 721.725 491.916 721.262 489.981 720.961C487.716 720.618 485.452 720.369 483.206 720.035C481.675 719.671 480.095 719.893 479.55 721.602C478.596 725.271 480.626 728.858 481.731 732.279C485.627 742.986 493.001 752.206 501.549 759.575C503.546 761.197 505.517 762.924 507.839 764.069C510.378 765.296 513.118 765.962 515.83 766.639C519.197 767.702 522.662 768.32 526.168 767.691C528.097 767.519 529.965 766.896 531.895 766.772C533.543 766.747 535.213 766.92 536.86 766.848C537.21 766.899 537.548 766.875 537.857 766.672C537.922 766.586 538.007 766.604 538.065 766.725C538.464 767.012 538.863 767.299 539.262 767.586C543.037 770.513 547.983 772.128 550.726 776.129C551.572 780.763 552.569 785.375 554.167 789.809C555.153 792.703 556.129 795.569 557.256 798.413C557.7 799.285 557.771 800.493 558.626 801.094C559.327 801.48 560.184 801.4 560.732 800.75C561.42 799.955 560.974 798.942 560.644 798.078C560.087 796.472 559.475 794.885 558.919 793.278C557.835 790.102 556.78 786.917 555.95 783.652C555.058 779.982 554.477 776.251 553.839 772.539C552.748 765.605 551.328 758.722 550.257 751.797C549.586 747.717 549.311 743.594 549.045 739.452C549.425 738.908 549.727 738.232 550.043 737.822C550.773 736.602 551.511 735.362 552.26 734.152C554.505 730.424 557.025 726.854 559.146 723.044C562.744 723.726 566.423 724.142 569.968 725.127C574.296 726.279 579.157 725.459 582.973 723.172C587.735 720.379 589.679 715.051 591.731 710.222C593.795 705.515 595.735 700.726 596.862 695.684C598.139 688.25 599.03 680.747 600.638 673.403C599.801 669.524 595.867 673.891 594.175 674.928C591.896 676.643 589.445 678.088 587.004 679.561C583.852 681.488 580.449 682.919 577.066 684.406C573.609 685.998 570.229 687.769 566.781 689.389C563.838 690.596 561.061 692.423 559.798 695.474C557.617 699.842 556.346 704.65 556.14 709.527C555.895 712.694 556.329 715.861 557.147 718.909C557.24 719.587 557.758 720.401 557.21 721.005C554.138 725.717 551.474 730.65 548.81 735.583C548.661 733.328 548.483 731.083 548.212 728.839C547.667 723.436 546.736 718.057 546.624 712.628C546.305 702.404 546.409 692.174 547.06 681.973C547.569 674.919 547.72 667.833 548.135 660.781C548.472 660.568 548.799 660.327 549.117 660.153C550.827 658.984 552.671 657.926 554.18 656.496C554.31 656.371 554.235 656.382 554.386 656.408C556.247 656.814 558.171 656.992 560.032 657.446C572.238 660.292 581.733 657.04 591.172 649.066C597.252 643.789 602.072 637.198 608.028 631.837C608.551 631.433 609.092 631.037 609.711 630.773C610.783 630.634 611.581 629.564 611.079 628.523C610.75 627.801 609.938 627.643 609.221 627.626C608.344 627.554 607.449 627.521 606.573 627.496C602.302 627.287 598.04 627.692 593.772 627.672C590.974 627.705 588.159 627.824 585.351 627.781C582.222 627.725 579.071 627.376 575.95 627.887C569.851 629.189 564.042 632.696 560.23 637.684C557.508 641.674 556.245 646.415 554.537 650.871C553.519 654.041 550.849 656.037 548.29 657.946C548.498 654.854 548.772 651.771 549.207 648.695C550.697 634.628 554.689 620.995 558.56 607.42C560.805 599.774 563.41 592.254 566.261 584.853C568.325 584.935 570.451 583.92 571.885 582.453C575.767 584.094 579.282 586.591 583.293 587.965C586.442 588.9 589.623 590.202 592.956 590.075C596.598 589.746 600 588.268 603.513 587.384C606.63 586.496 609.418 584.838 612.081 583.003C618.091 579.03 623.413 574.16 629.05 569.701C630.169 568.787 631.203 567.761 632.246 566.763C632.841 566.111 633.617 565.571 633.927 564.735C634.425 563.027 632.879 562.163 631.392 562.242C628.431 562.032 625.472 561.964 622.511 561.707C618.843 561.46 615.415 559.992 611.963 558.864C609.56 557.984 607.057 557.503 604.511 557.258C601.039 556.849 597.454 556.431 594.047 557.484C589.545 559.158 585.413 561.856 581.9 565.159C579.13 568.28 576.836 571.819 574.247 575.098C572.251 577.584 570.43 581.304 567.267 582.287C574.447 564.233 583.397 546.87 593.667 530.355C595.494 529.524 597.409 528.947 599.324 528.323C602.017 527.489 604.78 526.899 607.484 526.14C609.653 525.474 612.022 525.07 613.832 523.597C614.9 524.676 615.893 525.814 616.933 526.903C619.012 529.034 621.696 530.495 624.442 531.634C627.557 532.975 630.998 533.98 634.37 533.097C641.335 531.017 647.066 526.463 652.254 521.482C654.928 519.042 657.574 516.565 660.201 514.079C660.741 513.542 661.395 513.013 661.659 512.272C662.259 509.675 659.153 509.911 657.476 509.899C654.556 509.943 651.625 509.865 648.721 509.635C642.793 509.471 637.23 506.713 631.281 507.077C623.54 507.374 618.894 509.636 615.257 516.681C613.996 518.419 613.064 520.785 610.973 521.629C605.962 523.292 600.881 524.663 595.969 526.655C597.874 523.68 599.798 520.713 601.779 517.774C610.115 505.794 618.593 493.811 628.288 482.887C631.292 482.719 634.363 482.7 637.344 483.061C640.591 483.597 643.799 484.795 647.141 484.603C647.154 484.867 647.281 485.28 647.454 485.552C648.817 488.44 651.69 489.992 654.475 491.291C660.447 495.139 667.756 493.412 673.702 490.394C677.897 488.243 681.909 485.745 685.863 483.172C686.993 482.333 688.438 481.811 689.291 480.674C689.836 479.74 689.2 478.588 688.19 478.405C685.724 477.848 683.189 477.726 680.713 477.14C678.551 476.682 676.533 475.73 674.424 475.111C670.125 474.043 665.66 473.27 661.232 473.29C658.012 473.472 654.987 474.944 652.447 476.862C650.672 478.117 649.469 479.93 648.303 481.714C645.081 482.433 641.803 480.944 638.614 480.529C635.942 480.013 633.212 480.243 630.52 480.398C631.859 478.932 633.236 477.485 634.632 476.047C641.683 469.243 649.631 463.484 657.312 457.407C657.359 457.359 657.396 457.33 657.461 457.292C659.299 457.311 661.137 457.377 662.948 457.595C666.902 458.121 670.678 459.593 674.677 459.929L674.894 459.964C675.487 460.767 676.137 461.503 676.861 462.182C678.548 463.818 680.764 464.795 682.904 465.688C684.797 466.462 686.792 467.074 688.846 467.08C695.196 467.097 700.51 463.163 705.681 459.958C707.021 459.314 708.417 457.923 706.951 456.604C706.068 456.061 705.038 455.774 704.109 455.325C701.003 453.965 698.089 452.159 694.881 450.961C693.196 450.287 691.427 449.644 689.574 449.851C688.012 450.036 686.58 450.823 685.185 451.533C682.731 452.789 680.384 454.213 678.151 455.834C677.451 456.317 676.808 456.969 676.012 457.312C673.199 456.844 670.385 456.33 667.58 455.749C665.181 455.2 662.729 455.049 660.28 455.039C664.413 451.661 668.393 448.115 672.919 445.279C674.594 444.28 676.316 443.329 678.086 442.471C678.504 442.719 679.097 442.653 679.393 442.233C682.309 443.407 685.489 443.841 688.441 444.939C693.348 447.216 698.442 444.56 702.612 441.927C706.501 439.441 709.813 435.924 711.96 431.821C714.198 426.752 713.913 421.052 715.15 415.735C716.559 410.689 715.613 408.729 710.194 410.172C706.607 411.114 703.138 412.584 699.442 413.122C691.986 414.331 681.042 416.179 679.907 425.301C679.668 427.392 679.938 429.494 679.756 431.565C679.598 433.343 679.119 435.06 678.782 436.821C678.595 437.693 678.445 438.583 678.258 439.455C678.032 439.534 677.807 439.613 677.592 439.72C667.345 443.9 659.452 451.963 650.53 458.285C649.325 459.182 648.102 460.069 646.897 460.966C647.054 460.643 647.172 460.301 647.347 459.986C649.171 456.502 651.821 453.534 653.939 450.215C655.881 447.163 658.05 444.221 659.433 440.875C661.727 435.013 662.176 428.376 660.418 422.339C659.905 420.448 659.433 415.62 657.549 414.827C655.913 414.342 655.077 416.121 654.394 417.293C653.728 418.332 653.129 419.428 652.511 420.514C651.276 422.828 649.746 424.929 647.922 426.817C642.532 432.264 638.626 439.671 639.247 447.482C639.647 451.783 642.301 454.708 643.525 458.609C644.475 461.626 642.387 464.35 640.054 466.18C637.123 468.472 634.184 470.831 631.558 473.459C624.361 480.614 617.831 488.421 611.653 496.514C611.263 492.195 610.276 487.704 607.476 484.309C607.151 483.917 606.788 483.555 606.417 483.211C606.322 483.118 606.368 483.07 606.432 482.937C606.842 481.75 607.28 480.553 607.709 479.375C609.632 474.718 610.505 469.765 610.927 464.782C612.183 455.554 604.724 448.64 599.809 441.783C597.442 438.457 594.823 435.314 592.522 431.948C591.984 431.078 591.465 430.217 590.993 429.308C590.329 428.166 589.847 426.407 588.328 426.213C586.566 426.183 586.421 428.273 586.38 429.615C586.247 432.696 586.699 435.777 586.604 438.877C586.681 443.749 584.615 448.267 584.022 453.026C583.36 460.734 586.848 468.029 591.833 473.676C593.783 476.027 595.649 478.454 597.887 480.545C599.851 482.432 602.176 483.908 604.223 485.719C606.414 487.716 607.306 490.659 608.074 493.424C608.718 495.284 608.454 497.621 609.557 499.257C606.886 502.802 604.263 506.393 601.677 510.002C590.194 525.884 580.07 542.774 571.509 560.396C571.398 559.755 571.286 559.115 571.091 558.504C570.352 555.002 569.331 551.598 568.621 548.086C567.813 545.161 566.706 542.326 565.814 539.43C566.253 539.103 566.302 538.516 566.599 538.096C567.792 536.255 569.1 534.516 569.999 532.51C572.157 527.849 574.934 522.877 574.249 517.57C573.069 511.883 570.565 506.519 567.361 501.684C564.786 497.483 561.941 493.503 558.284 490.187C556.758 488.652 555.083 487.232 553.103 486.346C550.432 485.149 547.552 484.532 544.908 483.278C543.79 482.738 542.709 482.122 541.702 481.401C540.657 480.661 539.101 481.365 539.126 482.668C539.494 488.244 540.615 493.761 540.908 499.348L541.002 499.347Z" fill="#B4E8D0"/>
</g>
<g clip-path="url(#clip2_30_307)">
<path d="M7.68451 441.188C8.19799 445.087 8.49899 449.191 10.0571 452.656C14.2357 462.301 23.195 464.353 30.242 469.05C33.9957 471.444 37.1828 474.978 40.423 478.329C40.423 478.854 40.5115 479.401 40.6178 479.902C40.8833 481.316 41.2021 482.684 41.5031 484.098C43.3622 492.944 44.7256 501.95 46.1066 510.956C46.9919 516.679 47.8949 522.379 48.7802 528.079C47.4523 524.636 45.965 521.308 44.2652 518.184C35.6069 504.595 19.4413 500.765 6.42738 501.084C-4.72743 503.067 0.74374 521.08 6.99397 526.711C12.3589 533.141 19.7246 534.395 26.7185 535.17C34.4915 536.036 41.6624 538.294 49.577 538.134C50.4977 544.381 53.1536 556.602 54.1098 565.243C54.818 571.673 55.3846 578.148 55.8981 584.669C55.3138 583.119 54.6587 581.614 53.9681 580.155C49.2937 570.829 41.0781 565.608 32.8625 563.283C27.0372 561.595 20.5568 560.752 15.0679 564.4C8.09175 569.302 9.43741 582.754 15.1919 588.363C21.1765 594.108 29.0734 594.428 36.2267 593.538C42.2821 593.128 48.3907 591.92 54.4285 593.014C55.1898 593.151 55.9512 593.424 56.5355 594.108C57.527 609.042 58.253 624.045 59.0852 638.888C59.0852 639.367 59.1383 639.823 59.156 640.301C58.0759 638.569 56.9073 636.927 55.721 635.308C48.6563 625.299 39.0242 616.111 27.9756 617.547C20.7516 619.166 13.3504 623.338 8.42816 630.543C-1.55805 647.734 12.837 655.486 24.7177 654.301C36.2444 653.959 46.9565 646.549 58.5363 646.982C58.9966 647.894 59.3153 648.943 59.5809 649.992C60.0236 659.112 60.5194 668.209 60.7318 677.329C61.1037 686.358 61.0328 695.387 60.8912 704.415C60.8027 704.347 60.7318 704.279 60.6433 704.21C60.5194 704.119 60.5725 704.21 60.5371 703.959C59.7049 699.263 58.0759 694.839 55.42 691.397C44.9734 676.873 23.6908 667.274 9.68529 678.127C4.1433 683.348 3.70065 694.771 8.26881 701.155C12.6953 707.63 20.0433 708.451 26.3467 708.223C33.1281 707.904 39.7679 705.464 46.5493 705.305C49.577 705.236 54.3399 704.233 57.1198 706.171C59.7403 707.995 60.785 710.64 60.7141 714.174C60.6079 718.894 61.0328 723.727 60.7318 728.424C60.6433 729.746 61.3692 730.955 62.4316 730.978C63.4054 730.978 64.1137 729.997 64.1668 728.789C64.3085 725.642 64.2199 722.473 64.3262 719.304C64.4855 714.539 63.0336 707.995 67.4778 706.353C73.9405 703.959 79.5534 701.315 85.3078 696.663C88.6897 694.064 92.1246 691.511 95.1878 688.319C100.783 681.912 106.714 675.414 110.185 666.704C112.628 660.867 114.381 653.298 111.407 647.256C108.255 639.595 100.057 640.438 94.692 643.334C91.0092 645.363 88.3179 649.308 85.8567 653.252C82.1384 659.089 79.7481 665.974 77.4286 672.837C74.8258 679.791 72.5063 687.019 68.8235 693.175C67.531 695.318 66.3269 697.644 64.875 699.627C65.1052 685.263 64.9105 670.876 64.096 656.512C63.972 654.301 63.7064 651.542 64.1491 649.216C64.7511 645.933 65.8489 645.888 68.0798 644.953C73.4979 642.673 78.6149 639.025 83.6435 635.605C89.4333 631.227 95.6127 627.305 100.34 621.035C102.872 617.661 105.227 613.967 106.998 609.863C109.654 603.479 110.096 594.45 105.723 589.161C100.694 582.777 92.5142 584.943 87.3263 589.89C74.4186 601.952 72.2408 624.022 63.9366 640.438C63.7419 640.803 63.5471 641.168 63.37 641.533C62.7326 628.286 62.0244 615.062 61.0151 601.838C60.6079 595.408 60.0767 589.024 59.4747 582.663C59.6163 582.572 59.758 582.458 59.8996 582.366C60.1475 582.184 60.0944 582.093 60.2715 582.252C69.3193 586.904 81.926 580.725 89.1323 573.201C95.8606 565.654 102.925 556.99 104.714 545.27C105.351 540.026 105.121 533.756 102.217 529.652C96.8168 523.679 88.6543 525.206 83.2716 530.45C79.2524 533.893 76.6496 539.251 74.2592 544.541C68.5933 555.029 66.9467 570.67 59.0143 578.627C57.3677 562.348 55.1721 546.205 52.4277 530.086C52.2329 528.809 52.0382 527.532 51.8257 526.255C52.41 526.734 53.2068 526.574 53.8265 526.141C55.0836 525.503 56.3053 524.773 57.4739 523.907C62.7857 520.236 67.2831 515.06 71.4086 509.474C75.6049 503.387 80.5095 497.459 82.6519 489.615C84.4579 481.521 84.9006 472.242 82.0322 464.49C77.7296 454.982 70.3816 458.174 65.1938 464.49C60.8381 469.87 57.6156 476.961 56.1283 484.508C55.243 489.524 55.721 494.677 55.5971 499.761C55.4554 504.641 55.1013 509.611 53.915 514.262C53.2422 516.748 52.1975 519.05 51.0289 521.216C49.5947 512.005 48.1605 502.794 46.6378 493.605C45.7702 488.886 44.9912 484.052 43.8226 479.446C43.8934 479.241 43.9465 479.013 43.9111 478.74C44.5662 476.232 44.6016 473.427 44.8849 470.76C47.2575 451.288 45.8587 437.654 35.6601 422.195C31.0211 414.261 21.6369 406.851 14.342 413.691C8.60523 420.371 6.4805 431.566 7.68451 441.188Z" fill="#B4E8D0"/>
</g>
<g clip-path="url(#clip3_30_307)">
<path d="M490.522 466.258C491.284 462.5 493.125 456.077 489.49 453.349C485.854 451.716 482.917 456.14 481.964 459.138C481.853 459.471 481.742 459.804 481.647 460.153C481.599 460.327 481.615 460.232 481.568 460.105C481.504 459.883 481.441 459.645 481.361 459.423C480.361 454.792 475.455 452.175 472.471 456.87C470.248 461.247 471.756 466.433 473.249 470.889C470.724 472.015 468.549 473.807 466.486 475.631C457.849 483.291 453.261 492.203 449.245 502.813C447.244 508.015 445.085 513.28 444.498 518.878C443.72 526.76 444.926 534.769 446.641 542.476C447.736 546.949 449.435 551.849 451.356 555.719C448.324 553.261 445.403 550.644 442.132 548.519C439.1 546.536 435.401 544.903 431.718 545.712C424.018 547.964 428.939 555.703 433.528 558.478C439.29 562.157 446.371 562.395 453.007 562.427C453.134 562.824 453.325 563.172 453.531 563.521C451.975 565.853 450.435 568.2 448.959 570.579C446.26 574.829 444.212 579.412 442.227 584.043C440.322 576.843 438.068 569.548 433.178 563.839C430.035 559.921 423.081 557.336 419.573 562.126C416.636 566.582 419.239 572.053 421.859 576.002C425.701 581.886 430.162 587.675 436.226 591.386C436.941 591.845 437.719 592.226 438.513 592.543C438.481 592.607 438.449 592.686 438.417 592.765C434.258 601.202 431.273 610.099 429.432 619.313C427.685 626.83 425.51 634.237 423.907 641.77C423.161 639.137 422.224 636.552 421.668 633.888C420.811 630.526 420.113 627.084 418.684 623.912C417.334 621.01 415.636 618.282 414 615.539C414.254 615.158 414.35 614.682 414.127 614.238C415.001 613.128 416.08 612.177 417.049 611.146C422.065 605.421 426.098 598.205 426.495 590.482C426.399 587.262 425.304 583.805 422.51 581.934C419.176 579.571 414.381 581.014 412.476 584.503C410 588.785 408.873 599.886 409.762 608.069C409.142 606.991 408.507 605.928 407.825 604.897C403.999 599.363 399.22 594.526 394.695 589.546C392.902 587.579 391.028 585.692 389.044 583.916C388.012 582.98 386.821 582.187 385.805 581.236C383.773 579.317 385.98 577.62 387.123 575.606C388.71 572.799 389.726 569.643 389.901 566.408C389.901 557.4 384.964 558.811 381.693 563.616C381.376 561.84 380.868 560.096 380.201 558.415C377.804 550.961 373.009 544.316 366.262 540.24C360.737 536.72 353.784 534.071 347.275 536.18C345.782 536.72 344.322 537.402 342.941 538.226C341.512 534.182 339.194 528.457 335.431 526.649C330.923 524.889 329.795 530.725 330.843 533.928C331.161 534.531 330.288 533.643 330.002 533.548C327.351 531.518 322.508 531.708 323.286 536.054C324.001 538.607 325.763 540.764 327.509 542.698C327.557 542.778 327.605 542.746 327.446 542.73C321.032 541.684 318.174 548.804 324.683 551.215C327.017 551.897 329.716 552.008 332.177 551.373C331.415 555.624 332.558 560.239 334.256 564.092C337.463 570.563 342.337 576.288 348.322 580.348C352.418 583.075 357.006 585.66 362.055 585.692C364.293 585.756 366.484 585.486 368.643 584.994C367.691 585.898 366.834 586.882 366.214 587.992C364.389 592.702 368.564 596.001 373.073 594.795C375.089 594.319 376.724 592.876 378.153 591.465C380.423 589.118 382.535 585.978 382.678 582.631C382.82 582.742 382.979 582.853 383.106 582.98C386.853 586.073 390.187 589.625 393.489 593.162C396.743 596.667 400.046 600.171 403.062 603.898C399.871 602.36 396.569 601.186 393.013 600.615C387.202 599.775 375.787 598.284 372.088 603.835C370.818 606.785 371.152 610.686 373.168 613.239C375.216 616.157 378.978 616.665 382.281 616.998C389.853 617.918 397.839 617.077 404.491 613.096C405.602 612.415 406.634 611.637 407.65 610.829C408.619 612.541 409.555 614.286 410.539 615.983C412.365 619.281 414.508 622.437 415.985 625.911C417.747 630.541 418.461 635.474 420.017 640.168C420.113 640.485 420.224 640.802 420.319 641.119C420.351 641.199 420.351 641.199 420.319 641.151C419.97 640.739 419.605 640.342 419.255 639.946C416.541 636.647 413.318 633.856 409.396 632.08C405.554 630.05 401.284 627.925 396.839 628.955C390.631 630.066 389.329 636.251 391.631 641.389C393.14 644.814 396.315 647.558 399.887 648.668C403.268 649.747 406.872 649.683 410.381 649.762C414.366 649.715 418.541 650.238 422.415 649.128C422.478 649.16 422.526 649.128 422.605 649.16C421.24 657.502 420.255 665.939 419.874 674.407C418.636 671.22 416.429 668.682 413.127 666.51C408.984 663.798 404.348 661.371 399.379 660.721C394.584 660.039 391.949 664.115 391.616 668.397C391.139 672.806 393.473 676.992 396.807 679.752C403.3 684.414 411.825 685.921 419.763 685.128C419.874 690.79 420.255 696.435 421.033 702.034C422.145 708.235 422.78 714.657 424.685 720.652C425.336 722.444 427.733 722.428 427.939 720.541C427.939 720.145 427.796 719.732 427.527 719.447C427.368 719.288 427.415 719.368 427.352 719.272C427.273 718.987 427.209 718.686 427.161 718.384C426.209 711.93 425.336 705.475 424.653 698.989C424.177 693.565 424.034 688.141 424.081 682.717C429.273 683.653 434.337 681.195 438.957 679.086C445.974 675.771 457.532 667.334 456.309 658.58C454.992 651.84 446.244 652.379 441.688 655.456C437.163 658.136 433.385 661.926 429.86 665.796C427.987 667.953 426.082 670.221 424.447 672.615C425.209 660.626 427.082 648.684 429.765 636.964C429.956 637.059 430.162 637.17 430.352 637.266C444.291 643.466 464.184 635.014 466.184 619.107C467.375 612.779 461.612 607.942 455.531 608.767C453.102 609.068 450.832 609.988 448.673 611.082C443.529 613.493 439.465 617.553 435.798 621.787C434.702 623.119 433.575 624.483 432.512 625.911C432.512 625.879 432.512 625.863 432.527 625.831C433.909 620.376 434.814 614.793 436.353 609.385C437.719 604.406 439.719 599.616 441.704 594.859C441.767 594.7 441.831 594.526 441.91 594.351C442.323 594.652 442.751 594.922 443.148 595.223C444.926 596.46 446.879 597.46 448.959 598.094C454.531 599.902 460.516 598.268 465.549 595.636C469.185 593.796 474.979 590.133 474.582 585.518C472.931 579.174 464.406 580.459 459.484 581.442C454.23 582.441 449.689 585.438 444.831 587.484C444.768 587.5 444.72 587.516 444.656 587.532C446.276 583.408 447.911 579.285 449.864 575.305C451.578 572.006 453.563 568.866 455.531 565.71C456.024 566.154 456.532 566.598 457.04 567.01C458.961 568.485 460.834 570.055 462.945 571.245C468.946 574.115 478.869 575.209 484.505 571.149C487.505 569.12 486.219 564.901 483.822 562.935C481.377 560.778 478.17 559.747 475.059 559.081C473.026 558.684 470.963 558.446 468.899 558.335C470.836 557.114 473.074 555.544 474.868 553.895C486.727 542.968 493.332 527.632 497.126 512.218C498.793 504.907 500.206 497.342 499.206 489.841C498.38 485.226 497.491 480.23 494.776 476.313C496.888 475.425 499.507 473.141 500.301 472.396C501.333 471.428 502.238 470.35 503.095 469.224C504.079 467.844 505.27 466.306 505.048 464.514C503.238 458.582 493.649 463.895 490.585 466.258H490.522Z" fill="#ABE0F7"/>
</g>
<g clip-path="url(#clip4_30_307)">
<path d="M204.031 427.663C205.651 428.819 207.34 429.906 208.937 431.155C213.126 434.231 216.02 438.601 219.352 442.509C221.898 445.747 224.676 448.869 226.782 452.43C226.99 452.777 227.175 453.147 227.384 453.494C227.152 453.378 226.898 453.309 226.666 453.17C220.07 449.47 213.45 445.169 205.766 444.359C196.879 442.926 187.089 457.518 197.064 462.559C202.804 465.496 209.261 463.415 215.001 461.634C218.774 460.755 222.269 458.951 225.995 457.98C227.245 457.68 229.05 458.766 230.207 458.35C230.416 458.697 230.601 459.044 230.809 459.391C232.337 461.611 234.466 463.299 236.179 465.357C236.711 465.982 237.151 466.814 237.984 467.068C237.938 467.462 237.891 467.832 237.822 468.225C236.85 475.301 235.461 482.354 235.068 489.477C234.744 498.912 235.207 508.37 234.859 517.805C234.952 521.921 235.669 526.014 235.693 530.154C235.831 532.721 235.97 535.288 236.109 537.831C235.762 537.299 235.438 536.768 235.183 536.213C233.286 531.634 231.179 527.078 229.999 522.245C229.305 518.869 228.772 515.284 226.18 512.764C224.375 510.474 221.713 509.133 219.746 507.005C217.177 504.462 215.811 501.039 213.705 498.125C215.672 498.865 217.385 495.119 218.565 493.894C221.088 490.656 223.75 486.794 222.94 482.47C222.685 480.597 222.06 478.33 220.07 477.613C216.274 476.527 212.664 479.995 211.83 483.51C210.928 487.257 211.738 491.234 210.511 494.934C210.349 495.35 210.28 495.744 210.21 496.137C209.122 495.189 208.081 494.402 207.687 494.055C208.567 489.569 208.289 484.574 205.836 480.597C204.054 477.405 199.679 476.55 197.272 479.51C194.703 482.84 195.652 487.812 198.152 490.887C201.392 495.073 207.271 495.998 210.534 500.068C210.951 500.577 211.205 501.317 211.969 501.386C212.015 501.386 212.039 501.363 212.085 501.34C213.242 503.213 214.33 505.132 215.603 506.913C218.357 511.122 223.819 512.949 225.879 517.643C226.782 520.418 227.152 523.355 228.032 526.13C228.749 528.419 229.744 530.593 230.647 532.79C229.675 532.096 228.68 531.426 227.638 530.848C225.023 529.298 222.107 528.165 219.052 528.003C217.524 527.957 216.02 527.656 214.608 527.078C213.057 522.777 210.696 518.869 208.497 514.891C206.877 512.255 203.892 510.058 200.675 510.521C194.217 512.047 196.485 520.603 200.513 523.633C204.702 527.24 209.979 529.09 215.163 530.755C217.524 531.449 220.07 531.194 222.408 532.027C225.069 532.975 227.592 534.386 229.883 536.051C231.203 536.86 232.128 538.386 233.61 538.872C234.188 539.797 234.767 540.722 235.322 541.67C235.6 542.156 235.901 542.549 236.433 542.711C236.688 545.74 237.058 548.77 237.567 551.776C237.22 551.614 236.757 551.591 236.202 551.822C234.119 551.822 232.128 550.99 230.207 550.273C225.439 548.561 220.649 546.642 215.557 546.18C211.853 545.532 207.063 546.55 206.252 550.781C205.558 553.973 206.785 557.927 209.979 559.245C216.783 562.113 220.44 554.759 226.851 554.458C228.055 554.181 229.282 554.111 230.462 553.765C231.874 553.348 237.475 555.476 238.308 556.979C239.697 559.453 239.072 563.801 239.951 566.599C241.664 571.825 244.302 576.728 247.797 580.96C249.441 583.087 251.709 584.983 252.889 587.342C256.245 594.049 257.078 601.079 259.231 608.224C260.272 611.693 260.897 615.254 261.569 618.816C258.537 617.243 255.643 615.486 253.375 612.896C250.366 609.751 246.779 607.161 244.071 603.738C241.502 599.922 239.604 595.667 236.966 591.898C234.235 587.99 230.971 584.475 227.592 581.122C223.819 577.838 219.121 575.687 214.214 574.785C209.655 573.629 204.054 573.282 200.721 577.213C198.152 579.988 196.948 583.85 197.55 587.574C197.851 590.418 198.36 593.332 199.795 595.852C202.225 599.899 206.345 602.466 210.442 604.594C214.723 606.976 219.26 608.802 223.866 610.421C227.777 611.762 231.758 613.52 235.994 613.427C238.03 613.173 240.113 613.266 242.15 613.057C243.238 612.919 244.279 612.202 245.413 612.456C245.969 612.618 246.524 612.803 247.103 612.919C247.635 613.011 248.098 613.081 248.445 613.543C249.626 614.584 250.783 615.671 251.94 616.734C254.857 619.509 258.606 621.174 262.332 622.608C263.698 627.58 265.781 632.298 266.753 637.385C267.586 641.848 269.924 645.733 271.799 649.803C273.974 655.053 275.779 660.51 278.765 665.39C281.033 669.298 283.51 673.067 285.616 677.068C287.306 680.259 288.949 683.497 291.171 686.387C292.837 688.445 294.434 690.55 296.031 692.677C289.435 690.804 282.005 690.249 276.057 686.642C272.794 684.676 270.78 684.352 268.975 680.907C266.799 676.813 264.415 672.859 262.17 668.789C260.226 665.135 257.703 661.713 254.278 659.331C251.339 657.25 248.052 655.746 244.858 654.058C241.687 652.393 238.563 650.543 235.068 649.688C226.574 647.676 214.955 645.733 213.242 657.273C212.363 662.568 212.941 668.234 215.603 672.975C220.834 681.832 231.388 686.179 241.294 686.919C247.867 687.405 254.37 686.757 260.944 686.734C265.92 686.734 271.521 687.705 276.103 689.648C275.918 689.81 275.733 689.972 275.548 690.157C274.784 689.648 273.835 689.995 273.048 690.249C271.058 691.012 268.975 691.567 266.961 692.284C260.828 694.574 254.741 697.325 249.371 701.095C246.524 703.176 244.488 706.437 244.465 710.044C244.627 714.392 246.501 719.595 250.783 721.376C259.092 724.243 263.675 715.548 267.262 709.651C268.859 707.107 270.734 704.749 272.354 702.228C274.067 699.545 275.155 696.539 276.659 693.741C277.191 692.608 278.117 691.729 279.159 691.035C281.566 692.145 283.95 693.232 286.495 693.972C289.713 694.805 293.022 695.29 296.193 696.285C297.42 696.585 298.554 697.164 299.688 697.695C300.336 698.597 300.984 699.476 301.632 700.378C304.942 704.795 307.048 709.975 310.473 714.322C311.399 715.641 312.348 716.936 313.343 718.207C313.876 718.855 314.385 719.641 315.264 719.78C317.903 719.919 318.134 717.282 316.561 715.802C314.709 713.328 312.788 710.877 311.075 708.31C309.247 705.28 308.02 701.904 306.076 698.944C303.623 695.244 301.216 691.521 298.554 687.96C297.86 687.035 297.142 686.133 296.425 685.208C296.656 683.82 296.911 682.433 297.374 681.092C299.225 676.767 302.211 672.813 305.613 669.575C313.413 666.268 317.093 678.502 333.317 668.835C336.581 666.985 339.474 662.221 336.303 659.007C334.938 657.504 333.063 656.764 331.142 656.232C325.379 654.451 318.782 654.29 313.436 657.365C309.339 660.371 305.266 663.493 301.702 667.147C299.433 669.46 297.836 672.258 296.401 675.148C296.98 671.888 296.934 667.378 297.35 665.852C297.536 664.21 297.698 662.545 297.86 660.88C298.068 660.58 298.184 660.21 298.068 659.816C298.045 659.77 297.998 659.724 297.975 659.678C298.16 657.481 298.392 655.284 298.623 653.087C299.156 652.717 299.595 652.116 300.105 651.746C302.35 649.641 304.896 647.907 307.488 646.265C307.951 646.52 308.483 646.45 308.969 646.335C310.08 646.08 311.191 646.034 312.325 646.126C313.899 646.034 315.357 646.589 316.838 647.075C320.102 647.976 323.99 648.161 326.721 645.826C329.799 643.444 330.332 638.287 328.087 635.211C326.397 633.246 323.527 632.991 321.097 632.922C314.038 632.413 310.89 635.882 307.974 641.802C307.465 642.75 306.585 643.351 305.729 643.953C303.599 645.456 301.516 647.028 299.642 648.832C299.457 649.017 299.271 649.202 299.086 649.387C299.318 647.745 299.572 646.126 299.919 644.508C301.493 639.073 304.919 634.494 308.437 630.17C310.659 627.164 313.505 624.736 316.167 622.146C317.695 620.55 319.407 619.116 321.236 617.914C321.328 617.844 321.328 617.867 321.421 617.914C323.365 619.394 324.476 621.683 326.281 623.325C329.568 626.794 334.567 629.314 339.219 626.886C343.015 625.152 344.242 620.712 343.571 616.873C343.247 614.329 342.043 611.508 339.428 610.629C333.387 608.802 327.369 611.624 321.93 614.029C321.722 614.144 321.514 614.237 321.305 614.352C321.097 614.468 321.19 614.422 321.097 614.445C323.735 611.462 326.305 608.409 328.249 604.964C329.915 605.218 331.628 605.241 333.294 604.871C335.539 604.501 337.831 604.247 339.96 603.414C343.432 601.819 347.505 599.76 348.57 595.76C350.028 591.25 344.473 586.487 340.215 586.741C333.942 587.874 327.971 598.419 325.425 603.83C323.597 607.114 321.19 610.028 318.875 612.988C318.551 613.381 318.227 613.751 317.903 614.144C319.963 610.398 321.861 606.421 321.814 602.073C321.814 601.888 321.768 601.518 321.884 601.356C323.435 597.957 325.309 594.696 326.744 591.227C328.758 586.672 330.077 580.012 325.795 576.358C323.365 574.739 319.917 574.508 317.556 576.358C311.955 580.567 313.644 589.285 315.936 594.904C317 597.009 318.366 598.974 318.528 601.379C318.296 601.934 318.204 602.605 318.574 603.114C318.273 606.906 316.561 610.329 314.894 613.705C313.459 617.59 311.677 621.591 309.015 624.643C306.192 627.858 303.391 631.164 301.1 634.795C301.169 632.321 300.822 629.823 299.711 627.58C299.433 626.956 299.156 626.354 298.878 625.753C298.808 625.637 298.762 625.591 298.808 625.476C299.202 624.366 299.572 623.256 299.896 622.146C301.401 616.133 305.729 606.027 302.998 600.269C302.072 598.373 300.105 597.217 298.091 596.777C290.546 595.066 285.986 604.941 287.375 611.207C288.648 615.624 290.893 619.81 293.346 623.672C294.064 624.759 294.874 625.823 295.453 627.002C295.499 627.164 295.453 627.349 295.499 627.511C295.545 627.904 295.777 628.251 296.077 628.482C296.263 628.621 296.216 628.528 296.286 628.69C297.119 630.355 297.651 632.136 297.767 634.009C297.952 636.599 297.42 639.166 296.887 641.663C296.679 642.519 296.401 643.698 296.864 644.415C296.286 646.843 296.031 649.341 295.615 651.815C295.406 653.064 295.267 654.336 295.128 655.608C295.082 655.538 295.013 655.446 294.943 655.376C293.578 653.55 292.212 651.653 290.407 650.243C290.407 650.22 290.407 649.942 290.407 649.942C290.569 644.276 290.106 630.887 283.163 629.453C279.668 629.106 277.747 633.014 277.238 635.951C276.682 639.698 278.58 643.374 280.663 646.381C283.487 649.688 287.514 651.7 290.546 654.775C292.05 656.44 293.462 658.175 294.897 659.909C294.897 660.094 294.874 660.279 294.874 660.464C294.689 664.095 294.18 667.702 294.018 671.356C293.902 672.79 294.666 677.23 293.115 678.062C291.31 679.033 288.694 672.35 287.93 671.102C284.598 665.575 280.779 660.279 278.441 654.243C277.168 651.191 275.988 648.092 274.414 645.178C272.747 642.334 271.451 639.328 270.757 636.113C269.762 631.072 267.725 626.354 266.336 621.429C265.573 617.937 265.133 614.399 264.184 610.953C263.119 607.114 261.939 603.299 261.013 599.414C259.763 594.141 257.31 588.73 258.722 583.226C258.999 582.023 259.3 580.844 259.578 579.642C259.647 579.572 259.694 579.503 259.763 579.433C260.758 578.37 261.8 577.329 262.865 576.288C265.272 574.115 267.702 571.987 270.016 569.698C270.456 569.258 270.942 568.865 271.428 568.472C271.521 568.472 271.683 568.472 271.775 568.472C275.918 569.536 279.714 571.872 283.093 574.438C285.709 576.728 288.139 579.433 291.61 580.428C299.85 583.041 306.331 576.173 305.196 568.056C304.687 561.858 301.609 558.621 295.453 557.65C291.772 557.372 288.092 558.205 284.436 558.644C279.807 559.361 275.409 561.396 271.521 563.963C268.929 565.605 266.961 567.987 264.878 570.183C263.559 571.548 262.17 572.866 260.897 574.277C261.8 570.762 262.703 567.247 263.652 563.732C263.952 562.436 264.114 561.072 264.346 559.777C264.878 559.083 265.434 558.39 265.966 557.696C267.17 556.123 268.882 554.967 270.803 554.551C272.956 554.204 274.969 553.395 277.029 552.678C280.107 551.637 283.163 550.527 286.357 549.833C288.208 549.348 290.013 548.654 291.703 547.775C295.267 545.925 298.947 544.214 302.118 541.716C309.849 535.75 315.01 525.737 313.32 515.862C312.209 506.034 305.983 499.698 296.656 497.062C293.138 495.929 289.458 497.062 286.195 498.519C282.677 499.883 279.39 501.779 276.497 504.207C265.804 511.723 260.226 521.991 258.976 534.941C258.722 537.392 258.791 539.913 259.161 542.364C259.578 545.625 261.036 548.631 261.522 551.891C261.846 554.805 261.013 557.696 260.62 560.563C259.972 564.68 258.537 568.634 257.68 572.704C256.893 575.988 256.268 579.295 255.551 582.602C254.926 581.862 254.301 581.145 253.699 580.405C248.538 573.976 244.627 566.206 244.025 557.881C243.631 553.533 242.405 549.301 241.942 544.954C241.34 535.796 240.993 526.616 240.46 517.458C240.923 508.509 240.414 499.536 240.46 490.564C240.646 490.124 240.784 489.615 240.946 489.222C241.965 486.979 242.705 484.597 244.094 482.539C247.612 476.55 252.01 471.115 255.852 465.311C255.967 465.311 256.06 465.311 256.176 465.311C258.93 465.056 261.661 465.588 264.415 465.704C265.133 465.75 265.85 465.704 266.568 465.704C266.799 466.999 268.373 468.595 269.044 469.427C270.595 471.115 272.007 473.173 272.192 475.532C272.192 475.648 272.192 475.625 272.146 475.717C271.961 476.064 272.007 476.457 272.099 476.827C271.961 477.637 271.729 478.492 271.567 479.302C271.289 480.943 271.683 482.562 272.099 484.158C272.609 486.702 273.627 489.361 276.011 490.702C278.163 492.09 281.033 491.604 282.723 489.731C283.95 488.76 284.482 487.164 283.88 485.684C282.746 482.886 280.871 480.203 278.348 478.492C277.284 477.706 276.08 477.035 275.27 475.948C275.224 475.856 275.27 475.602 275.27 475.486C275.155 471.439 272.03 468.618 269.484 465.866C269.415 465.796 269.368 465.704 269.299 465.612C269.553 465.612 269.831 465.588 270.086 465.588C272.562 465.542 275.039 465.542 277.515 465.403C278.024 466.305 279.066 466.907 279.853 467.577C280.594 468.202 281.334 468.872 282.098 469.497C282.167 469.45 282.26 469.427 282.353 469.404C283.95 471.832 286.403 473.728 289.296 474.307C290.083 474.376 290.569 473.867 290.731 473.289C297.952 472.734 302.234 462.513 293.393 460.246C292.282 459.9 291.217 459.876 290.175 459.969C290.152 459.969 290.129 459.946 290.106 459.923C289.041 459.761 287.954 459.553 286.866 459.53C284.898 459.576 283.116 460.431 281.357 461.241C280.524 461.565 279.853 462.143 279.135 462.628C277.7 462.698 276.289 462.721 274.854 462.767C273.048 462.767 271.266 462.836 269.484 462.929C267.47 463.021 265.457 463.114 263.466 463.091C261.476 463.021 259.416 462.813 257.402 462.906C257.912 462.096 258.444 461.31 258.907 460.478C259.833 458.813 260.666 457.101 261.522 455.39C262.402 455.09 262.888 454.003 263.628 453.448C265.318 451.644 267.563 450.488 269.993 450.025C273.326 449.146 276.497 447.805 279.853 447.065C280.455 446.973 280.987 446.834 281.496 446.672C281.681 446.718 281.866 446.741 282.075 446.718C285.13 446.441 288.139 447.25 291.124 447.782C291.888 448.823 292.397 450.025 293.393 450.881C295.591 452.569 298.276 453.818 301.077 454.003C304.78 454.165 308.946 451.991 310.08 448.291C311.376 443.966 307.881 440.567 303.669 440.451C299.549 440.243 295.267 441.885 292.444 444.868C292.05 444.984 291.657 444.868 291.263 444.799C289.412 444.452 287.514 444.221 285.616 444.128C286.472 443.226 287.19 442.093 287.907 440.775C289.018 438.833 289.921 436.682 290.222 434.462C291.009 433.722 291.865 433.074 292.675 432.358C294.666 430.669 295.892 428.357 296.749 425.929C300.683 412.377 284.366 415.176 286.079 426.623C286.195 428.773 286.889 430.854 287.074 433.005C287.144 433.19 287.074 433.352 286.912 433.444C286.542 433.953 286.519 434.693 286.889 435.202C286.171 437.792 284.25 442.787 281.45 443.527C278.001 444.429 274.553 445.284 271.243 446.603C268.581 447.505 265.596 447.99 263.466 449.933C264.346 443.527 264.161 436.959 265.503 430.577C265.526 430.415 265.503 430.415 265.619 430.438C266.197 430.554 266.707 430.23 267.031 429.768C270.664 425.351 277.677 420.425 278.163 414.482C278.418 411.568 277.747 407.891 274.576 406.897C271.498 406.041 267.864 407.012 265.573 409.256C263.744 411.291 262.286 413.788 261.569 416.447C260.666 420.494 263.142 424.402 262.818 428.426C261.869 433.421 261.082 438.463 260.851 443.55C260.805 445.493 260.851 447.458 260.573 449.401C260.573 450.002 260.319 450.927 260.11 451.898C259.81 452.291 259.578 452.8 259.3 453.193C257.703 456.015 256.106 458.859 254.116 461.449C249.533 467.785 244.534 474.052 241.132 481.128C241.687 476.064 242.358 471.023 243.076 466.005C243.724 458.05 245.136 450.164 247.797 442.602C250.968 431.941 255.227 421.674 259.763 411.545C263.05 402.688 267.216 394.178 270.78 385.367C271.729 384.673 272.701 383.98 273.581 383.193C274.553 382.338 275.502 381.459 276.474 380.603C276.705 380.65 276.937 380.65 277.168 380.603C283.093 381.135 288.671 384.165 294.712 383.748C297.235 387.079 298.832 391.033 300.267 394.941C302.905 401.555 309.409 405.648 316.051 407.452C330.123 410.874 340.469 395.103 329.012 384.882C327.346 383.402 325.402 382.268 323.435 381.228C318.458 378.383 312.857 376.672 307.117 377.944C304.942 378.222 302.743 378.43 300.614 378.985C297.86 379.771 295.128 381.02 292.189 380.58C287.792 380.442 283.602 378.753 279.274 378.314C281.08 376.95 282.862 375.516 284.297 373.758C285.685 372.14 286.843 370.313 287.93 368.486C289.713 367.584 291.587 366.497 293.624 366.474C296.841 366.451 300.058 366.567 303.275 366.636C309.733 367.006 316.213 368.324 322.671 367.353C327.207 366.775 331.558 365.248 335.748 363.491C338.988 362.173 342.112 360.485 344.473 357.871C347.482 354.911 350.144 351.42 350.861 347.165C351.903 340.828 349.496 333.706 344.126 329.936C336.974 325.173 327.855 321.935 319.268 324.201C315.912 325.149 312.348 325.658 309.316 327.462C305.775 329.751 302.72 332.711 299.711 335.648C296.378 338.701 293.555 342.285 291.888 346.54C290.523 349.755 289.736 353.154 289.088 356.553C287.861 361.618 285.176 366.289 282.283 370.59C280.478 373.296 277.816 375.146 275.363 377.204C274.437 378.083 273.558 378.985 272.655 379.887C273.743 376.765 274.854 373.643 276.219 370.613C281.056 357.039 286.125 343.048 292.166 329.959C293.531 327.092 294.758 324.086 295.383 320.964C296.216 320.663 296.887 319.946 297.605 319.437C299.873 317.564 301.956 315.506 304.109 313.517C306.192 313.402 308.252 312.569 310.358 313.194C313.945 313.864 317.648 314.026 321.236 313.263C326.467 312.199 335.285 309.586 338.386 305.077C340.608 301.007 340.029 294.971 336.21 292.034C331.165 288.681 325.865 292.867 321.421 295.272C313.274 299.157 307.071 305.979 300.822 312.338C299.156 314.072 297.512 315.83 295.8 317.518C295.8 317.009 295.823 316.501 295.8 315.992C300.058 308.245 305.266 301.007 309.363 293.121C314.153 283.362 318.273 272.771 318.759 261.81C318.62 254.41 317.764 246.709 313.806 240.303C312.14 237.574 310.335 234.938 308.622 232.233C306.747 229.388 304.039 227.191 301.1 225.526C295.73 222.844 289.203 223.861 283.626 225.411C276.52 227.608 272.632 235.586 270.364 242.176C268.535 246.963 267.563 252.097 268.443 257.185C268.975 263.613 271.081 269.718 274.044 275.407C276.034 279.153 278.071 282.877 279.783 286.762C282.098 291.618 284.76 296.335 286.426 301.492C287.907 306.141 292.467 310.742 291.634 315.645C290.708 321.079 290.106 326.768 287.768 331.694C284.343 338.955 281.334 346.401 278.279 353.848C275.363 361.618 272.516 369.411 269.577 377.158C269.114 375.354 268.234 373.666 267.447 371.978C266.059 368.602 264.114 365.549 261.661 362.843C260.087 359.999 257.68 357.039 258.213 353.616C259.601 348.621 263.027 344.459 265.85 340.204C268.257 336.758 270.502 333.151 273.233 329.959C274.715 328.318 276.427 326.861 277.562 324.941C281.843 318.906 275.108 314.026 269.391 316.616C266.105 318.189 265.434 322.097 265.249 325.381C265.11 327.439 265.133 329.52 265.619 331.532C265.758 332.156 265.781 332.943 266.336 333.359C265.341 334.816 264.323 336.249 263.304 337.706C263.235 337.591 263.142 337.475 263.073 337.359C259.81 333.891 256.87 330.144 253.746 326.56C253.699 326.514 253.607 326.421 253.584 326.375C253.722 325.728 254.139 325.172 254.463 324.617C255.921 322.166 257.24 319.622 258.398 317.009C259.208 315.275 259.879 313.379 259.578 311.436C258.722 304.614 249.927 303.735 246.918 309.586C245.344 312.546 245.946 316.061 246.71 319.183C247.705 323.831 250.297 327.901 253.491 331.37C255.875 333.706 257.842 336.434 260.458 338.516C260.666 338.724 260.944 338.932 261.106 339.186C261.152 339.464 261.198 339.764 261.406 339.996C261.476 340.065 261.545 340.088 261.615 340.134C259.046 343.904 256.685 347.789 255.204 352.09C254.949 352.946 254.88 353.778 254.88 354.634C253.028 353.2 251.061 351.928 249.07 350.726C248.075 350.24 247.057 349.847 246.038 349.454C245.344 348.228 243.816 346.818 243.238 346.17C242.196 345.153 241.132 344.158 240.067 343.141C240.183 342.933 240.252 342.701 240.252 342.424C240.9 340.898 241.687 339.394 242.636 338.03C244.048 336.203 246.015 334.492 245.899 331.971C246.038 328.595 244.187 324.71 240.715 323.808C238.053 323.276 236.086 326.19 236.179 328.572C236.48 331.532 238.262 334.469 240.553 336.319C240.021 337.105 238.563 339.325 237.938 341.129C235.554 338.909 233.147 336.712 230.647 334.608C231.897 331.509 232.128 328.086 232.545 324.802C232.938 321.842 232.892 318.721 231.434 316.061C229.143 310.557 221.435 306.719 216.552 311.344C214.677 313.147 213.335 315.969 213.937 318.605C214.538 320.432 215.95 321.866 217.293 323.207C218.704 324.594 220.186 325.959 221.459 327.485C223.588 330.144 225.092 333.289 227.314 335.903C231.897 339.949 236.688 343.765 241.201 347.905C237.336 346.818 233.424 345.87 229.814 344.181C227.685 342.84 225.439 341.129 222.778 341.638C215.788 342.493 212.964 348.575 217.941 353.894C221.945 358.126 228.194 355.513 232.429 353.061C234.003 352.206 235.322 350.656 237.104 350.379C241.224 351.512 245.506 352.46 249.209 354.657C251.246 355.883 253.283 357.131 255.134 358.611C255.366 358.82 255.597 359.051 255.852 359.236C256.546 360.97 257.495 362.658 258.444 364.208C259.37 365.803 260.735 367.075 261.684 368.648C263.235 371.192 265.202 374.452 266.174 377.273C267.262 380.372 265.758 384.951 264.994 388.027C263.999 392.004 261.638 395.889 259.948 399.635C258.213 403.474 256.731 407.475 254.949 411.267C248.33 425.374 242.567 440.035 239.535 455.344C239.025 458.05 238.794 460.801 238.516 463.53C238.1 462.952 237.683 462.443 237.405 462.096C235.415 459.853 233.471 457.541 232.313 454.766C231.179 452.153 229.629 449.655 228.263 447.25C229.698 442.278 231.758 437.445 232.638 432.334C233.286 428.519 233.725 424.657 234.327 420.818C234.998 416.054 236.132 411.291 235.901 406.434C235.531 401.416 233.91 396.49 231.804 391.935C228.263 383.841 220.186 378.684 211.298 379.54C201.647 381.251 196.022 390.617 192.504 398.965C189.75 405.463 191.255 409.926 194.333 415.823C196.647 420.332 199.934 424.518 204.077 427.501L204.031 427.663Z" fill="#B4E8D0"/>
</g>
<defs>
<clipPath id="clip0_30_307">
<rect width="196" height="245" fill="white" transform="translate(38 493.383) rotate(-14.2914)"/>
</clipPath>
<clipPath id="clip1_30_307">
<rect width="158" height="420" fill="white" transform="translate(600.715 355) rotate(25.7876)"/>
</clipPath>
<clipPath id="clip2_30_307">
<rect width="113" height="320" fill="white" transform="translate(0 411)"/>
</clipPath>
<clipPath id="clip3_30_307">
<rect width="184" height="269" fill="white" transform="translate(321 453)"/>
</clipPath>
<clipPath id="clip4_30_307">
<rect width="160" height="498" fill="white" transform="translate(191 224)"/>
</clipPath>
</defs>
</svg>
