<svg width="62" height="75" viewBox="0 0 62 75" fill="none" xmlns="http://www.w3.org/2000/svg">
<path d="M17.6907 41.011C17.6907 41.011 1.89143 40.9325 6.62152 13.744C6.62152 13.744 29.3608 26.9501 17.6907 41.011Z" fill="#B4E8D0" stroke="#015061" stroke-width="3" stroke-linecap="round" stroke-linejoin="round"/>
<path d="M47.0316 44.3493C47.0316 44.3493 45.9386 53.1209 41.5387 52.589C35.0635 51.8017 35.8314 42.5052 35.8314 42.5052L47.0385 44.3493H47.0316Z" fill="#ABE0F7" stroke="#015061" stroke-width="3" stroke-linecap="round" stroke-linejoin="round"/>
<path d="M10.131 43.707C10.131 43.707 11.2241 52.4785 15.6239 51.9467C22.0992 51.1594 21.3313 41.8629 21.3313 41.8629L10.1241 43.707H10.131Z" fill="#ABE0F7" stroke="#015061" stroke-width="3" stroke-linecap="round" stroke-linejoin="round"/>
<path d="M48.3373 40.2536C48.3373 40.2536 36.8534 29.4169 58.9218 12.7923C58.9218 12.7923 66.4832 37.9467 48.3373 40.2536Z" fill="#B4E8D0" stroke="#015061" stroke-width="3" stroke-linecap="round" stroke-linejoin="round"/>
<path d="M33.1887 72.964C46.1982 72.964 56.7444 65.6601 56.7444 56.6502C56.7444 47.6404 46.1982 40.3365 33.1887 40.3365C20.1792 40.3365 9.63295 47.6404 9.63295 56.6502C9.63295 65.6601 20.1792 72.964 33.1887 72.964Z" fill="#ABE0F7" stroke="#015061" stroke-width="3" stroke-linecap="round" stroke-linejoin="round"/>
<path d="M59.1657 42.1115C61.5524 48.4243 60.3833 55.9043 56.1218 59.848C50.9541 64.6344 41.4003 66.5545 32.8635 66.6305C26.1185 66.6857 15.0636 65.3596 8.76128 59.3508C5.39222 56.1391 4.11931 49.2738 6.74814 42.1944C11.0235 30.6877 17.2912 22.9383 32.8566 22.9383C48.4221 22.9383 54.8143 30.6394 59.1588 42.1115H59.1657Z" fill="#B4E8D0" stroke="#015061" stroke-width="3" stroke-linecap="round" stroke-linejoin="round"/>
<path d="M17.222 55.1514C20.5613 55.1514 23.2683 52.4488 23.2683 49.1149C23.2683 45.7811 20.5613 43.0784 17.222 43.0784C13.8827 43.0784 11.1757 45.7811 11.1757 49.1149C11.1757 52.4488 13.8827 55.1514 17.222 55.1514Z" fill="white" stroke="#015061" stroke-width="2" stroke-linecap="round" stroke-linejoin="round"/>
<path d="M17.9899 53.1278C20.714 53.1278 22.9224 50.923 22.9224 48.2032C22.9224 45.4835 20.714 43.2787 17.9899 43.2787C15.2657 43.2787 13.0574 45.4835 13.0574 48.2032C13.0574 50.923 15.2657 53.1278 17.9899 53.1278Z" fill="#015061"/>
<path d="M29.6568 27.5965C29.6568 27.5965 38.5554 15.7979 17.4015 9.33893C17.4015 9.33893 13.4949 31.1268 29.6616 27.6012L29.6568 27.5965Z" fill="#ABE0F7" stroke="#015061" stroke-width="3" stroke-linecap="round" stroke-linejoin="round"/>
<path d="M48.685 54.9788C51.9288 54.9788 54.5584 52.3534 54.5584 49.1149C54.5584 45.8764 51.9288 43.2511 48.685 43.2511C45.4412 43.2511 42.8116 45.8764 42.8116 49.1149C42.8116 52.3534 45.4412 54.9788 48.685 54.9788Z" fill="white" stroke="#015061" stroke-width="2" stroke-linecap="round" stroke-linejoin="round"/>
<path d="M47.8687 52.9275C50.5164 52.9275 52.6628 50.7845 52.6628 48.1411C52.6628 45.4976 50.5164 43.3547 47.8687 43.3547C45.2209 43.3547 43.0745 45.4976 43.0745 48.1411C43.0745 50.7845 45.2209 52.9275 47.8687 52.9275Z" fill="#015061"/>
<path d="M29.6674 56.2704C29.6674 56.2704 32.7529 58.9985 35.5685 56.2704" stroke="#015061" stroke-width="3" stroke-linecap="round" stroke-linejoin="round"/>
<path d="M34.7534 27.6012C34.7534 27.6012 25.8613 15.8025 47.0113 9.33893C47.0113 9.33893 50.9171 31.1268 34.7534 27.6012Z" fill="#ABE0F7" stroke="#015061" stroke-width="3" stroke-linecap="round" stroke-linejoin="round"/>
<path d="M32.7633 27.9872C32.7633 27.9872 49.4855 21.0198 31.4322 1.74149C31.4322 1.74149 13.6402 22.0466 32.7633 27.9872Z" fill="#ABE0F7" stroke="#015061" stroke-width="3" stroke-linecap="round" stroke-linejoin="round"/>
</svg>
