<svg width="83" height="124" viewBox="0 0 83 124" fill="none" xmlns="http://www.w3.org/2000/svg">
<path d="M43.6501 91.04C43.6501 91.04 36.7601 69.26 76.3301 63.71C76.3301 63.71 68.2001 100.86 43.6501 91.04Z" fill="#B4E8D0" stroke="#015061" stroke-width="3" stroke-linecap="round" stroke-linejoin="round"/>
<path d="M41.9502 117V104.67C41.9502 88.3501 66.3202 84.6901 66.3202 104.67" stroke="#015061" stroke-width="3" stroke-linecap="round" stroke-linejoin="round"/>
<path d="M44.7801 103.21C44.7801 103.21 29.5901 120.27 4.58008 89.0999C4.58008 89.0999 40.6601 77.0799 44.7801 103.21Z" fill="#B4E8D0" stroke="#015061" stroke-width="3" stroke-linecap="round" stroke-linejoin="round"/>
<path d="M41.7 45.48C41.7 45.48 26.51 62.54 1.5 31.37C1.5 31.37 37.58 19.35 41.7 45.48Z" fill="#B4E8D0" stroke="#015061" stroke-width="3" stroke-linecap="round" stroke-linejoin="round"/>
<path d="M43.4601 42.3399C43.4601 42.3399 40.8401 19.6499 80.7401 21.7199C80.7401 21.7199 65.6901 56.6399 43.4601 42.3399Z" fill="#B4E8D0" stroke="#015061" stroke-width="3" stroke-linecap="round" stroke-linejoin="round"/>
<path d="M42 99.8241V76.5241C42 60.9841 60.06 61.3341 60.06 76.5241" stroke="#015061" stroke-width="3" stroke-linecap="round" stroke-linejoin="round"/>
<path d="M60.06 83.4442C62.9926 83.4442 65.37 81.0668 65.37 78.1342C65.37 75.2016 62.9926 72.8242 60.06 72.8242C57.1274 72.8242 54.75 75.2016 54.75 78.1342C54.75 81.0668 57.1274 83.4442 60.06 83.4442Z" fill="#F97575" stroke="#015061" stroke-width="3" stroke-linecap="round" stroke-linejoin="round"/>
<path d="M41.9501 117.5V77.32C41.9501 56.84 17.5801 52.24 17.5801 77.32" stroke="#015061" stroke-width="3" stroke-linecap="round" stroke-linejoin="round"/>
<path d="M41.9502 91.21V54.4C41.9502 29.86 70.4802 30.41 70.4802 54.4" stroke="#015061" stroke-width="3" stroke-linecap="round" stroke-linejoin="round"/>
<path d="M17.5702 91.01C22.2038 91.01 25.9602 87.2536 25.9602 82.62C25.9602 77.9863 22.2038 74.23 17.5702 74.23C12.9365 74.23 9.18018 77.9863 9.18018 82.62C9.18018 87.2536 12.9365 91.01 17.5702 91.01Z" fill="#F97575" stroke="#015061" stroke-width="3" stroke-linecap="round" stroke-linejoin="round"/>
<path d="M70.4701 65.3501C75.1037 65.3501 78.8601 61.5937 78.8601 56.9601C78.8601 52.3264 75.1037 48.5701 70.4701 48.5701C65.8364 48.5701 62.0801 52.3264 62.0801 56.9601C62.0801 61.5937 65.8364 65.3501 70.4701 65.3501Z" fill="#F97575" stroke="#015061" stroke-width="3" stroke-linecap="round" stroke-linejoin="round"/>
<path d="M43.1902 27H43.1802C41.5565 27 40.2402 28.3163 40.2402 29.94V117.91C40.2402 119.534 41.5565 120.85 43.1802 120.85H43.1902C44.8139 120.85 46.1302 119.534 46.1302 117.91V29.94C46.1302 28.3163 44.8139 27 43.1902 27Z" fill="#B4E8D0" stroke="#015061" stroke-width="3" stroke-linecap="round" stroke-linejoin="round"/>
<path d="M66.3202 115.66C70.9538 115.66 74.7102 111.904 74.7102 107.27C74.7102 102.636 70.9538 98.8799 66.3202 98.8799C61.6865 98.8799 57.9302 102.636 57.9302 107.27C57.9302 111.904 61.6865 115.66 66.3202 115.66Z" fill="#F97575" stroke="#015061" stroke-width="3" stroke-linecap="round" stroke-linejoin="round"/>
<path d="M44.4106 37.7709C44.4106 37.7709 22.3623 43.7689 18.4365 4C18.4365 4 55.2192 13.6404 44.4106 37.7709Z" fill="#B4E8D0" stroke="#015061" stroke-width="3" stroke-linecap="round" stroke-linejoin="round"/>
</svg>
