<svg width="63" height="63" viewBox="0 0 63 63" fill="none" xmlns="http://www.w3.org/2000/svg">
<circle cx="31.5" cy="31.5" r="31.5" fill="#A3DA9A" fill-opacity="0.2"/>
<circle cx="31.5" cy="31.5" r="24.5" fill="#A3DA9A" fill-opacity="0.3"/>
<path d="M32.513 42.3169C32.513 42.3169 29.7487 33.5784 45.6248 31.3517C45.6248 31.3517 42.3629 46.2569 32.513 42.3169Z" fill="#B4E8D0" stroke="#015061" stroke-width="1.20365" stroke-linecap="round" stroke-linejoin="round"/>
<path d="M31.8311 52.7325V47.7855C31.8311 41.2377 41.6087 39.7692 41.6087 47.7855" stroke="#015061" stroke-width="1.20365" stroke-linecap="round" stroke-linejoin="round"/>
<path d="M32.9663 47.1997C32.9663 47.1997 26.8718 54.0445 16.8374 41.5386C16.8374 41.5386 31.3133 36.716 32.9663 47.1997Z" fill="#B4E8D0" stroke="#015061" stroke-width="1.20365" stroke-linecap="round" stroke-linejoin="round"/>
<path d="M31.7309 24.0376C31.7309 24.0376 25.6365 30.8824 15.6021 18.3765C15.6021 18.3765 30.0779 13.5538 31.7309 24.0376Z" fill="#B4E8D0" stroke="#015061" stroke-width="1.20365" stroke-linecap="round" stroke-linejoin="round"/>
<path d="M32.4365 22.7778C32.4365 22.7778 31.3853 13.6742 47.3939 14.5047C47.3939 14.5047 41.3556 28.5152 32.4365 22.7778Z" fill="#B4E8D0" stroke="#015061" stroke-width="1.20365" stroke-linecap="round" stroke-linejoin="round"/>
<path d="M31.8511 45.8414V36.493C31.8511 30.2582 39.097 30.3986 39.097 36.493" stroke="#015061" stroke-width="1.20365" stroke-linecap="round" stroke-linejoin="round"/>
<path d="M39.0968 39.2693C40.2734 39.2693 41.2272 38.3155 41.2272 37.1389C41.2272 35.9623 40.2734 35.0084 39.0968 35.0084C37.9201 35.0084 36.9663 35.9623 36.9663 37.1389C36.9663 38.3155 37.9201 39.2693 39.0968 39.2693Z" fill="#F97575" stroke="#015061" stroke-width="1.20365" stroke-linecap="round" stroke-linejoin="round"/>
<path d="M31.8313 52.9331V36.8122C31.8313 28.5953 22.0537 26.7497 22.0537 36.8122" stroke="#015061" stroke-width="1.20365" stroke-linecap="round" stroke-linejoin="round"/>
<path d="M31.8311 42.3852V27.6164C31.8311 17.7706 43.2777 17.9913 43.2777 27.6164" stroke="#015061" stroke-width="1.20365" stroke-linecap="round" stroke-linejoin="round"/>
<path d="M22.0493 42.3049C23.9084 42.3049 25.4155 40.7978 25.4155 38.9387C25.4155 37.0796 23.9084 35.5725 22.0493 35.5725C20.1902 35.5725 18.6831 37.0796 18.6831 38.9387C18.6831 40.7978 20.1902 42.3049 22.0493 42.3049Z" fill="#F97575" stroke="#015061" stroke-width="1.20365" stroke-linecap="round" stroke-linejoin="round"/>
<path d="M43.2739 32.0097C45.133 32.0097 46.6401 30.5026 46.6401 28.6435C46.6401 26.7844 45.133 25.2773 43.2739 25.2773C41.4148 25.2773 39.9077 26.7844 39.9077 28.6435C39.9077 30.5026 41.4148 32.0097 43.2739 32.0097Z" fill="#F97575" stroke="#015061" stroke-width="1.20365" stroke-linecap="round" stroke-linejoin="round"/>
<path d="M32.3286 16.6232H32.3246C31.6731 16.6232 31.145 17.1513 31.145 17.8027V53.0977C31.145 53.7492 31.6731 54.2773 32.3246 54.2773H32.3286C32.9801 54.2773 33.5082 53.7492 33.5082 53.0977V17.8027C33.5082 17.1513 32.9801 16.6232 32.3286 16.6232Z" fill="#B4E8D0" stroke="#015061" stroke-width="1.20365" stroke-linecap="round" stroke-linejoin="round"/>
<path d="M41.6084 52.1949C43.4675 52.1949 44.9746 50.6878 44.9746 48.8287C44.9746 46.9696 43.4675 45.4625 41.6084 45.4625C39.7493 45.4625 38.2422 46.9696 38.2422 48.8287C38.2422 50.6878 39.7493 52.1949 41.6084 52.1949Z" fill="#F97575" stroke="#015061" stroke-width="1.20365" stroke-linecap="round" stroke-linejoin="round"/>
<path d="M32.8182 20.9446C32.8182 20.9446 23.972 23.351 22.397 7.39514C22.397 7.39514 37.1548 11.263 32.8182 20.9446Z" fill="#B4E8D0" stroke="#015061" stroke-width="1.20365" stroke-linecap="round" stroke-linejoin="round"/>
</svg>
